  0
SECTION
  2
HEADER
  9
$ACADVER
  1
AC1014
  9
$HANDSEED
  5
FFFF
  9
$MEASUREMENT
 70
     1
  0
ENDSEC
  0
SECTION
  2
TABLES
  0
TABLE
  2
VPORT
  5
8
330
0
100
AcDbSymbolTable
 70
     4
  0
VPORT
  5
2E
330
8
100
AcDbSymbolTableRecord
100
AcDbViewportTableRecord
  2
*ACTIVE
 70
     0
 10
0.0
 20
0.0
 11
1.0
 21
1.0
 12
210.0
 22
148.5
 13
0.0
 23
0.0
 14
10.0
 24
10.0
 15
10.0
 25
10.0
 16
0.0
 26
0.0
 36
1.0
 17
0.0
 27
0.0
 37
0.0
 40
341.0
 41
1.24
 42
50.0
 43
0.0
 44
0.0
 50
0.0
 51
0.0
 71
     0
 72
   100
 73
     1
 74
     3
 75
     0
 76
     0
 77
     0
 78
     0
  0
ENDTAB
  0
TABLE
  2
LTYPE
  5
5
330
0
100
AcDbSymbolTable
 70
     1
  0
LTYPE
  5
14
330
5
100
AcDbSymbolTableRecord
100
AcDbLinetypeTableRecord
  2
BYBLOCK
 70
     0
  3

 72
    65
 73
     0
 40
0.0
  0
LTYPE
  5
15
330
5
100
AcDbSymbolTableRecord
100
AcDbLinetypeTableRecord
  2
BYLAYER
 70
     0
  3

 72
    65
 73
     0
 40
0.0
  0
LTYPE
  5
16
330
5
100
AcDbSymbolTableRecord
100
AcDbLinetypeTableRecord
  2
CONTINUOUS
 70
     0
  3
Solid line
 72
    65
 73
     0
 40
0.0
  0
ENDTAB
  0
TABLE
  2
LAYER
  5
2
100
AcDbSymbolTable
 70
1
  0
LAYER
  5
50
100
AcDbSymbolTableRecord
100
AcDbLayerTableRecord
  2
0
 70
0
  6
CONTINUOUS
  0
ENDTAB
  0
TABLE
  2
STYLE
  5
3
330
0
100
AcDbSymbolTable
 70
     1
  0
STYLE
  5
11
330
3
100
AcDbSymbolTableRecord
100
AcDbTextStyleTableRecord
  2
STANDARD
 70
     0
 40
0.0
 41
1.0
 50
0.0
 71
     0
 42
2.5
  3
txt
  4

  0
ENDTAB
  0
TABLE
  2
VIEW
  5
6
330
0
100
AcDbSymbolTable
 70
     0
  0
ENDTAB
  0
TABLE
  2
UCS
  5
7
330
0
100
AcDbSymbolTable
 70
     0
  0
ENDTAB
  0
TABLE
  2
APPID
  5
9
330
0
100
AcDbSymbolTable
 70
     2
  0
APPID
  5
12
330
9
100
AcDbSymbolTableRecord
100
AcDbRegAppTableRecord
  2
ACAD
 70
     0
  0
ENDTAB
  0
TABLE
  2
DIMSTYLE
  5
A
330
0
100
AcDbSymbolTable
 70
     1
  0
DIMSTYLE
105
27
330
A
100
AcDbSymbolTableRecord
100
AcDbDimStyleTableRecord
  2
ISO-25
 70
     0
  3

  4

  5

  6

  7

 40
1.0
 41
2.5
 42
0.625
 43
3.75
 44
1.25
 45
0.0
 46
0.0
 47
0.0
 48
0.0
140
2.5
141
2.5
142
0.0
143
0.03937007874016
144
1.0
145
0.0
146
1.0
147
0.625
 71
     0
 72
     0
 73
     0
 74
     0
 75
     0
 76
     0
 77
     1
 78
     8
170
     0
171
     3
172
     1
173
     0
174
     0
175
     0
176
     0
177
     0
178
     0
270
     2
271
     2
272
     2
273
     2
274
     3
340
11
275
     0
280
     0
281
     0
282
     0
283
     0
284
     8
285
     0
286
     0
287
     3
288
     0
  0
ENDTAB
  0
TABLE
  2
BLOCK_RECORD
  5
1
330
0
100
AcDbSymbolTable
 70
     1
  0
BLOCK_RECORD
  5
1F
330
1
100
AcDbSymbolTableRecord
100
AcDbBlockTableRecord
  2
*MODEL_SPACE
  0
BLOCK_RECORD
  5
1B
330
1
100
AcDbSymbolTableRecord
100
AcDbBlockTableRecord
  2
*PAPER_SPACE
  0
ENDTAB
  0
ENDSEC
  0
SECTION
  2
BLOCKS
  0
BLOCK
  5
20
330
1F
100
AcDbEntity
  8
0
100
AcDbBlockBegin
  2
*MODEL_SPACE
 70
     0
 10
0.0
 20
0.0
 30
0.0
  3
*MODEL_SPACE
  1

  0
ENDBLK
  5
21
330
1F
100
AcDbEntity
  8
0
100
AcDbBlockEnd
  0
BLOCK
  5
1C
330
1B
100
AcDbEntity
 67
     1
  8
0
100
AcDbBlockBegin
  2
*PAPER_SPACE
  1

  0
ENDBLK
  5
1D
330
1B
100
AcDbEntity
 67
     1
  8
0
100
AcDbBlockEnd
  0
ENDSEC
  0
SECTION
  2
ENTITIES
  0
LWPOLYLINE
  5
100
100
AcDbEntity
  8
0
 62
7
100
AcDbPolyline
 90
11
 70
1
 10
10.907999
 20
27.940663
 30
0.0
 10
10.018889
 20
27.051553
 30
0.0
 10
10.018889
 20
25.781553
 30
0.0
 10
10.537031
 20
25.263962
 30
0.0
 10
11.108090
 20
25.835021
 30
0.0
 10
10.527109
 20
26.416553
 30
0.0
 10
11.542999
 20
27.432443
 30
0.0
 10
12.124531
 20
26.851462
 30
0.0
 10
12.695590
 20
27.422521
 30
0.0
 10
12.177999
 20
27.940663
 30
0.0
 10
10.907999
 20
27.940663
 30
0.0
  0
LWPOLYLINE
  5
101
100
AcDbEntity
  8
0
 62
7
100
AcDbPolyline
 90
12
 70
1
 10
15.331502
 20
27.940663
 30
0.0
 10
14.442943
 20
27.051553
 30
0.0
 10
14.442943
 20
25.781553
 30
0.0
 10
15.143537
 20
25.080958
 30
0.0
 10
15.715148
 20
25.652017
 30
0.0
 10
14.950612
 20
26.416553
 30
0.0
 10
15.966502
 20
27.432443
 30
0.0
 10
16.731037
 20
26.668458
 30
0.0
 10
17.302648
 20
27.239517
 30
0.0
 10
16.955933
 20
27.586232
 30
0.0
 10
16.601502
 20
27.940663
 30
0.0
 10
15.331502
 20
27.940663
 30
0.0
  0
LWPOLYLINE
  5
102
100
AcDbEntity
  8
0
 62
7
100
AcDbPolyline
 90
11
 70
1
 10
19.776502
 20
27.940663
 30
0.0
 10
18.887943
 20
27.051553
 30
0.0
 10
18.887943
 20
25.781553
 30
0.0
 10
19.314583
 20
25.360976
 30
0.0
 10
19.883989
 20
25.928176
 30
0.0
 10
19.395612
 20
26.416553
 30
0.0
 10
20.411502
 20
27.432443
 30
0.0
 10
20.899879
 20
26.944066
 30
0.0
 10
21.464323
 20
27.529457
 30
0.0
 10
21.046502
 20
27.940663
 30
0.0
 10
19.776502
 20
27.940663
 30
0.0
  0
LWPOLYLINE
  5
103
100
AcDbEntity
  8
0
 62
7
100
AcDbPolyline
 90
82
 70
1
 10
21.489128
 20
27.498037
 30
0.0
 10
20.917518
 20
26.926427
 30
0.0
 10
21.427943
 20
26.416553
 30
0.0
 10
20.411502
 20
25.400663
 30
0.0
 10
19.901628
 20
25.910537
 30
0.0
 10
19.330018
 20
25.338927
 30
0.0
 10
19.517982
 20
25.151514
 30
0.0
 10
16.602053
 20
22.234483
 30
0.0
 10
16.602053
 20
24.892994
 30
0.0
 10
17.490612
 20
25.781553
 30
0.0
 10
17.490612
 20
27.044939
 30
0.0
 10
17.490612
 20
27.051554
 30
0.0
 10
17.329106
 20
27.217470
 30
0.0
 10
16.761905
 20
26.642001
 30
0.0
 10
16.982943
 20
26.416554
 30
0.0
 10
15.966502
 20
25.400664
 30
0.0
 10
15.741606
 20
25.616741
 30
0.0
 10
15.174405
 20
25.054501
 30
0.0
 10
15.331502
 20
24.892443
 30
0.0
 10
15.331502
 20
22.239996
 30
0.0
 10
12.435968
 20
25.150412
 30
0.0
 10
13.067109
 20
25.781554
 30
0.0
 10
13.067109
 20
27.051554
 30
0.0
 10
12.722049
 20
27.400473
 30
0.0
 10
12.155399
 20
26.825004
 30
0.0
 10
12.558889
 20
26.416554
 30
0.0
 10
11.542999
 20
25.400664
 30
0.0
 10
11.138958
 20
25.795334
 30
0.0
 10
10.572309
 20
25.224275
 30
0.0
 10
10.907999
 20
24.892443
 30
0.0
 10
10.961467
 20
24.892443
 30
0.0
 10
11.092656
 20
24.698967
 30
0.0
 10
14.439084
 20
21.336554
 30
0.0
 10
11.170929
 20
21.336554
 30
0.0
 10
9.892109
 20
22.615373
 30
0.0
 10
9.892109
 20
23.876554
 30
0.0
 10
9.620912
 20
24.148303
 30
0.0
 10
9.048750
 20
23.576142
 30
0.0
 10
9.383889
 20
23.241554
 30
0.0
 10
8.367999
 20
22.225664
 30
0.0
 10
8.033412
 20
22.560803
 30
0.0
 10
7.461250
 20
21.988642
 30
0.0
 10
7.732999
 20
21.717443
 30
0.0
 10
8.994731
 20
21.717443
 30
0.0
 10
10.378833
 20
20.332791
 30
0.0
 10
10.693025
 20
20.100729
 30
0.0
 10
10.895872
 20
20.060491
 30
0.0
 10
10.999501
 20
20.066553
 30
0.0
 10
14.442943
 20
20.066553
 30
0.0
 10
14.999670
 20
19.509274
 30
0.0
 10
15.571280
 20
20.080884
 30
0.0
 10
14.950612
 20
20.701553
 30
0.0
 10
15.966502
 20
21.717442
 30
0.0
 10
16.982943
 20
20.701553
 30
0.0
 10
16.603707
 20
20.322868
 30
0.0
 10
17.175317
 20
19.751258
 30
0.0
 10
17.490612
 20
20.066553
 30
0.0
 10
20.957756
 20
20.066553
 30
0.0
 10
21.039887
 20
20.060491
 30
0.0
 10
21.224544
 20
20.088052
 30
0.0
 10
21.227310
 20
20.088617
 30
0.0
 10
21.235579
 20
20.091383
 30
0.0
 10
21.580640
 20
20.338327
 30
0.0
 10
22.960332
 20
21.717467
 30
0.0
 10
24.221512
 20
21.717467
 30
0.0
 10
24.455228
 20
21.951183
 30
0.0
 10
23.883617
 20
22.522793
 30
0.0
 10
23.586512
 20
22.225688
 30
0.0
 10
22.570622
 20
23.241578
 30
0.0
 10
22.867728
 20
23.538683
 30
0.0
 10
22.296117
 20
24.110293
 30
0.0
 10
22.062953
 20
23.876578
 30
0.0
 10
22.062953
 20
22.615948
 30
0.0
 10
20.784134
 20
21.336578
 30
0.0
 10
17.499442
 20
21.336578
 30
0.0
 10
20.860753
 20
24.697337
 30
0.0
 10
20.993596
 20
24.892467
 30
0.0
 10
21.046512
 20
24.892467
 30
0.0
 10
21.935622
 20
25.781578
 30
0.0
 10
21.935622
 20
27.051578
 30
0.0
 10
21.489138
 20
27.498062
 30
0.0
 10
21.489128
 20
27.498037
 30
0.0
  0
LWPOLYLINE
  5
104
100
AcDbEntity
  8
0
 62
7
100
AcDbPolyline
 90
11
 70
1
 10
7.732999
 20
24.765663
 30
0.0
 10
6.843889
 20
23.876553
 30
0.0
 10
6.843889
 20
22.606553
 30
0.0
 10
7.417704
 20
22.032187
 30
0.0
 10
7.983251
 20
22.604348
 30
0.0
 10
7.352109
 20
23.241553
 30
0.0
 10
8.367999
 20
24.257443
 30
0.0
 10
9.017331
 20
23.613623
 30
0.0
 10
9.602170
 20
24.179721
 30
0.0
 10
9.002999
 20
24.765663
 30
0.0
 10
7.732999
 20
24.765663
 30
0.0
  0
LWPOLYLINE
  5
105
100
AcDbEntity
  8
0
 62
7
100
AcDbPolyline
 90
11
 70
1
 10
22.951502
 20
24.765663
 30
0.0
 10
22.320912
 20
24.129009
 30
0.0
 10
22.889766
 20
23.555746
 30
0.0
 10
23.586502
 20
24.257443
 30
0.0
 10
24.602943
 20
23.241553
 30
0.0
 10
23.901246
 20
22.538202
 30
0.0
 10
24.472856
 20
21.966592
 30
0.0
 10
25.110612
 20
22.606553
 30
0.0
 10
25.110612
 20
23.876553
 30
0.0
 10
24.221502
 20
24.765663
 30
0.0
 10
22.951502
 20
24.765663
 30
0.0
  0
LWPOLYLINE
  5
106
100
AcDbEntity
  8
0
 62
7
100
AcDbPolyline
 90
11
 70
1
 10
4.557999
 20
21.590663
 30
0.0
 10
3.668889
 20
20.701553
 30
0.0
 10
3.668889
 20
19.431553
 30
0.0
 10
4.323732
 20
18.782221
 30
0.0
 10
4.895894
 20
19.348319
 30
0.0
 10
4.177109
 20
20.066553
 30
0.0
 10
5.192999
 20
21.082443
 30
0.0
 10
5.911232
 20
20.363658
 30
0.0
 10
6.477331
 20
20.941883
 30
0.0
 10
5.827999
 20
21.590663
 30
0.0
 10
4.557999
 20
21.590663
 30
0.0
  0
LWPOLYLINE
  5
107
100
AcDbEntity
  8
0
 62
7
100
AcDbPolyline
 90
11
 70
1
 10
26.126502
 20
21.590663
 30
0.0
 10
25.589618
 20
21.053228
 30
0.0
 10
26.155165
 20
20.476106
 30
0.0
 10
26.761502
 20
21.082443
 30
0.0
 10
27.777943
 20
20.066553
 30
0.0
 10
27.171055
 20
19.462972
 30
0.0
 10
27.742665
 20
18.894669
 30
0.0
 10
28.285612
 20
19.431553
 30
0.0
 10
28.285612
 20
20.701553
 30
0.0
 10
27.396502
 20
21.590663
 30
0.0
 10
26.126502
 20
21.590663
 30
0.0
  0
LWPOLYLINE
  5
108
100
AcDbEntity
  8
0
 62
7
100
AcDbPolyline
 90
42
 70
1
 10
25.564813
 20
21.028424
 30
0.0
 10
25.237943
 20
20.701553
 30
0.0
 10
25.237943
 20
19.440924
 30
0.0
 10
22.053572
 20
16.256553
 30
0.0
 10
17.490612
 20
16.256553
 30
0.0
 10
17.210043
 20
16.537122
 30
0.0
 10
16.647253
 20
15.952282
 30
0.0
 10
16.982943
 20
15.621553
 30
0.0
 10
16.648906
 20
15.288068
 30
0.0
 10
17.220516
 20
14.716458
 30
0.0
 10
17.490612
 20
14.986553
 30
0.0
 10
22.055226
 20
14.986553
 30
0.0
 10
25.237943
 20
11.818719
 30
0.0
 10
25.237943
 20
10.563050
 30
0.0
 10
25.756636
 20
10.044357
 30
0.0
 10
26.327695
 20
10.615416
 30
0.0
 10
25.745612
 20
11.198050
 30
0.0
 10
26.761502
 20
12.213940
 30
0.0
 10
27.344136
 20
11.631857
 30
0.0
 10
27.915195
 20
12.202916
 30
0.0
 10
27.396502
 20
12.721609
 30
0.0
 10
26.130912
 20
12.721609
 30
0.0
 10
23.854944
 20
14.986553
 30
0.0
 10
25.237943
 20
14.986553
 30
0.0
 10
26.126502
 20
14.097443
 30
0.0
 10
27.396502
 20
14.097443
 30
0.0
 10
27.837474
 20
14.538415
 30
0.0
 10
27.266415
 20
15.110025
 30
0.0
 10
26.761502
 20
14.605663
 30
0.0
 10
25.745612
 20
15.621553
 30
0.0
 10
26.249974
 20
16.125915
 30
0.0
 10
25.678915
 20
16.697525
 30
0.0
 10
25.237943
 20
16.256553
 30
0.0
 10
23.849431
 20
16.256553
 30
0.0
 10
26.135321
 20
18.542443
 30
0.0
 10
27.396502
 20
18.542443
 30
0.0
 10
27.723924
 20
18.869865
 30
0.0
 10
27.152313
 20
19.440924
 30
0.0
 10
26.761502
 20
19.050663
 30
0.0
 10
25.745612
 20
20.066553
 30
0.0
 10
26.136424
 20
20.457365
 30
0.0
 10
25.564813
 20
21.028424
 30
0.0
  0
LWPOLYLINE
  5
109
100
AcDbEntity
  8
0
 62
7
100
AcDbPolyline
 90
11
 70
1
 10
26.126502
 20
17.145663
 30
0.0
 10
25.694349
 20
16.712959
 30
0.0
 10
26.267062
 20
16.143003
 30
0.0
 10
26.761502
 20
16.637443
 30
0.0
 10
27.777943
 20
15.621553
 30
0.0
 10
27.285156
 20
15.127113
 30
0.0
 10
27.857869
 20
14.553849
 30
0.0
 10
28.285612
 20
14.986553
 30
0.0
 10
28.285612
 20
16.256553
 30
0.0
 10
27.396502
 20
17.145663
 30
0.0
 10
26.126502
 20
17.145663
 30
0.0
  0
LWPOLYLINE
  5
10a
100
AcDbEntity
  8
0
 62
7
100
AcDbPolyline
 90
11
 70
1
 10
27.932283
 20
12.187482
 30
0.0
 10
27.359570
 20
11.613115
 30
0.0
 10
27.777943
 20
11.198050
 30
0.0
 10
26.761502
 20
10.181609
 30
0.0
 10
26.346437
 20
10.601636
 30
0.0
 10
25.773724
 20
10.025615
 30
0.0
 10
26.126502
 20
9.673940
 30
0.0
 10
27.396502
 20
9.673940
 30
0.0
 10
28.285612
 20
10.563050
 30
0.0
 10
28.285612
 20
11.833050
 30
0.0
 10
27.932283
 20
12.187482
 30
0.0
  0
LWPOLYLINE
  5
10b
100
AcDbEntity
  8
0
 62
7
100
AcDbPolyline
 90
15
 70
1
 10
17.205083
 20
14.696614
 30
0.0
 10
16.631268
 20
15.268224
 30
0.0
 10
15.966502
 20
14.605663
 30
0.0
 10
15.258190
 20
15.313975
 30
0.0
 10
14.687131
 20
14.742365
 30
0.0
 10
15.331502
 20
14.097443
 30
0.0
 10
15.331502
 20
12.086609
 30
0.0
 10
14.784696
 20
11.539804
 30
0.0
 10
15.355755
 20
10.968194
 30
0.0
 10
15.966502
 20
11.578940
 30
0.0
 10
16.614180
 20
10.931814
 30
0.0
 10
17.185239
 20
11.502872
 30
0.0
 10
16.601502
 20
12.086609
 30
0.0
 10
16.601502
 20
14.097443
 30
0.0
 10
17.205083
 20
14.696614
 30
0.0
  0
LWPOLYLINE
  5
10c
100
AcDbEntity
  8
0
 62
7
100
AcDbPolyline
 90
80
 70
1
 10
17.210185
 20
11.477927
 30
0.0
 10
16.639126
 20
10.903750
 30
0.0
 10
16.982944
 20
10.563050
 30
0.0
 10
15.966503
 20
9.546609
 30
0.0
 10
14.950613
 20
10.563050
 30
0.0
 10
15.330811
 20
10.946367
 30
0.0
 10
14.762871
 20
11.521095
 30
0.0
 10
14.442944
 20
11.198050
 30
0.0
 10
10.999502
 20
11.198050
 30
0.0
 10
10.895323
 20
11.204113
 30
0.0
 10
10.666568
 20
11.153401
 30
0.0
 10
10.655545
 20
11.148990
 30
0.0
 10
10.643418
 20
11.143478
 30
0.0
 10
10.393717
 20
10.946694
 30
0.0
 10
8.993630
 20
9.546607
 30
0.0
 10
7.733001
 20
9.546607
 30
0.0
 10
7.520783
 20
9.333838
 30
0.0
 10
8.091842
 20
8.762779
 30
0.0
 10
8.368001
 20
9.038938
 30
0.0
 10
9.383891
 20
8.023048
 30
0.0
 10
9.107732
 20
7.746889
 30
0.0
 10
9.679342
 20
7.175279
 30
0.0
 10
9.892111
 20
7.388048
 30
0.0
 10
9.892111
 20
8.649229
 30
0.0
 10
11.170930
 20
9.928048
 30
0.0
 10
14.439086
 20
9.928048
 30
0.0
 10
11.092658
 20
6.565635
 30
0.0
 10
10.955956
 20
6.371607
 30
0.0
 10
10.908001
 20
6.371607
 30
0.0
 10
10.018891
 20
5.483048
 30
0.0
 10
10.018891
 20
4.213048
 30
0.0
 10
10.494038
 20
3.737900
 30
0.0
 10
11.065648
 20
4.308960
 30
0.0
 10
10.527111
 20
4.848048
 30
0.0
 10
11.543001
 20
5.863938
 30
0.0
 10
12.081538
 20
5.325400
 30
0.0
 10
12.653700
 20
5.896460
 30
0.0
 10
12.435418
 20
6.114741
 30
0.0
 10
15.331503
 20
9.024606
 30
0.0
 10
15.331503
 20
6.371607
 30
0.0
 10
14.442944
 20
5.483048
 30
0.0
 10
14.442944
 20
4.213048
 30
0.0
 10
14.583504
 20
4.072488
 30
0.0
 10
15.154563
 20
4.643547
 30
0.0
 10
14.950614
 20
4.848048
 30
0.0
 10
15.966503
 20
5.863938
 30
0.0
 10
16.171004
 20
5.659988
 30
0.0
 10
16.742063
 20
6.231047
 30
0.0
 10
16.601504
 20
6.371607
 30
0.0
 10
16.601504
 20
9.030118
 30
0.0
 10
19.518535
 20
6.113638
 30
0.0
 10
18.887944
 20
5.483048
 30
0.0
 10
18.887944
 20
4.213048
 30
0.0
 10
19.437506
 20
3.662936
 30
0.0
 10
20.009116
 20
4.234546
 30
0.0
 10
19.395614
 20
4.848048
 30
0.0
 10
20.411503
 20
5.863938
 30
0.0
 10
21.025006
 20
5.250435
 30
0.0
 10
21.596616
 20
5.822046
 30
0.0
 10
21.046504
 20
6.371607
 30
0.0
 10
20.998548
 20
6.371607
 30
0.0
 10
20.860744
 20
6.566737
 30
0.0
 10
17.499433
 20
9.928048
 30
0.0
 10
20.783574
 20
9.928048
 30
0.0
 10
22.062944
 20
8.648678
 30
0.0
 10
22.062944
 20
7.388048
 30
0.0
 10
22.500058
 20
6.950383
 30
0.0
 10
23.071668
 20
7.521993
 30
0.0
 10
22.570614
 20
8.023048
 30
0.0
 10
23.586503
 20
9.038938
 30
0.0
 10
24.087558
 20
8.537883
 30
0.0
 10
24.659168
 20
9.109493
 30
0.0
 10
24.221503
 20
9.546607
 30
0.0
 10
22.960874
 20
9.546607
 30
0.0
 10
21.559685
 20
10.947796
 30
0.0
 10
21.266990
 20
11.161668
 30
0.0
 10
21.039889
 20
11.204111
 30
0.0
 10
20.957758
 20
11.198049
 30
0.0
 10
17.490614
 20
11.198049
 30
0.0
 10
17.210185
 20
11.477927
 30
0.0
  0
LWPOLYLINE
  5
10d
100
AcDbEntity
  8
0
 62
7
100
AcDbPolyline
 90
11
 70
1
 10
24.685626
 20
9.078628
 30
0.0
 10
24.114016
 20
8.511427
 30
0.0
 10
24.602944
 20
8.023050
 30
0.0
 10
23.586503
 20
7.006609
 30
0.0
 10
23.098126
 20
7.491128
 30
0.0
 10
22.530926
 20
6.923927
 30
0.0
 10
22.951503
 20
6.498940
 30
0.0
 10
24.221503
 20
6.498940
 30
0.0
 10
25.110613
 20
7.388050
 30
0.0
 10
25.110613
 20
8.658050
 30
0.0
 10
24.685626
 20
9.078628
 30
0.0
  0
LWPOLYLINE
  5
10e
100
AcDbEntity
  8
0
 62
7
100
AcDbPolyline
 90
11
 70
1
 10
16.759702
 20
6.215615
 30
0.0
 10
16.190848
 20
5.635737
 30
0.0
 10
16.982944
 20
4.848050
 30
0.0
 10
15.966503
 20
3.831609
 30
0.0
 10
15.172202
 20
4.625911
 30
0.0
 10
14.598938
 20
4.054852
 30
0.0
 10
15.331503
 20
3.323939
 30
0.0
 10
16.601503
 20
3.323939
 30
0.0
 10
17.490613
 20
4.213050
 30
0.0
 10
17.490613
 20
5.483050
 30
0.0
 10
16.759702
 20
6.215615
 30
0.0
  0
LWPOLYLINE
  5
10f
100
AcDbEntity
  8
0
 62
7
100
AcDbPolyline
 90
11
 70
1
 10
12.671338
 20
5.870004
 30
0.0
 10
12.112406
 20
5.303354
 30
0.0
 10
12.558890
 20
4.848050
 30
0.0
 10
11.543001
 20
3.831609
 30
0.0
 10
11.100926
 20
4.273684
 30
0.0
 10
10.520496
 20
3.711444
 30
0.0
 10
10.908001
 20
3.323939
 30
0.0
 10
12.178001
 20
3.323939
 30
0.0
 10
13.067111
 20
4.213050
 30
0.0
 10
13.067111
 20
5.483050
 30
0.0
 10
12.671338
 20
5.870004
 30
0.0
  0
LWPOLYLINE
  5
110
100
AcDbEntity
  8
0
 62
7
100
AcDbPolyline
 90
11
 70
1
 10
21.623074
 20
5.795589
 30
0.0
 10
21.060284
 20
5.219569
 30
0.0
 10
21.427944
 20
4.848050
 30
0.0
 10
20.411503
 20
3.831609
 30
0.0
 10
20.039984
 20
4.203680
 30
0.0
 10
19.468374
 20
3.627661
 30
0.0
 10
19.776503
 20
3.323939
 30
0.0
 10
21.046503
 20
3.323939
 30
0.0
 10
21.935613
 20
4.213050
 30
0.0
 10
21.935613
 20
5.483050
 30
0.0
 10
21.623074
 20
5.795589
 30
0.0
  0
LWPOLYLINE
  5
111
100
AcDbEntity
  8
0
 62
7
100
AcDbPolyline
 90
42
 70
1
 10
14.667289
 20
14.757799
 30
0.0
 10
15.242758
 20
15.331614
 30
0.0
 10
14.950613
 20
15.621553
 30
0.0
 10
15.182675
 20
15.853615
 30
0.0
 10
14.615474
 20
16.420815
 30
0.0
 10
14.442944
 20
16.256553
 30
0.0
 10
9.900930
 20
16.256553
 30
0.0
 10
6.717111
 20
19.440372
 30
0.0
 10
6.717111
 20
20.701553
 30
0.0
 10
6.520878
 20
20.898337
 30
0.0
 10
5.948717
 20
20.326175
 30
0.0
 10
6.208889
 20
20.066553
 30
0.0
 10
5.192999
 20
19.050663
 30
0.0
 10
4.933377
 20
19.310837
 30
0.0
 10
4.361215
 20
18.738675
 30
0.0
 10
4.557999
 20
18.542443
 30
0.0
 10
5.819180
 20
18.542443
 30
0.0
 10
8.105069
 20
16.256553
 30
0.0
 10
6.717109
 20
16.256553
 30
0.0
 10
5.827999
 20
17.145663
 30
0.0
 10
4.557999
 20
17.145663
 30
0.0
 10
4.156163
 20
16.743827
 30
0.0
 10
4.727773
 20
16.172217
 30
0.0
 10
5.192999
 20
16.637443
 30
0.0
 10
6.208889
 20
15.621553
 30
0.0
 10
5.743663
 20
15.156327
 30
0.0
 10
6.315273
 20
14.584717
 30
0.0
 10
6.717109
 20
14.986553
 30
0.0
 10
8.099557
 20
14.986553
 30
0.0
 10
5.823590
 20
12.721609
 30
0.0
 10
4.557999
 20
12.721609
 30
0.0
 10
4.370035
 20
12.534196
 30
0.0
 10
4.941645
 20
11.962586
 30
0.0
 10
5.192999
 20
12.213940
 30
0.0
 10
6.208889
 20
11.198050
 30
0.0
 10
5.957535
 20
10.946696
 30
0.0
 10
6.529145
 20
10.375086
 30
0.0
 10
6.717109
 20
10.563050
 30
0.0
 10
6.717109
 20
11.819270
 30
0.0
 10
9.899275
 20
14.986553
 30
0.0
 10
14.442943
 20
14.986553
 30
0.0
 10
14.667289
 20
14.757799
 30
0.0
  0
LWPOLYLINE
  5
112
100
AcDbEntity
  8
0
 62
7
100
AcDbPolyline
 90
15
 70
1
 10
16.584967
 20
20.300819
 30
0.0
 10
15.966503
 20
19.685663
 30
0.0
 10
15.593330
 20
20.058836
 30
0.0
 10
15.021720
 20
19.481162
 30
0.0
 10
15.331503
 20
19.177443
 30
0.0
 10
15.331503
 20
17.145663
 30
0.0
 10
14.637523
 20
16.451683
 30
0.0
 10
15.209133
 20
15.880073
 30
0.0
 10
15.966503
 20
16.637443
 30
0.0
 10
16.616386
 20
15.987560
 30
0.0
 10
17.187996
 20
16.559170
 30
0.0
 10
16.602054
 20
17.145112
 30
0.0
 10
16.602054
 20
19.177994
 30
0.0
 10
17.156577
 20
19.729209
 30
0.0
 10
16.584967
 20
20.300819
 30
0.0
  0
LWPOLYLINE
  5
113
100
AcDbEntity
  8
0
 62
7
100
AcDbPolyline
 90
11
 70
1
 10
4.129705
 20
16.708550
 30
0.0
 10
3.668889
 20
16.256553
 30
0.0
 10
3.668889
 20
14.986553
 30
0.0
 10
4.557999
 20
14.097443
 30
0.0
 10
5.827999
 20
14.097443
 30
0.0
 10
6.284405
 20
14.558259
 30
0.0
 10
5.717205
 20
15.125459
 30
0.0
 10
5.192999
 20
14.605663
 30
0.0
 10
4.177109
 20
15.621553
 30
0.0
 10
4.701315
 20
16.141349
 30
0.0
 10
4.129705
 20
16.708550
 30
0.0
  0
LWPOLYLINE
  5
114
100
AcDbEntity
  8
0
 62
7
100
AcDbPolyline
 90
11
 70
1
 10
4.352396
 20
12.507738
 30
0.0
 10
3.668889
 20
11.833050
 30
0.0
 10
3.668889
 20
10.563050
 30
0.0
 10
4.557999
 20
9.673940
 30
0.0
 10
5.827999
 20
9.673940
 30
0.0
 10
6.507096
 20
10.348628
 30
0.0
 10
5.931076
 20
10.915828
 30
0.0
 10
5.192999
 20
10.181609
 30
0.0
 10
4.177109
 20
11.198050
 30
0.0
 10
4.919596
 20
11.936128
 30
0.0
 10
4.352396
 20
12.507738
 30
0.0
  0
LWPOLYLINE
  5
115
100
AcDbEntity
  8
0
 62
7
100
AcDbPolyline
 90
11
 70
1
 10
7.494323
 20
9.302972
 30
0.0
 10
6.843889
 20
8.658050
 30
0.0
 10
6.843889
 20
7.388050
 30
0.0
 10
7.732999
 20
6.498940
 30
0.0
 10
9.002999
 20
6.498940
 30
0.0
 10
9.652882
 20
7.148823
 30
0.0
 10
9.076862
 20
7.711614
 30
0.0
 10
8.367999
 20
7.006609
 30
0.0
 10
7.352109
 20
8.023050
 30
0.0
 10
8.065382
 20
8.736323
 30
0.0
 10
7.494323
 20
9.302972
 30
0.0
  0
LWPOLYLINE
  5
116
100
AcDbEntity
  8
0
 62
7
100
AcDbPolyline
 90
19
 70
1
 10
32.182153
 20
22.573480
 30
0.0
 10
33.401440
 20
22.573480
 30
0.0
 10
33.401440
 20
24.607464
 30
0.0
 10
33.469241
 20
24.777239
 30
0.0
 10
33.649488
 20
24.856062
 30
0.0
 10
38.842487
 20
24.856062
 30
0.0
 10
39.011710
 20
24.777239
 30
0.0
 10
39.091085
 20
24.607464
 30
0.0
 10
39.091085
 20
22.573480
 30
0.0
 10
40.310373
 20
22.573480
 30
0.0
 10
40.310373
 20
24.607464
 30
0.0
 10
40.234306
 20
25.081509
 30
0.0
 10
40.060674
 20
25.421609
 30
0.0
 10
39.880977
 20
25.634930
 30
0.0
 10
39.491268
 20
25.925971
 30
0.0
 10
39.228339
 20
26.026293
 30
0.0
 10
38.842487
 20
26.075351
 30
0.0
 10
32.182153
 20
26.075351
 30
0.0
 10
32.182153
 20
22.573480
 30
0.0
  0
LWPOLYLINE
  5
117
100
AcDbEntity
  8
0
 62
7
100
AcDbPolyline
 90
28
 70
1
 10
32.182153
 20
22.518369
 30
0.0
 10
32.182153
 20
17.958706
 30
0.0
 10
33.401440
 20
17.958706
 30
0.0
 10
33.401440
 20
20.882352
 30
0.0
 10
33.649488
 20
20.859751
 30
0.0
 10
36.427063
 20
20.859751
 30
0.0
 10
38.865088
 20
17.958705
 30
0.0
 10
40.310373
 20
17.958705
 30
0.0
 10
40.310373
 20
18.127928
 30
0.0
 10
38.018421
 20
20.859751
 30
0.0
 10
38.842487
 20
20.859751
 30
0.0
 10
39.368897
 20
20.951804
 30
0.0
 10
39.650018
 20
21.097876
 30
0.0
 10
39.880977
 20
21.288597
 30
0.0
 10
40.017677
 20
21.446795
 30
0.0
 10
40.137842
 20
21.632004
 30
0.0
 10
40.265725
 20
21.957772
 30
0.0
 10
40.310373
 20
22.327638
 30
0.0
 10
40.310373
 20
22.545919
 30
0.0
 10
39.091085
 20
22.543718
 30
0.0
 10
39.091085
 20
22.327641
 30
0.0
 10
39.011710
 20
22.146843
 30
0.0
 10
38.842487
 20
22.079043
 30
0.0
 10
33.649488
 20
22.079043
 30
0.0
 10
33.469241
 20
22.146843
 30
0.0
 10
33.401440
 20
22.327641
 30
0.0
 10
33.401440
 20
22.518372
 30
0.0
 10
32.182153
 20
22.518369
 30
0.0
  0
LWPOLYLINE
  5
118
100
AcDbEntity
  8
0
 62
7
100
AcDbPolyline
 90
25
 70
1
 10
41.441466
 20
20.986531
 30
0.0
 10
42.660756
 20
20.986531
 30
0.0
 10
42.660756
 20
23.038706
 30
0.0
 10
42.728555
 20
23.207929
 30
0.0
 10
42.909355
 20
23.286753
 30
0.0
 10
46.634465
 20
23.286753
 30
0.0
 10
46.803688
 20
23.207929
 30
0.0
 10
46.882513
 20
23.038706
 30
0.0
 10
46.882513
 20
20.986531
 30
0.0
 10
48.101800
 20
20.986531
 30
0.0
 10
48.101800
 20
23.038706
 30
0.0
 10
48.023529
 20
23.527634
 30
0.0
 10
47.866983
 20
23.841826
 30
0.0
 10
47.672955
 20
24.077195
 30
0.0
 10
47.401206
 20
24.294925
 30
0.0
 10
47.047878
 20
24.450919
 30
0.0
 10
46.634465
 20
24.506041
 30
0.0
 10
42.909355
 20
24.506041
 30
0.0
 10
42.428693
 20
24.430524
 30
0.0
 10
42.112297
 20
24.275633
 30
0.0
 10
41.870314
 20
24.077195
 30
0.0
 10
41.658094
 20
23.813714
 30
0.0
 10
41.502652
 20
23.473064
 30
0.0
 10
41.441466
 20
23.038706
 30
0.0
 10
41.441466
 20
20.986531
 30
0.0
  0
LWPOLYLINE
  5
119
100
AcDbEntity
  8
0
 62
7
100
AcDbPolyline
 90
25
 70
1
 10
41.439773
 20
20.955350
 30
0.0
 10
41.441466
 20
19.426041
 30
0.0
 10
41.505959
 20
18.981210
 30
0.0
 10
41.647070
 20
18.668671
 30
0.0
 10
41.870314
 20
18.387551
 30
0.0
 10
42.145368
 20
18.168168
 30
0.0
 10
42.476649
 20
18.019339
 30
0.0
 10
42.909355
 20
17.958706
 30
0.0
 10
46.634465
 20
17.958706
 30
0.0
 10
47.112369
 20
18.033671
 30
0.0
 10
47.454123
 20
18.204548
 30
0.0
 10
47.672955
 20
18.387551
 30
0.0
 10
47.885725
 20
18.652134
 30
0.0
 10
48.048884
 20
19.020346
 30
0.0
 10
48.101800
 20
19.426041
 30
0.0
 10
48.101800
 20
20.960027
 30
0.0
 10
46.884071
 20
20.961579
 30
0.0
 10
46.882377
 20
19.426034
 30
0.0
 10
46.803553
 20
19.245235
 30
0.0
 10
46.634329
 20
19.177987
 30
0.0
 10
42.909219
 20
19.177987
 30
0.0
 10
42.728419
 20
19.245235
 30
0.0
 10
42.660621
 20
19.426034
 30
0.0
 10
42.662314
 20
20.950666
 30
0.0
 10
41.439773
 20
20.955350
 30
0.0
  0
LWPOLYLINE
  5
11a
100
AcDbEntity
  8
0
 62
7
100
AcDbPolyline
 90
8
 70
1
 10
55.555467
 20
24.506133
 30
0.0
 10
56.955289
 20
24.506133
 30
0.0
 10
53.342845
 20
17.958578
 30
0.0
 10
52.123645
 20
17.958578
 30
0.0
 10
48.511200
 20
24.506133
 30
0.0
 10
49.922311
 20
24.506133
 30
0.0
 10
52.733245
 20
19.335822
 30
0.0
 10
55.555467
 20
24.506133
 30
0.0
  0
LWPOLYLINE
  5
11b
100
AcDbEntity
  8
0
 62
7
100
AcDbPolyline
 90
25
 70
1
 10
57.051883
 20
22.573480
 30
0.0
 10
58.271173
 20
22.573480
 30
0.0
 10
58.271173
 20
23.038706
 30
0.0
 10
58.338971
 20
23.207929
 30
0.0
 10
58.519771
 20
23.286753
 30
0.0
 10
62.244882
 20
23.286753
 30
0.0
 10
62.414105
 20
23.207929
 30
0.0
 10
62.492930
 20
23.038706
 30
0.0
 10
62.492930
 20
22.573480
 30
0.0
 10
63.712217
 20
22.573480
 30
0.0
 10
63.712217
 20
23.038706
 30
0.0
 10
63.627330
 20
23.546375
 30
0.0
 10
63.473542
 20
23.847890
 30
0.0
 10
63.283372
 20
24.077195
 30
0.0
 10
63.030916
 20
24.282247
 30
0.0
 10
62.734362
 20
24.427217
 30
0.0
 10
62.244882
 20
24.506041
 30
0.0
 10
58.519771
 20
24.506041
 30
0.0
 10
58.082104
 20
24.444305
 30
0.0
 10
57.733737
 20
24.282799
 30
0.0
 10
57.480731
 20
24.077195
 30
0.0
 10
57.256384
 20
23.794422
 30
0.0
 10
57.103145
 20
23.438337
 30
0.0
 10
57.051883
 20
23.038706
 30
0.0
 10
57.051883
 20
22.573480
 30
0.0
  0
LWPOLYLINE
  5
11c
100
AcDbEntity
  8
0
 62
7
100
AcDbPolyline
 90
21
 70
1
 10
57.050754
 20
22.548125
 30
0.0
 10
57.051883
 20
19.426042
 30
0.0
 10
57.110864
 20
18.999401
 30
0.0
 10
57.261345
 20
18.662609
 30
0.0
 10
57.480731
 20
18.387552
 30
0.0
 10
57.783897
 20
18.151081
 30
0.0
 10
58.123447
 20
18.008868
 30
0.0
 10
58.519771
 20
17.958707
 30
0.0
 10
63.712217
 20
17.958707
 30
0.0
 10
63.712217
 20
19.177995
 30
0.0
 10
58.519771
 20
19.177995
 30
0.0
 10
58.338971
 20
19.245243
 30
0.0
 10
58.271173
 20
19.426042
 30
0.0
 10
58.271173
 20
20.622730
 30
0.0
 10
63.712217
 20
20.622730
 30
0.0
 10
63.712217
 20
22.539306
 30
0.0
 10
62.491826
 20
22.541507
 30
0.0
 10
62.492955
 20
21.842015
 30
0.0
 10
58.271198
 20
21.842015
 30
0.0
 10
58.271198
 20
22.545917
 30
0.0
 10
57.050754
 20
22.548125
 30
0.0
  0
LWPOLYLINE
  5
11d
100
AcDbEntity
  8
0
 62
7
100
AcDbPolyline
 90
16
 70
1
 10
66.115517
 20
24.506133
 30
0.0
 10
69.773117
 20
24.506133
 30
0.0
 10
69.773117
 20
23.286933
 30
0.0
 10
66.115517
 20
23.286933
 30
0.0
 10
65.934895
 20
23.207911
 30
0.0
 10
65.867161
 20
23.038578
 30
0.0
 10
65.867161
 20
17.958578
 30
0.0
 10
64.647961
 20
17.958578
 30
0.0
 10
64.647961
 20
19.426133
 30
0.0
 10
64.647961
 20
23.038578
 30
0.0
 10
64.712839
 20
23.485396
 30
0.0
 10
64.850270
 20
23.790662
 30
0.0
 10
65.076939
 20
24.077155
 30
0.0
 10
65.378491
 20
24.312834
 30
0.0
 10
65.719542
 20
24.455922
 30
0.0
 10
66.115517
 20
24.506133
 30
0.0
  0
LWPOLYLINE
  5
11e
100
AcDbEntity
  8
0
 62
7
100
AcDbPolyline
 90
17
 70
1
 10
47.193048
 20
15.913736
 30
0.0
 10
48.491270
 20
15.913736
 30
0.0
 10
45.533581
 20
7.785736
 30
0.0
 10
44.540159
 20
7.785736
 30
0.0
 10
42.225936
 20
14.118803
 30
0.0
 10
39.923003
 20
7.785736
 30
0.0
 10
39.900425
 20
7.797025
 30
0.0
 10
39.911714
 20
7.785736
 30
0.0
 10
38.929581
 20
7.785736
 30
0.0
 10
35.971892
 20
15.913736
 30
0.0
 10
37.270114
 20
15.913736
 30
0.0
 10
39.426292
 20
9.987069
 30
0.0
 10
41.582470
 20
15.913736
 30
0.0
 10
42.880692
 20
15.913736
 30
0.0
 10
45.036870
 20
9.987069
 30
0.0
 10
47.193048
 20
15.913736
 30
0.0
 10
47.193048
 20
15.913736
 30
0.0
  0
LWPOLYLINE
  5
11f
100
AcDbEntity
  8
0
 62
7
100
AcDbPolyline
 90
6
 70
1
 10
49.415020
 20
7.785736
 30
0.0
 10
49.415020
 20
14.333292
 30
0.0
 10
50.634220
 20
14.333292
 30
0.0
 10
50.634220
 20
7.785736
 30
0.0
 10
49.415020
 20
7.785736
 30
0.0
 10
49.415020
 20
7.785736
 30
0.0
  0
LWPOLYLINE
  5
120
100
AcDbEntity
  8
0
 62
7
100
AcDbPolyline
 90
6
 70
1
 10
49.415020
 20
16.478180
 30
0.0
 10
50.634220
 20
16.478180
 30
0.0
 10
50.634220
 20
15.258980
 30
0.0
 10
49.415020
 20
15.258980
 30
0.0
 10
49.415020
 20
16.478180
 30
0.0
 10
49.415020
 20
16.478180
 30
0.0
  0
LWPOLYLINE
  5
121
100
AcDbEntity
  8
0
 62
7
100
AcDbPolyline
 90
19
 70
1
 10
56.813298
 20
14.333292
 30
0.0
 10
57.264077
 20
14.267183
 30
0.0
 10
57.569295
 20
14.128600
 30
0.0
 10
57.851875
 20
13.904314
 30
0.0
 10
58.030652
 20
13.691500
 30
0.0
 10
58.200490
 20
13.359595
 30
0.0
 10
58.280853
 20
12.865736
 30
0.0
 10
58.280853
 20
7.785736
 30
0.0
 10
57.061653
 20
7.785736
 30
0.0
 10
57.061653
 20
12.865736
 30
0.0
 10
56.982631
 20
13.035069
 30
0.0
 10
56.813298
 20
13.114092
 30
0.0
 10
53.087964
 20
13.114092
 30
0.0
 10
52.907342
 20
13.035069
 30
0.0
 10
52.839609
 20
12.865736
 30
0.0
 10
52.839609
 20
7.785736
 30
0.0
 10
51.620409
 20
7.785736
 30
0.0
 10
51.620409
 20
14.333292
 30
0.0
 10
56.813298
 20
14.333292
 30
0.0
  0
LWPOLYLINE
  5
122
100
AcDbEntity
  8
0
 62
7
100
AcDbPolyline
 90
25
 70
1
 10
59.322891
 20
11.022213
 30
0.0
 10
60.542178
 20
11.022213
 30
0.0
 10
60.542178
 20
12.865477
 30
0.0
 10
60.609980
 20
13.035251
 30
0.0
 10
60.790777
 20
13.114075
 30
0.0
 10
64.515890
 20
13.114075
 30
0.0
 10
64.685113
 20
13.035251
 30
0.0
 10
64.763938
 20
12.865477
 30
0.0
 10
64.763938
 20
11.022213
 30
0.0
 10
65.983225
 20
11.022213
 30
0.0
 10
65.983225
 20
12.865477
 30
0.0
 10
65.942436
 20
13.225971
 30
0.0
 10
65.778724
 20
13.622295
 30
0.0
 10
65.554380
 20
13.904517
 30
0.0
 10
65.287040
 20
14.118940
 30
0.0
 10
64.957412
 20
14.269973
 30
0.0
 10
64.515890
 20
14.333363
 30
0.0
 10
60.790777
 20
14.333363
 30
0.0
 10
60.331062
 20
14.264461
 30
0.0
 10
60.032855
 20
14.127208
 30
0.0
 10
59.751736
 20
13.904517
 30
0.0
 10
59.592436
 20
13.718758
 30
0.0
 10
59.412739
 20
13.385273
 30
0.0
 10
59.322891
 20
12.865477
 30
0.0
 10
59.322891
 20
11.022213
 30
0.0
  0
LWPOLYLINE
  5
123
100
AcDbEntity
  8
0
 62
7
100
AcDbPolyline
 90
33
 70
1
 10
59.322891
 20
10.980320
 30
0.0
 10
59.322891
 20
9.253363
 30
0.0
 10
59.400612
 20
8.767742
 30
0.0
 10
59.552747
 20
8.457959
 30
0.0
 10
59.751736
 20
8.214873
 30
0.0
 10
59.953480
 20
8.043445
 30
0.0
 10
60.298542
 20
7.865403
 30
0.0
 10
60.790777
 20
7.785477
 30
0.0
 10
64.763938
 20
7.785477
 30
0.0
 10
64.763938
 20
6.656588
 30
0.0
 10
64.685113
 20
6.487365
 30
0.0
 10
64.515890
 20
6.408541
 30
0.0
 10
60.474380
 20
6.408541
 30
0.0
 10
60.474380
 20
5.189253
 30
0.0
 10
64.515890
 20
5.189253
 30
0.0
 10
65.032930
 20
5.277998
 30
0.0
 10
65.380195
 20
5.467065
 30
0.0
 10
65.554380
 20
5.618098
 30
0.0
 10
65.780928
 20
5.904179
 30
0.0
 10
65.926451
 20
6.236562
 30
0.0
 10
65.983225
 20
6.656588
 30
0.0
 10
65.983225
 20
10.269253
 30
0.0
 10
65.983225
 20
10.280829
 30
0.0
 10
65.983225
 20
10.984796
 30
0.0
 10
64.763938
 20
10.984796
 30
0.0
 10
64.763938
 20
9.253364
 30
0.0
 10
64.685113
 20
9.072565
 30
0.0
 10
64.515890
 20
9.004766
 30
0.0
 10
60.790777
 20
9.004766
 30
0.0
 10
60.609980
 20
9.072565
 30
0.0
 10
60.542178
 20
9.253364
 30
0.0
 10
60.542178
 20
10.982526
 30
0.0
 10
59.322891
 20
10.980320
 30
0.0
  0
ENDSEC
  0
SECTION
  2
OBJECTS
  0
DICTIONARY
  5
C
330
0
100
AcDbDictionary
  3
ACAD_GROUP
350
D
  3
ACAD_MLINESTYLE
350
17
  0
DICTIONARY
  5
D
330
C
100
AcDbDictionary
  0
DICTIONARY
  5
1A
330
C
100
AcDbDictionary
  0
DICTIONARY
  5
17
330
C
100
AcDbDictionary
  3
STANDARD
350
18
  0
DICTIONARY
  5
19
330
C
100
AcDbDictionary
  0
ENDSEC
  0
EOF
