<?xml version="1.0" encoding="UTF-8" standalone="no"?>
<svg
   xmlns:dc="http://purl.org/dc/elements/1.1/"
   xmlns:cc="http://creativecommons.org/ns#"
   xmlns:rdf="http://www.w3.org/1999/02/22-rdf-syntax-ns#"
   xmlns:svg="http://www.w3.org/2000/svg"
   xmlns="http://www.w3.org/2000/svg"
   xmlns:sodipodi="http://sodipodi.sourceforge.net/DTD/sodipodi-0.dtd"
   xmlns:inkscape="http://www.inkscape.org/namespaces/inkscape"
   viewBox="0 0 268.65211 113.225"
   height="90.580002pt"
   width="214.92169pt"
   xml:space="preserve"
   version="1.1"
   id="svg2"
   inkscape:version="0.91 r13725"
   sodipodi:docname="roverwinglogo.svg"
   inkscape:export-filename="C:\Users\Shurik\Downloads\roverwinglogo.png"
   inkscape:export-xdpi="400"
   inkscape:export-ydpi="400"><sodipodi:namedview
     pagecolor="#ffffff"
     bordercolor="#666666"
     borderopacity="1"
     objecttolerance="10"
     gridtolerance="10"
     guidetolerance="10"
     inkscape:pageopacity="0"
     inkscape:pageshadow="2"
     inkscape:window-width="1280"
     inkscape:window-height="697"
     id="namedview4255"
     showgrid="false"
     units="pt"
     fit-margin-left="10"
     fit-margin-right="10"
     fit-margin-bottom="10"
     fit-margin-top="10"
     inkscape:zoom="6.1205152"
     inkscape:cx="107.31902"
     inkscape:cy="69.351533"
     inkscape:window-x="-8"
     inkscape:window-y="-8"
     inkscape:window-maximized="1"
     inkscape:current-layer="svg2" /><metadata
     id="metadata8"><rdf:RDF><cc:Work
         rdf:about=""><dc:format>image/svg+xml</dc:format><dc:type
           rdf:resource="http://purl.org/dc/dcmitype/StillImage" /><dc:title /></cc:Work></rdf:RDF></metadata><defs
     id="defs6"><clipPath
       id="clipPath26"
       clipPathUnits="userSpaceOnUse"><path
         style="clip-rule:evenodd"
         id="path28"
         d="m 198,198 9804,0 0,12804 -9804,0 0,-12804 z"
         inkscape:connector-curvature="0" /></clipPath><clipPath
       id="clipPath36"
       clipPathUnits="userSpaceOnUse"><path
         style="clip-rule:evenodd"
         id="path38"
         d="m 198,198 9804,0 0,12804 -9804,0 0,-12804 z"
         inkscape:connector-curvature="0" /></clipPath><clipPath
       id="clipPath42"
       clipPathUnits="userSpaceOnUse"><path
         style="clip-rule:evenodd"
         id="path44"
         d="m 3048,6013 4103,0 0,1174 -4103,0 0,-1174 z"
         inkscape:connector-curvature="0" /></clipPath></defs><g
     id="g4951"
     transform="matrix(1.25,0,0,-1.25,-216.125,552.8725)"><path
       inkscape:connector-curvature="0"
       d="m 218.16,381.66 -12.54,-12.6"
       style="fill:none;stroke:#000000;stroke-width:3.5999999;stroke-linecap:round;stroke-linejoin:round;stroke-miterlimit:10;stroke-dasharray:none;stroke-opacity:1"
       id="path132" /><path
       inkscape:connector-curvature="0"
       d="m 205.62,369.06 0,-3.6"
       style="fill:none;stroke:#000000;stroke-width:3.5999999;stroke-linecap:round;stroke-linejoin:round;stroke-miterlimit:10;stroke-dasharray:none;stroke-opacity:1"
       id="path134" /><path
       inkscape:connector-curvature="0"
       d="m 218.16,381.66 12.6,-12.6"
       style="fill:none;stroke:#000000;stroke-width:3.5999999;stroke-linecap:round;stroke-linejoin:round;stroke-miterlimit:10;stroke-dasharray:none;stroke-opacity:1"
       id="path136" /><path
       inkscape:connector-curvature="0"
       d="m 230.76,369.06 0,-3.6"
       style="fill:none;stroke:#000000;stroke-width:3.5999999;stroke-linecap:round;stroke-linejoin:round;stroke-miterlimit:10;stroke-dasharray:none;stroke-opacity:1"
       id="path138" /><path
       inkscape:connector-curvature="0"
       d="m 218.16,365.46 0,16.2"
       style="fill:none;stroke:#000000;stroke-width:3.5999999;stroke-linecap:round;stroke-linejoin:round;stroke-miterlimit:10;stroke-dasharray:none;stroke-opacity:1"
       id="path140" /><path
       inkscape:connector-curvature="0"
       d="m 196.62,374.46 7.2,7.2"
       style="fill:none;stroke:#000000;stroke-width:3.5999999;stroke-linecap:round;stroke-linejoin:round;stroke-miterlimit:10;stroke-dasharray:none;stroke-opacity:1"
       id="path142" /><path
       inkscape:connector-curvature="0"
       d="m 203.82,381.66 14.34,0"
       style="fill:none;stroke:#000000;stroke-width:3.5999999;stroke-linecap:round;stroke-linejoin:round;stroke-miterlimit:10;stroke-dasharray:none;stroke-opacity:1"
       id="path144" /><path
       inkscape:connector-curvature="0"
       d="m 218.16,381.66 14.4,0"
       style="fill:none;stroke:#000000;stroke-width:3.5999999;stroke-linecap:round;stroke-linejoin:round;stroke-miterlimit:10;stroke-dasharray:none;stroke-opacity:1"
       id="path146" /><path
       inkscape:connector-curvature="0"
       d="m 232.56,381.66 7.2,-7.2"
       style="fill:none;stroke:#000000;stroke-width:3.5999999;stroke-linecap:round;stroke-linejoin:round;stroke-miterlimit:10;stroke-dasharray:none;stroke-opacity:1"
       id="path148" /><path
       inkscape:connector-curvature="0"
       d="M 248.76,408.6 236.16,396"
       style="fill:none;stroke:#000000;stroke-width:3.5999999;stroke-linecap:round;stroke-linejoin:round;stroke-miterlimit:10;stroke-dasharray:none;stroke-opacity:1"
       id="path150" /><path
       inkscape:connector-curvature="0"
       d="m 248.76,396 -12.6,0"
       style="fill:none;stroke:#000000;stroke-width:3.5999999;stroke-linecap:round;stroke-linejoin:round;stroke-miterlimit:10;stroke-dasharray:none;stroke-opacity:1"
       id="path152" /><path
       inkscape:connector-curvature="0"
       d="M 248.76,383.46 236.16,396"
       style="fill:none;stroke:#000000;stroke-width:3.5999999;stroke-linecap:round;stroke-linejoin:round;stroke-miterlimit:10;stroke-dasharray:none;stroke-opacity:1"
       id="path154" /><path
       inkscape:connector-curvature="0"
       d="m 236.16,396 -18,0"
       style="fill:none;stroke:#000000;stroke-width:3.5999999;stroke-linecap:round;stroke-linejoin:round;stroke-miterlimit:10;stroke-dasharray:none;stroke-opacity:1"
       id="path156" /><path
       inkscape:connector-curvature="0"
       d="M 187.62,383.46 200.22,396"
       style="fill:none;stroke:#000000;stroke-width:3.5999999;stroke-linecap:round;stroke-linejoin:round;stroke-miterlimit:10;stroke-dasharray:none;stroke-opacity:1"
       id="path158" /><path
       inkscape:connector-curvature="0"
       d="M 187.62,408.6 200.22,396"
       style="fill:none;stroke:#000000;stroke-width:3.5999999;stroke-linecap:round;stroke-linejoin:round;stroke-miterlimit:10;stroke-dasharray:none;stroke-opacity:1"
       id="path160" /><path
       inkscape:connector-curvature="0"
       d="m 200.22,396 17.94,0"
       style="fill:none;stroke:#000000;stroke-width:3.5999999;stroke-linecap:round;stroke-linejoin:round;stroke-miterlimit:10;stroke-dasharray:none;stroke-opacity:1"
       id="path162" /><path
       inkscape:connector-curvature="0"
       d="m 187.62,396 30.54,0"
       style="fill:none;stroke:#000000;stroke-width:3.5999999;stroke-linecap:round;stroke-linejoin:round;stroke-miterlimit:10;stroke-dasharray:none;stroke-opacity:1"
       id="path164" /><path
       inkscape:connector-curvature="0"
       d="m 218.16,381.66 0,14.34"
       style="fill:none;stroke:#000000;stroke-width:3.5999999;stroke-linecap:round;stroke-linejoin:round;stroke-miterlimit:10;stroke-dasharray:none;stroke-opacity:1"
       id="path166" /><path
       inkscape:connector-curvature="0"
       d="m 218.16,426.6 0,-16.2"
       style="fill:none;stroke:#000000;stroke-width:3.5999999;stroke-linecap:round;stroke-linejoin:round;stroke-miterlimit:10;stroke-dasharray:none;stroke-opacity:1"
       id="path168" /><path
       inkscape:connector-curvature="0"
       d="m 218.16,410.4 12.6,12.6"
       style="fill:none;stroke:#000000;stroke-width:3.5999999;stroke-linecap:round;stroke-linejoin:round;stroke-miterlimit:10;stroke-dasharray:none;stroke-opacity:1"
       id="path170" /><path
       inkscape:connector-curvature="0"
       d="m 230.76,423 0,3.6"
       style="fill:none;stroke:#000000;stroke-width:3.5999999;stroke-linecap:round;stroke-linejoin:round;stroke-miterlimit:10;stroke-dasharray:none;stroke-opacity:1"
       id="path172" /><path
       inkscape:connector-curvature="0"
       d="M 218.16,410.4 205.62,423"
       style="fill:none;stroke:#000000;stroke-width:3.5999999;stroke-linecap:round;stroke-linejoin:round;stroke-miterlimit:10;stroke-dasharray:none;stroke-opacity:1"
       id="path174" /><path
       inkscape:connector-curvature="0"
       d="m 205.62,423 0,3.6"
       style="fill:none;stroke:#000000;stroke-width:3.5999999;stroke-linecap:round;stroke-linejoin:round;stroke-miterlimit:10;stroke-dasharray:none;stroke-opacity:1"
       id="path176" /><path
       inkscape:connector-curvature="0"
       d="m 196.62,417.6 7.2,-7.2"
       style="fill:none;stroke:#000000;stroke-width:3.5999999;stroke-linecap:round;stroke-linejoin:round;stroke-miterlimit:10;stroke-dasharray:none;stroke-opacity:1"
       id="path178" /><path
       inkscape:connector-curvature="0"
       d="m 203.82,410.4 14.34,0"
       style="fill:none;stroke:#000000;stroke-width:3.5999999;stroke-linecap:round;stroke-linejoin:round;stroke-miterlimit:10;stroke-dasharray:none;stroke-opacity:1"
       id="path180" /><path
       inkscape:connector-curvature="0"
       d="m 218.16,410.4 14.4,0"
       style="fill:none;stroke:#000000;stroke-width:3.5999999;stroke-linecap:round;stroke-linejoin:round;stroke-miterlimit:10;stroke-dasharray:none;stroke-opacity:1"
       id="path182" /><path
       inkscape:connector-curvature="0"
       d="m 232.56,410.4 7.2,7.2"
       style="fill:none;stroke:#000000;stroke-width:3.5999999;stroke-linecap:round;stroke-linejoin:round;stroke-miterlimit:10;stroke-dasharray:none;stroke-opacity:1"
       id="path184" /><path
       inkscape:connector-curvature="0"
       d="m 218.16,396 0,14.4"
       style="fill:none;stroke:#000000;stroke-width:3.5999999;stroke-linecap:round;stroke-linejoin:round;stroke-miterlimit:10;stroke-dasharray:none;stroke-opacity:1"
       id="path186" /><path
       inkscape:connector-curvature="0"
       d="m 200.94,372.66 -2.52,-2.52 -3.6,0 -2.52,2.52 0,3.6 2.52,2.52 3.6,0 2.52,-2.52 0,-3.6 z"
       style="fill:#000000;fill-opacity:1;fill-rule:nonzero;stroke:#000000;stroke-width:0.79999995;stroke-linecap:round;stroke-linejoin:round;stroke-miterlimit:10;stroke-dasharray:none;stroke-opacity:1"
       id="path188" /><path
       inkscape:connector-curvature="0"
       d="m 199.5,374.46 c 0,-1.59058 -1.28942,-2.88 -2.88,-2.88 -1.59058,0 -2.88,1.28942 -2.88,2.88 0,1.59058 1.28942,2.88 2.88,2.88 1.59058,0 2.88,-1.28942 2.88,-2.88 z"
       style="fill:#ffffff;fill-opacity:1;fill-rule:evenodd;stroke:#000000;stroke-width:0.06;stroke-linecap:square;stroke-linejoin:bevel;stroke-miterlimit:10;stroke-dasharray:none;stroke-opacity:1"
       id="path190" /><path
       inkscape:connector-curvature="0"
       d="m 222.48,363.66 -2.52,-2.52 -3.6,0 -2.52,2.52 0,3.6 2.52,2.52 3.6,0 2.52,-2.52 0,-3.6 z"
       style="fill:#000000;fill-opacity:1;fill-rule:nonzero;stroke:#000000;stroke-width:0.79999995;stroke-linecap:round;stroke-linejoin:round;stroke-miterlimit:10;stroke-dasharray:none;stroke-opacity:1"
       id="path192" /><path
       inkscape:connector-curvature="0"
       d="m 221.04,365.46 c 0,-1.59058 -1.28942,-2.88 -2.88,-2.88 -1.59058,0 -2.88,1.28942 -2.88,2.88 0,1.59058 1.28942,2.88 2.88,2.88 1.59058,0 2.88,-1.28942 2.88,-2.88 z"
       style="fill:#ffffff;fill-opacity:1;fill-rule:evenodd;stroke:#000000;stroke-width:0.06;stroke-linecap:square;stroke-linejoin:bevel;stroke-miterlimit:10;stroke-dasharray:none;stroke-opacity:1"
       id="path194" /><path
       inkscape:connector-curvature="0"
       d="m 222.48,379.86 -2.52,-2.52 -3.6,0 -2.52,2.52 0,3.6 2.52,2.52 3.6,0 2.52,-2.52 0,-3.6 z"
       style="fill:#000000;fill-opacity:1;fill-rule:nonzero;stroke:#000000;stroke-width:0.79999995;stroke-linecap:round;stroke-linejoin:round;stroke-miterlimit:10;stroke-dasharray:none;stroke-opacity:1"
       id="path196" /><path
       inkscape:connector-curvature="0"
       d="m 221.04,381.66 c 0,-1.59058 -1.28942,-2.88 -2.88,-2.88 -1.59058,0 -2.88,1.28942 -2.88,2.88 0,1.59058 1.28942,2.88 2.88,2.88 1.59058,0 2.88,-1.28942 2.88,-2.88 z"
       style="fill:#ffffff;fill-opacity:1;fill-rule:evenodd;stroke:#000000;stroke-width:0.06;stroke-linecap:square;stroke-linejoin:bevel;stroke-miterlimit:10;stroke-dasharray:none;stroke-opacity:1"
       id="path198" /><path
       inkscape:connector-curvature="0"
       d="m 209.94,363.66 -2.52,-2.52 -3.6,0 -2.52,2.52 0,3.6 2.52,2.52 3.6,0 2.52,-2.52 0,-3.6 z"
       style="fill:#000000;fill-opacity:1;fill-rule:nonzero;stroke:#000000;stroke-width:0.79999995;stroke-linecap:round;stroke-linejoin:round;stroke-miterlimit:10;stroke-dasharray:none;stroke-opacity:1"
       id="path200" /><path
       inkscape:connector-curvature="0"
       d="m 208.5,365.46 c 0,-1.59058 -1.28942,-2.88 -2.88,-2.88 -1.59058,0 -2.88,1.28942 -2.88,2.88 0,1.59058 1.28942,2.88 2.88,2.88 1.59058,0 2.88,-1.28942 2.88,-2.88 z"
       style="fill:#ffffff;fill-opacity:1;fill-rule:evenodd;stroke:#000000;stroke-width:0.06;stroke-linecap:square;stroke-linejoin:bevel;stroke-miterlimit:10;stroke-dasharray:none;stroke-opacity:1"
       id="path202" /><path
       inkscape:connector-curvature="0"
       d="m 235.08,363.66 -2.52,-2.52 -3.6,0 -2.52,2.52 0,3.6 2.52,2.52 3.6,0 2.52,-2.52 0,-3.6 z"
       style="fill:#000000;fill-opacity:1;fill-rule:nonzero;stroke:#000000;stroke-width:0.79999995;stroke-linecap:round;stroke-linejoin:round;stroke-miterlimit:10;stroke-dasharray:none;stroke-opacity:1"
       id="path204" /><path
       inkscape:connector-curvature="0"
       d="m 233.64,365.46 c 0,-1.59058 -1.28942,-2.88 -2.88,-2.88 -1.59058,0 -2.88,1.28942 -2.88,2.88 0,1.59058 1.28942,2.88 2.88,2.88 1.59058,0 2.88,-1.28942 2.88,-2.88 z"
       style="fill:#ffffff;fill-opacity:1;fill-rule:evenodd;stroke:#000000;stroke-width:0.06;stroke-linecap:square;stroke-linejoin:bevel;stroke-miterlimit:10;stroke-dasharray:none;stroke-opacity:1"
       id="path206" /><path
       inkscape:connector-curvature="0"
       d="m 244.08,372.66 -2.52,-2.52 -3.6,0 -2.52,2.52 0,3.6 2.52,2.52 3.6,0 2.52,-2.52 0,-3.6 z"
       style="fill:#000000;fill-opacity:1;fill-rule:nonzero;stroke:#000000;stroke-width:0.79999995;stroke-linecap:round;stroke-linejoin:round;stroke-miterlimit:10;stroke-dasharray:none;stroke-opacity:1"
       id="path208" /><path
       inkscape:connector-curvature="0"
       d="m 242.64,374.46 c 0,-1.59058 -1.28942,-2.88 -2.88,-2.88 -1.59058,0 -2.88,1.28942 -2.88,2.88 0,1.59058 1.28942,2.88 2.88,2.88 1.59058,0 2.88,-1.28942 2.88,-2.88 z"
       style="fill:#ffffff;fill-opacity:1;fill-rule:evenodd;stroke:#000000;stroke-width:0.06;stroke-linecap:square;stroke-linejoin:bevel;stroke-miterlimit:10;stroke-dasharray:none;stroke-opacity:1"
       id="path210" /><path
       inkscape:connector-curvature="0"
       d="m 191.94,394.2 -2.52,-2.52 -3.6,0 -2.52,2.52 0,3.6 2.52,2.52 3.6,0 2.52,-2.52 0,-3.6 z"
       style="fill:#000000;fill-opacity:1;fill-rule:nonzero;stroke:#000000;stroke-width:0.79999995;stroke-linecap:round;stroke-linejoin:round;stroke-miterlimit:10;stroke-dasharray:none;stroke-opacity:1"
       id="path212" /><path
       inkscape:connector-curvature="0"
       d="m 190.5,396 c 0,-1.59058 -1.28942,-2.88 -2.88,-2.88 -1.59058,0 -2.88,1.28942 -2.88,2.88 0,1.59058 1.28942,2.88 2.88,2.88 1.59058,0 2.88,-1.28942 2.88,-2.88 z"
       style="fill:#ffffff;fill-opacity:1;fill-rule:evenodd;stroke:#000000;stroke-width:0.06;stroke-linecap:square;stroke-linejoin:bevel;stroke-miterlimit:10;stroke-dasharray:none;stroke-opacity:1"
       id="path214" /><path
       inkscape:connector-curvature="0"
       d="m 191.94,406.8 -2.52,-2.52 -3.6,0 -2.52,2.52 0,3.6 2.52,2.52 3.6,0 2.52,-2.52 0,-3.6 z"
       style="fill:#000000;fill-opacity:1;fill-rule:nonzero;stroke:#000000;stroke-width:0.79999995;stroke-linecap:round;stroke-linejoin:round;stroke-miterlimit:10;stroke-dasharray:none;stroke-opacity:1"
       id="path216" /><path
       inkscape:connector-curvature="0"
       d="m 190.5,408.6 c 0,-1.59058 -1.28942,-2.88 -2.88,-2.88 -1.59058,0 -2.88,1.28942 -2.88,2.88 0,1.59058 1.28942,2.88 2.88,2.88 1.59058,0 2.88,-1.28942 2.88,-2.88 z"
       style="fill:#ffffff;fill-opacity:1;fill-rule:evenodd;stroke:#000000;stroke-width:0.06;stroke-linecap:square;stroke-linejoin:bevel;stroke-miterlimit:10;stroke-dasharray:none;stroke-opacity:1"
       id="path218" /><path
       inkscape:connector-curvature="0"
       d="m 191.94,381.66 -2.52,-2.52 -3.6,0 -2.52,2.52 0,3.6 2.52,2.52 3.6,0 2.52,-2.52 0,-3.6 z"
       style="fill:#000000;fill-opacity:1;fill-rule:nonzero;stroke:#000000;stroke-width:0.79999995;stroke-linecap:round;stroke-linejoin:round;stroke-miterlimit:10;stroke-dasharray:none;stroke-opacity:1"
       id="path220" /><path
       inkscape:connector-curvature="0"
       d="m 190.5,383.46 c 0,-1.59058 -1.28942,-2.88 -2.88,-2.88 -1.59058,0 -2.88,1.28942 -2.88,2.88 0,1.59058 1.28942,2.88 2.88,2.88 1.59058,0 2.88,-1.28942 2.88,-2.88 z"
       style="fill:#ffffff;fill-opacity:1;fill-rule:evenodd;stroke:#000000;stroke-width:0.06;stroke-linecap:square;stroke-linejoin:bevel;stroke-miterlimit:10;stroke-dasharray:none;stroke-opacity:1"
       id="path222" /><path
       inkscape:connector-curvature="0"
       d="m 253.08,381.66 -2.52,-2.52 -3.6,0 -2.52,2.52 0,3.6 2.52,2.52 3.6,0 2.52,-2.52 0,-3.6 z"
       style="fill:#000000;fill-opacity:1;fill-rule:nonzero;stroke:#000000;stroke-width:0.79999995;stroke-linecap:round;stroke-linejoin:round;stroke-miterlimit:10;stroke-dasharray:none;stroke-opacity:1"
       id="path224" /><path
       inkscape:connector-curvature="0"
       d="m 251.64,383.46 c 0,-1.59058 -1.28942,-2.88 -2.88,-2.88 -1.59058,0 -2.88,1.28942 -2.88,2.88 0,1.59058 1.28942,2.88 2.88,2.88 1.59058,0 2.88,-1.28942 2.88,-2.88 z"
       style="fill:#ffffff;fill-opacity:1;fill-rule:evenodd;stroke:#000000;stroke-width:0.06;stroke-linecap:square;stroke-linejoin:bevel;stroke-miterlimit:10;stroke-dasharray:none;stroke-opacity:1"
       id="path226" /><path
       inkscape:connector-curvature="0"
       d="m 253.08,394.2 -2.52,-2.52 -3.6,0 -2.52,2.52 0,3.6 2.52,2.52 3.6,0 2.52,-2.52 0,-3.6 z"
       style="fill:#000000;fill-opacity:1;fill-rule:nonzero;stroke:#000000;stroke-width:0.79999995;stroke-linecap:round;stroke-linejoin:round;stroke-miterlimit:10;stroke-dasharray:none;stroke-opacity:1"
       id="path228" /><path
       inkscape:connector-curvature="0"
       d="m 251.64,396 c 0,-1.59058 -1.28942,-2.88 -2.88,-2.88 -1.59058,0 -2.88,1.28942 -2.88,2.88 0,1.59058 1.28942,2.88 2.88,2.88 1.59058,0 2.88,-1.28942 2.88,-2.88 z"
       style="fill:#ffffff;fill-opacity:1;fill-rule:evenodd;stroke:#000000;stroke-width:0.06;stroke-linecap:square;stroke-linejoin:bevel;stroke-miterlimit:10;stroke-dasharray:none;stroke-opacity:1"
       id="path230" /><path
       inkscape:connector-curvature="0"
       d="m 253.08,406.8 -2.52,-2.52 -3.6,0 -2.52,2.52 0,3.6 2.52,2.52 3.6,0 2.52,-2.52 0,-3.6 z"
       style="fill:#000000;fill-opacity:1;fill-rule:nonzero;stroke:#000000;stroke-width:0.79999995;stroke-linecap:round;stroke-linejoin:round;stroke-miterlimit:10;stroke-dasharray:none;stroke-opacity:1"
       id="path232" /><path
       inkscape:connector-curvature="0"
       d="m 251.64,408.6 c 0,-1.59058 -1.28942,-2.88 -2.88,-2.88 -1.59058,0 -2.88,1.28942 -2.88,2.88 0,1.59058 1.28942,2.88 2.88,2.88 1.59058,0 2.88,-1.28942 2.88,-2.88 z"
       style="fill:#ffffff;fill-opacity:1;fill-rule:evenodd;stroke:#000000;stroke-width:0.06;stroke-linecap:square;stroke-linejoin:bevel;stroke-miterlimit:10;stroke-dasharray:none;stroke-opacity:1"
       id="path234" /><path
       inkscape:connector-curvature="0"
       d="m 222.48,394.2 -2.52,-2.52 -3.6,0 -2.52,2.52 0,3.6 2.52,2.52 3.6,0 2.52,-2.52 0,-3.6 z"
       style="fill:#000000;fill-opacity:1;fill-rule:nonzero;stroke:#000000;stroke-width:0.79999995;stroke-linecap:round;stroke-linejoin:round;stroke-miterlimit:10;stroke-dasharray:none;stroke-opacity:1"
       id="path236" /><path
       inkscape:connector-curvature="0"
       d="m 221.04,396 c 0,-1.59058 -1.28942,-2.88 -2.88,-2.88 -1.59058,0 -2.88,1.28942 -2.88,2.88 0,1.59058 1.28942,2.88 2.88,2.88 1.59058,0 2.88,-1.28942 2.88,-2.88 z"
       style="fill:#ffffff;fill-opacity:1;fill-rule:evenodd;stroke:#000000;stroke-width:0.06;stroke-linecap:square;stroke-linejoin:bevel;stroke-miterlimit:10;stroke-dasharray:none;stroke-opacity:1"
       id="path238" /><path
       inkscape:connector-curvature="0"
       d="m 200.94,415.8 -2.52,-2.52 -3.6,0 -2.52,2.52 0,3.6 2.52,2.52 3.6,0 2.52,-2.52 0,-3.6 z"
       style="fill:#000000;fill-opacity:1;fill-rule:nonzero;stroke:#000000;stroke-width:0.79999995;stroke-linecap:round;stroke-linejoin:round;stroke-miterlimit:10;stroke-dasharray:none;stroke-opacity:1"
       id="path240" /><path
       inkscape:connector-curvature="0"
       d="m 199.5,417.6 c 0,-1.59058 -1.28942,-2.88 -2.88,-2.88 -1.59058,0 -2.88,1.28942 -2.88,2.88 0,1.59058 1.28942,2.88 2.88,2.88 1.59058,0 2.88,-1.28942 2.88,-2.88 z"
       style="fill:#ffffff;fill-opacity:1;fill-rule:evenodd;stroke:#000000;stroke-width:0.06;stroke-linecap:square;stroke-linejoin:bevel;stroke-miterlimit:10;stroke-dasharray:none;stroke-opacity:1"
       id="path242" /><path
       inkscape:connector-curvature="0"
       d="m 222.48,424.8 -2.52,-2.52 -3.6,0 -2.52,2.52 0,3.6 2.52,2.52 3.6,0 2.52,-2.52 0,-3.6 z"
       style="fill:#000000;fill-opacity:1;fill-rule:nonzero;stroke:#000000;stroke-width:0.79999995;stroke-linecap:round;stroke-linejoin:round;stroke-miterlimit:10;stroke-dasharray:none;stroke-opacity:1"
       id="path244" /><path
       inkscape:connector-curvature="0"
       d="m 221.04,426.6 c 0,-1.59058 -1.28942,-2.88 -2.88,-2.88 -1.59058,0 -2.88,1.28942 -2.88,2.88 0,1.59058 1.28942,2.88 2.88,2.88 1.59058,0 2.88,-1.28942 2.88,-2.88 z"
       style="fill:#ffffff;fill-opacity:1;fill-rule:evenodd;stroke:#000000;stroke-width:0.06;stroke-linecap:square;stroke-linejoin:bevel;stroke-miterlimit:10;stroke-dasharray:none;stroke-opacity:1"
       id="path246" /><path
       inkscape:connector-curvature="0"
       d="m 222.48,408.6 -2.52,-2.52 -3.6,0 -2.52,2.52 0,3.6 2.52,2.52 3.6,0 2.52,-2.52 0,-3.6 z"
       style="fill:#000000;fill-opacity:1;fill-rule:nonzero;stroke:#000000;stroke-width:0.79999995;stroke-linecap:round;stroke-linejoin:round;stroke-miterlimit:10;stroke-dasharray:none;stroke-opacity:1"
       id="path248" /><path
       inkscape:connector-curvature="0"
       d="m 221.04,410.4 c 0,-1.59058 -1.28942,-2.88 -2.88,-2.88 -1.59058,0 -2.88,1.28942 -2.88,2.88 0,1.59058 1.28942,2.88 2.88,2.88 1.59058,0 2.88,-1.28942 2.88,-2.88 z"
       style="fill:#ffffff;fill-opacity:1;fill-rule:evenodd;stroke:#000000;stroke-width:0.06;stroke-linecap:square;stroke-linejoin:bevel;stroke-miterlimit:10;stroke-dasharray:none;stroke-opacity:1"
       id="path250" /><path
       inkscape:connector-curvature="0"
       d="m 235.08,424.8 -2.52,-2.52 -3.6,0 -2.52,2.52 0,3.6 2.52,2.52 3.6,0 2.52,-2.52 0,-3.6 z"
       style="fill:#000000;fill-opacity:1;fill-rule:nonzero;stroke:#000000;stroke-width:0.79999995;stroke-linecap:round;stroke-linejoin:round;stroke-miterlimit:10;stroke-dasharray:none;stroke-opacity:1"
       id="path252" /><path
       inkscape:connector-curvature="0"
       d="m 233.64,426.6 c 0,-1.59058 -1.28942,-2.88 -2.88,-2.88 -1.59058,0 -2.88,1.28942 -2.88,2.88 0,1.59058 1.28942,2.88 2.88,2.88 1.59058,0 2.88,-1.28942 2.88,-2.88 z"
       style="fill:#ffffff;fill-opacity:1;fill-rule:evenodd;stroke:#000000;stroke-width:0.06;stroke-linecap:square;stroke-linejoin:bevel;stroke-miterlimit:10;stroke-dasharray:none;stroke-opacity:1"
       id="path254" /><path
       inkscape:connector-curvature="0"
       d="m 209.94,424.8 -2.52,-2.52 -3.6,0 -2.52,2.52 0,3.6 2.52,2.52 3.6,0 2.52,-2.52 0,-3.6 z"
       style="fill:#000000;fill-opacity:1;fill-rule:nonzero;stroke:#000000;stroke-width:0.79999995;stroke-linecap:round;stroke-linejoin:round;stroke-miterlimit:10;stroke-dasharray:none;stroke-opacity:1"
       id="path256" /><path
       inkscape:connector-curvature="0"
       d="m 208.5,426.6 c 0,-1.59058 -1.28942,-2.88 -2.88,-2.88 -1.59058,0 -2.88,1.28942 -2.88,2.88 0,1.59058 1.28942,2.88 2.88,2.88 1.59058,0 2.88,-1.28942 2.88,-2.88 z"
       style="fill:#ffffff;fill-opacity:1;fill-rule:evenodd;stroke:#000000;stroke-width:0.06;stroke-linecap:square;stroke-linejoin:bevel;stroke-miterlimit:10;stroke-dasharray:none;stroke-opacity:1"
       id="path258" /><path
       inkscape:connector-curvature="0"
       d="m 244.08,415.8 -2.52,-2.52 -3.6,0 -2.52,2.52 0,3.6 2.52,2.52 3.6,0 2.52,-2.52 0,-3.6 z"
       style="fill:#000000;fill-opacity:1;fill-rule:nonzero;stroke:#000000;stroke-width:0.79999995;stroke-linecap:round;stroke-linejoin:round;stroke-miterlimit:10;stroke-dasharray:none;stroke-opacity:1"
       id="path260" /><path
       inkscape:connector-curvature="0"
       d="m 242.64,417.6 c 0,-1.59058 -1.28942,-2.88 -2.88,-2.88 -1.59058,0 -2.88,1.28942 -2.88,2.88 0,1.59058 1.28942,2.88 2.88,2.88 1.59058,0 2.88,-1.28942 2.88,-2.88 z"
       style="fill:#ffffff;fill-opacity:1;fill-rule:evenodd;stroke:#000000;stroke-width:0.06;stroke-linecap:square;stroke-linejoin:bevel;stroke-miterlimit:10;stroke-dasharray:none;stroke-opacity:1"
       id="path262" /></g><g
     id="g3422"
     transform="translate(8,0)"><text
       sodipodi:linespacing="125%"
       id="text4257"
       y="49.592247"
       x="103.83133"
       style="font-style:normal;font-variant:normal;font-weight:500;font-stretch:normal;font-size:40px;line-height:125%;font-family:Orbitron;-inkscape-font-specification:'Orbitron, Medium';text-align:start;letter-spacing:0px;word-spacing:0px;writing-mode:lr-tb;text-anchor:start;fill:#000000;fill-opacity:1;stroke:none;stroke-width:1px;stroke-linecap:butt;stroke-linejoin:miter;stroke-opacity:1"
       xml:space="preserve"><tspan
         y="49.592247"
         x="103.83133"
         id="tspan4370"
         sodipodi:role="line">Rover</tspan></text>
<text
       sodipodi:linespacing="125%"
       id="text4372"
       y="85.637749"
       x="118.05946"
       style="font-style:normal;font-variant:normal;font-weight:500;font-stretch:normal;font-size:40px;line-height:125%;font-family:Orbitron;-inkscape-font-specification:'Orbitron, Medium';text-align:start;letter-spacing:0px;word-spacing:0px;writing-mode:lr-tb;text-anchor:start;fill:#000000;fill-opacity:1;stroke:none;stroke-width:1px;stroke-linecap:butt;stroke-linejoin:miter;stroke-opacity:1"
       xml:space="preserve"><tspan
         y="85.637749"
         x="118.05946"
         id="tspan4374"
         sodipodi:role="line">Wing</tspan></text>
</g></svg>