<?xml version="1.0" encoding="UTF-8" standalone="no"?>
<svg
 xmlns:dc="http://purl.org/dc/elements/1.1/"
 xmlns:cc="http://creativecommons.org/ns#"
 xmlns:rdf="http://www.w3.org/1999/02/22-rdf-syntax-ns#"
 xmlns:svg="http://www.w3.org/2000/svg"
 xmlns="http://www.w3.org/2000/svg"
 id="svg2"
 version="1.1"
 xml:space="preserve"
 width="214.92169pt"
 height="90.580002pt"
 viewBox="0 0 268.65211 113.225"><metadata
 id="metadata8"><rdf:RDF><cc:Work
 rdf:about=""><dc:format>image/svg+xml</dc:format><dc:type
 rdf:resource="http://purl.org/dc/dcmitype/StillImage" /><dc:title></dc:title></cc:Work></rdf:RDF></metadata><defs
 id="defs6"><clipPath
 id="clipPath26"
 clipPathUnits="userSpaceOnUse"><path
 style="clip-rule:evenodd"
 id="path28"
 d="m 198,198 9804,0 0,12804 -9804,0 0,-12804 z" /></clipPath><clipPath
 id="clipPath36"
 clipPathUnits="userSpaceOnUse"><path
 style="clip-rule:evenodd"
 id="path38"
 d="m 198,198 9804,0 0,12804 -9804,0 0,-12804 z" /></clipPath><clipPath
 id="clipPath42"
 clipPathUnits="userSpaceOnUse"><path
 style="clip-rule:evenodd"
 id="path44"
 d="m 3048,6013 4103,0 0,1174 -4103,0 0,-1174 z" /></clipPath></defs><g
 id="layer2"
 style="display:inline"><path
 style="color:#000000;font-style:normal;font-variant:normal;font-weight:normal;font-stretch:normal;font-size:medium;line-height:normal;font-family:sans-serif;text-indent:0;text-align:start;text-decoration:none;text-decoration-line:none;text-decoration-style:solid;text-decoration-color:#000000;letter-spacing:normal;word-spacing:normal;text-transform:none;direction:ltr;block-progression:tb;writing-mode:lr-tb;baseline-shift:baseline;text-anchor:start;white-space:normal;clip-rule:nonzero;display:inline;overflow:visible;visibility:visible;opacity:1;isolation:auto;mix-blend-mode:normal;color-interpolation:sRGB;color-interpolation-filters:linearRGB;solid-color:#000000;solid-opacity:1;fill:#000000;fill-opacity:1;fill-rule:nonzero;stroke:none;stroke-width:4.5;stroke-linecap:round;stroke-linejoin:round;stroke-miterlimit:10;stroke-dasharray:none;stroke-dashoffset:0;stroke-opacity:1;color-rendering:auto;image-rendering:auto;shape-rendering:auto;text-rendering:auto;enable-background:accumulate"
 d="M38.650391 14.222656L35.5 17.373047L35.5 21.873047L38.650391 25.023438L38.839844 25.023438L39.304688 25.708984L51.162109 37.623047L39.582031 37.623047L35.050781 33.091797L35.050781 28.623047L31.900391 25.472656L27.400391 25.472656L24.25 28.623047L24.25 33.123047L27.400391 36.273438L31.871094 36.273438L36.775391 41.179688L37.888672 42.001953L38.607422 42.144531L38.974609 42.123047L51.175781 42.123047L54.324219 45.273438L54.324219 52.472656L51.175781 55.623047L35.082031 55.623047L23.800781 44.341797L23.800781 39.873047L20.650391 36.722656L16.150391 36.722656L13.0 39.873047L13.0 44.373047L16.150391 47.523438L20.619141 47.523438L28.71875 55.623047L23.800781 55.623047L20.650391 52.472656L16.150391 52.472656L13.0 55.623047L13.0 60.123047L16.150391 63.273438L20.650391 63.273438L23.800781 60.123047L28.699219 60.123047L20.634766 68.148438L16.150391 68.148438L13.0 71.296875L13.0 75.796875L16.150391 78.947266L20.650391 78.947266L23.800781 75.796875L23.800781 71.345703L35.076172 60.123047L51.175781 60.123047L54.324219 63.273438L54.324219 70.398438L51.175781 73.546875L38.974609 73.546875L38.605469 73.525391L37.794922 73.705078L37.755859 73.720703L37.712891 73.740234L36.828125 74.4375L31.867188 79.398438L27.400391 79.398438L24.25 82.546875L24.25 87.046875L27.400391 90.197266L31.900391 90.197266L35.050781 87.046875L35.050781 82.578125L39.582031 78.046875L51.162109 78.046875L39.304688 89.960938L38.820312 90.648438L38.650391 90.648438L35.5 93.796875L35.5 98.296875L38.650391 101.44727L43.150391 101.44727L46.300781 98.296875L46.300781 93.796875L44.0625 91.558594L54.324219 81.248047L54.324219 90.648438L51.175781 93.796875L51.175781 98.296875L54.324219 101.44727L58.824219 101.44727L61.974609 98.296875L61.974609 93.796875L58.824219 90.648438L58.824219 81.228516L69.160156 91.5625L66.925781 93.796875L66.925781 98.296875L70.074219 101.44727L74.574219 101.44727L77.724609 98.296875L77.724609 93.796875L74.574219 90.648438L74.404297 90.648438L73.916016 89.957031L62.005859 78.046875L73.642578 78.046875L78.175781 82.580078L78.175781 87.046875L81.324219 90.197266L85.824219 90.197266L88.974609 87.046875L88.974609 82.546875L85.824219 79.398438L81.357422 79.398438L76.392578 74.433594L75.355469 73.675781L74.550781 73.525391L74.259766 73.546875L61.974609 73.546875L58.824219 70.398438L58.824219 63.273438L61.974609 60.123047L78.148438 60.123047L89.425781 71.347656L89.425781 75.796875L92.574219 78.947266L97.074219 78.947266L100.22461 75.796875L100.22461 71.296875L97.074219 68.148438L92.589844 68.148438L84.525391 60.123047L89.425781 60.123047L92.574219 63.273438L97.074219 63.273438L100.22461 60.123047L100.22461 55.623047L97.074219 52.472656L92.574219 52.472656L89.425781 55.623047L84.505859 55.623047L92.605469 47.523438L97.074219 47.523438L100.22461 44.373047L100.22461 39.873047L97.074219 36.722656L92.574219 36.722656L89.425781 39.873047L89.425781 44.339844L78.142578 55.623047L61.974609 55.623047L58.826172 52.474609L58.826172 45.271484L61.974609 42.123047L74.259766 42.123047L74.550781 42.144531L75.205078 42.046875L75.214844 42.044922L75.244141 42.035156L76.466797 41.160156L81.355469 36.273438L85.824219 36.273438L88.974609 33.123047L88.974609 28.623047L85.824219 25.472656L81.324219 25.472656L78.175781 28.623047L78.175781 33.089844L73.644531 37.623047L62.005859 37.623047L73.916016 25.714844L74.386719 25.023438L74.574219 25.023438L77.724609 21.873047L77.724609 17.373047L74.574219 14.222656L70.074219 14.222656L66.925781 17.373047L66.925781 21.873047L69.158203 24.105469L58.826172 34.441406L58.826172 25.021484L61.974609 21.873047L61.974609 17.373047L58.824219 14.222656L54.324219 14.222656L51.175781 17.373047L51.175781 21.873047L54.324219 25.023438L54.324219 34.421875L44.064453 24.109375L46.300781 21.873047L46.300781 17.373047L43.150391 14.222656L38.650391 14.222656L38.650391 14.222656"
 transform="translate(0,-3.8146973e-6)"
 id="path132" /></g><g
 id="g3422"
 transform="translate(8,0)"><g
 style="font-style:normal;font-variant:normal;font-weight:500;font-stretch:normal;font-size:40px;line-height:125%;font-family:Orbitron;-inkscape-font-specification:'Orbitron, Medium';text-align:start;letter-spacing:0px;word-spacing:0px;writing-mode:lr-tb;text-anchor:start;fill:#000000;fill-opacity:1;stroke:none;stroke-width:1px;stroke-linecap:butt;stroke-linejoin:miter;stroke-opacity:1"
 id="text4257"><path
 d="m 134.83133,26.032247 0,8.08 -0.15837,1.310265 -0.45269,1.152957 -0.42625,0.65727 -0.48269,0.559508 -0.81825,0.677327 -0.99606,0.515803 -1.86569,0.32687 -2.92,0 8.12,9.68 0,0.6 -5.12,0 -8.64,-10.28 -9.84,0 -0.88,-0.08 0,10.36 -4.32,0 0,-28.76 23.6,0 1.36676,0.172766 0.93257,0.356596 1.38067,1.030638 0.63595,0.755398 0.6148,1.206359 z m -23.6,8.96 18.4,0 0.6,-0.24 0.28,-0.64 0,-8.08 -0.28,-0.6 -0.6,-0.28 -18.4,0 -0.64,0.28 -0.24,0.6 0,8.08 0.24,0.64 z"
 id="path4583" /><path
 d="m 144.04008,26.392247 13.2,0 1.4657,0.195138 1.25149,0.553886 0.96281,0.770976 0.68748,0.833407 0.55365,1.11363 0.27887,1.732963 0,12.8 -0.18741,1.437998 -0.57795,1.305203 -0.75464,0.936799 -0.77488,0.647848 -1.21157,0.606701 -1.69355,0.265451 -13.2,0 -1.53249,-0.214491 -1.17317,-0.527367 -0.97434,-0.778142 -0.79189,-0.996655 -0.50001,-1.105879 -0.2281,-1.577466 0,-12.8 0.21654,-1.539355 0.55133,-1.207802 0.75213,-0.932843 0.85586,-0.702371 1.12151,-0.549121 z m 13.2,4.32 -13.2,0 -0.64,0.28 -0.24,0.6 0,12.8 0.24,0.64 0.64,0.24 13.2,0 0.6,-0.24 0.28,-0.64 0,-12.8 -0.28,-0.6 z"
 id="path4585" /><path
 d="m 188.85008,26.392247 4.96,0 -12.8,23.2 -4.32,0 -12.8,-23.2 5,0 9.96,18.32 z"
 id="path4587" /><path
 d="m 212.55258,26.392247 1.73542,0.279717 1.05047,0.512938 0.89411,0.727345 0.67399,0.8133 0.54397,1.068163 0.30204,1.798537 0,8.56 -19.28,0 0,4.24 0.24,0.64 0.64,0.24 18.4,0 0,4.32 -18.4,0 -1.40347,-0.178024 -1.20382,-0.504411 -1.07271,-0.837565 -0.77786,-0.973888 -0.53341,-1.19313 -0.20873,-1.512982 0,-12.8 0.18179,-1.417435 0.54333,-1.261035 0.79488,-1.00153 0.89519,-0.72804 1.23443,-0.572111 1.55038,-0.219849 z m -14.08,9.44 14.96,0 0,-4.24 -0.28,-0.6 -0.6,-0.28 -13.2,0 -0.64,0.28 -0.24,0.6 z"
 id="path4589" /><path
 d="m 226.26758,26.392247 12.96,0 0,4.32 -12.96,0 -0.64,0.28 -0.24,0.6 0,18 -4.32,0 0,-5.2 0,-12.8 0.22988,-1.583215 0.48696,-1.08165 0.80316,-1.015135 1.06849,-0.83508 1.20845,-0.507006 z"
 id="path4591" /></g><g
 style="font-style:normal;font-variant:normal;font-weight:500;font-stretch:normal;font-size:40px;line-height:125%;font-family:Orbitron;-inkscape-font-specification:'Orbitron, Medium';text-align:start;letter-spacing:0px;word-spacing:0px;writing-mode:lr-tb;text-anchor:start;fill:#000000;fill-opacity:1;stroke:none;stroke-width:1px;stroke-linecap:butt;stroke-linejoin:miter;stroke-opacity:1"
 id="text4372"><path
 d="m 159.21946,56.837749 4.6,0 -10.48,28.8 -3.52,0 -8.2,-22.44 -8.16,22.44 -0.08,-0.04 0.04,0.04 -3.48,0 -10.48,-28.8 4.6,0 7.64,21 7.64,-21 4.6,0 7.64,21 7.64,-21 z"
 style=""
 id="path4594" /><path
 d="m 167.09259,85.637749 0,-23.2 4.32,0 0,23.2 -4.32,0 z m 0,-30.8 4.32,0 0,4.32 -4.32,0 0,-4.32 z"
 style=""
 id="path4596" /><path
 d="m 193.30696,62.437749 1.59725,0.234243 1.08148,0.491041 1.00127,0.794716 0.63346,0.754065 0.60179,1.176041 0.28475,1.749894 0,18 -4.32,0 0,-18 -0.28,-0.6 -0.6,-0.28 -13.2,0 -0.64,0.28 -0.24,0.6 0,18 -4.32,0 0,-23.2 z"
 id="path4598" /><path
 d="m 225.79946,76.797749 0,0.04 0,12.8 -0.20174,1.488891 -0.51579,1.177118 -0.80247,1.013991 -0.61793,0.535592 -1.23052,0.670305 -1.83155,0.314103 -14.32,0 0,-4.32 14.32,0 0.6,-0.28 0.28,-0.6 0,-4 -14.08,0 -1.74271,-0.282244 -1.22223,-0.631654 -0.71506,-0.606102 -0.70587,-0.861179 -0.53985,-1.099225 -0.27428,-1.719596 0,-12.8 0.31782,-1.841562 0.63794,-1.181607 0.56424,-0.656831 0.99467,-0.790679 1.05677,-0.485175 1.62856,-0.244146 13.2,0 1.56423,0.224048 1.16893,0.534984 0.94684,0.760968 0.79391,0.999953 0.58034,1.403687 0.14575,1.27636 z m -18.4,4.52 13.2,0 0.6,-0.24 0.28,-0.64 0,-12.8 -0.28,-0.6 -0.6,-0.28 -13.2,0 -0.64,0.28 -0.24,0.6 0,12.8 0.24,0.64 z"
 id="path4600" /></g></g></svg>