  0
SECTION
  2
HEADER
  9
$ACADVER
  1
AC1014
  9
$HANDSEED
  5
FFFF
  9
$MEASUREMENT
 70
     1
  0
ENDSEC
  0
SECTION
  2
TABLES
  0
TABLE
  2
VPORT
  5
8
330
0
100
AcDbSymbolTable
 70
     4
  0
VPORT
  5
2E
330
8
100
AcDbSymbolTableRecord
100
AcDbViewportTableRecord
  2
*ACTIVE
 70
     0
 10
0.0
 20
0.0
 11
1.0
 21
1.0
 12
210.0
 22
148.5
 13
0.0
 23
0.0
 14
10.0
 24
10.0
 15
10.0
 25
10.0
 16
0.0
 26
0.0
 36
1.0
 17
0.0
 27
0.0
 37
0.0
 40
341.0
 41
1.24
 42
50.0
 43
0.0
 44
0.0
 50
0.0
 51
0.0
 71
     0
 72
   100
 73
     1
 74
     3
 75
     0
 76
     0
 77
     0
 78
     0
  0
ENDTAB
  0
TABLE
  2
LTYPE
  5
5
330
0
100
AcDbSymbolTable
 70
     1
  0
LTYPE
  5
14
330
5
100
AcDbSymbolTableRecord
100
AcDbLinetypeTableRecord
  2
BYBLOCK
 70
     0
  3

 72
    65
 73
     0
 40
0.0
  0
LTYPE
  5
15
330
5
100
AcDbSymbolTableRecord
100
AcDbLinetypeTableRecord
  2
BYLAYER
 70
     0
  3

 72
    65
 73
     0
 40
0.0
  0
LTYPE
  5
16
330
5
100
AcDbSymbolTableRecord
100
AcDbLinetypeTableRecord
  2
CONTINUOUS
 70
     0
  3
Solid line
 72
    65
 73
     0
 40
0.0
  0
ENDTAB
  0
TABLE
  2
LAYER
  5
2
100
AcDbSymbolTable
 70
2
  0
LAYER
  5
50
100
AcDbSymbolTableRecord
100
AcDbLayerTableRecord
  2
0
 70
0
  6
CONTINUOUS
  0
LAYER
  5
51
100
AcDbSymbolTableRecord
100
AcDbLayerTableRecord
  2
Lines
 70
0
  6
CONTINUOUS
  0
ENDTAB
  0
TABLE
  2
STYLE
  5
3
330
0
100
AcDbSymbolTable
 70
     1
  0
STYLE
  5
11
330
3
100
AcDbSymbolTableRecord
100
AcDbTextStyleTableRecord
  2
STANDARD
 70
     0
 40
0.0
 41
1.0
 50
0.0
 71
     0
 42
2.5
  3
txt
  4

  0
ENDTAB
  0
TABLE
  2
VIEW
  5
6
330
0
100
AcDbSymbolTable
 70
     0
  0
ENDTAB
  0
TABLE
  2
UCS
  5
7
330
0
100
AcDbSymbolTable
 70
     0
  0
ENDTAB
  0
TABLE
  2
APPID
  5
9
330
0
100
AcDbSymbolTable
 70
     2
  0
APPID
  5
12
330
9
100
AcDbSymbolTableRecord
100
AcDbRegAppTableRecord
  2
ACAD
 70
     0
  0
ENDTAB
  0
TABLE
  2
DIMSTYLE
  5
A
330
0
100
AcDbSymbolTable
 70
     1
  0
DIMSTYLE
105
27
330
A
100
AcDbSymbolTableRecord
100
AcDbDimStyleTableRecord
  2
ISO-25
 70
     0
  3

  4

  5

  6

  7

 40
1.0
 41
2.5
 42
0.625
 43
3.75
 44
1.25
 45
0.0
 46
0.0
 47
0.0
 48
0.0
140
2.5
141
2.5
142
0.0
143
0.03937007874016
144
1.0
145
0.0
146
1.0
147
0.625
 71
     0
 72
     0
 73
     0
 74
     0
 75
     0
 76
     0
 77
     1
 78
     8
170
     0
171
     3
172
     1
173
     0
174
     0
175
     0
176
     0
177
     0
178
     0
270
     2
271
     2
272
     2
273
     2
274
     3
340
11
275
     0
280
     0
281
     0
282
     0
283
     0
284
     8
285
     0
286
     0
287
     3
288
     0
  0
ENDTAB
  0
TABLE
  2
BLOCK_RECORD
  5
1
330
0
100
AcDbSymbolTable
 70
     1
  0
BLOCK_RECORD
  5
1F
330
1
100
AcDbSymbolTableRecord
100
AcDbBlockTableRecord
  2
*MODEL_SPACE
  0
BLOCK_RECORD
  5
1B
330
1
100
AcDbSymbolTableRecord
100
AcDbBlockTableRecord
  2
*PAPER_SPACE
  0
ENDTAB
  0
ENDSEC
  0
SECTION
  2
BLOCKS
  0
BLOCK
  5
20
330
1F
100
AcDbEntity
  8
0
100
AcDbBlockBegin
  2
*MODEL_SPACE
 70
     0
 10
0.0
 20
0.0
 30
0.0
  3
*MODEL_SPACE
  1

  0
ENDBLK
  5
21
330
1F
100
AcDbEntity
  8
0
100
AcDbBlockEnd
  0
BLOCK
  5
1C
330
1B
100
AcDbEntity
 67
     1
  8
0
100
AcDbBlockBegin
  2
*PAPER_SPACE
  1

  0
ENDBLK
  5
1D
330
1B
100
AcDbEntity
 67
     1
  8
0
100
AcDbBlockEnd
  0
ENDSEC
  0
SECTION
  2
ENTITIES
  0
LWPOLYLINE
  5
100
100
AcDbEntity
  8
Lines
 62
7
100
AcDbPolyline
 90
194
 70
0
 10
10.907999
 20
27.940663
 30
0.0
 10
10.018889
 20
27.051553
 30
0.0
 10
10.018889
 20
25.781553
 30
0.0
 10
10.907999
 20
24.892443
 30
0.0
 10
10.961467
 20
24.892443
 30
0.0
 10
11.092656
 20
24.698966
 30
0.0
 10
14.439084
 20
21.336553
 30
0.0
 10
11.170929
 20
21.336553
 30
0.0
 10
9.892109
 20
22.615372
 30
0.0
 10
9.892109
 20
23.876553
 30
0.0
 10
9.002999
 20
24.765663
 30
0.0
 10
7.732999
 20
24.765663
 30
0.0
 10
6.843889
 20
23.876553
 30
0.0
 10
6.843889
 20
22.606553
 30
0.0
 10
7.732999
 20
21.717443
 30
0.0
 10
8.994731
 20
21.717443
 30
0.0
 10
10.378833
 20
20.332790
 30
0.0
 10
10.693025
 20
20.100728
 30
0.0
 10
10.895872
 20
20.060490
 30
0.0
 10
10.999501
 20
20.066553
 30
0.0
 10
14.442943
 20
20.066553
 30
0.0
 10
15.331502
 20
19.177443
 30
0.0
 10
15.331502
 20
17.145663
 30
0.0
 10
14.442943
 20
16.256553
 30
0.0
 10
9.900929
 20
16.256553
 30
0.0
 10
6.717109
 20
19.440372
 30
0.0
 10
6.717109
 20
20.701553
 30
0.0
 10
5.827999
 20
21.590663
 30
0.0
 10
4.557999
 20
21.590663
 30
0.0
 10
3.668889
 20
20.701553
 30
0.0
 10
3.668889
 20
19.431553
 30
0.0
 10
4.557999
 20
18.542443
 30
0.0
 10
5.819180
 20
18.542443
 30
0.0
 10
8.105069
 20
16.256553
 30
0.0
 10
6.717109
 20
16.256553
 30
0.0
 10
5.827999
 20
17.145663
 30
0.0
 10
4.557999
 20
17.145663
 30
0.0
 10
3.668889
 20
16.256553
 30
0.0
 10
3.668889
 20
14.986553
 30
0.0
 10
4.557999
 20
14.097443
 30
0.0
 10
5.827999
 20
14.097443
 30
0.0
 10
6.717109
 20
14.986553
 30
0.0
 10
8.099557
 20
14.986553
 30
0.0
 10
5.823590
 20
12.721609
 30
0.0
 10
4.557999
 20
12.721609
 30
0.0
 10
3.668889
 20
11.833050
 30
0.0
 10
3.668889
 20
10.563050
 30
0.0
 10
4.557999
 20
9.673940
 30
0.0
 10
5.827999
 20
9.673940
 30
0.0
 10
6.717109
 20
10.563050
 30
0.0
 10
6.717109
 20
11.819270
 30
0.0
 10
9.899275
 20
14.986553
 30
0.0
 10
14.442943
 20
14.986553
 30
0.0
 10
15.331502
 20
14.097443
 30
0.0
 10
15.331502
 20
12.086609
 30
0.0
 10
14.442943
 20
11.198050
 30
0.0
 10
10.999501
 20
11.198050
 30
0.0
 10
10.895321
 20
11.204114
 30
0.0
 10
10.666567
 20
11.153402
 30
0.0
 10
10.655542
 20
11.148992
 30
0.0
 10
10.643416
 20
11.143480
 30
0.0
 10
10.393715
 20
10.946696
 30
0.0
 10
8.993629
 20
9.546609
 30
0.0
 10
7.732999
 20
9.546609
 30
0.0
 10
6.843889
 20
8.658050
 30
0.0
 10
6.843889
 20
7.388050
 30
0.0
 10
7.732999
 20
6.498940
 30
0.0
 10
9.002999
 20
6.498940
 30
0.0
 10
9.892109
 20
7.388050
 30
0.0
 10
9.892109
 20
8.649231
 30
0.0
 10
11.170929
 20
9.928050
 30
0.0
 10
14.439084
 20
9.928050
 30
0.0
 10
11.092656
 20
6.565637
 30
0.0
 10
10.955955
 20
6.371609
 30
0.0
 10
10.907999
 20
6.371609
 30
0.0
 10
10.018889
 20
5.483050
 30
0.0
 10
10.018889
 20
4.213050
 30
0.0
 10
10.907999
 20
3.323939
 30
0.0
 10
12.177999
 20
3.323939
 30
0.0
 10
13.067109
 20
4.213050
 30
0.0
 10
13.067109
 20
5.483050
 30
0.0
 10
12.435417
 20
6.114743
 30
0.0
 10
15.331502
 20
9.024609
 30
0.0
 10
15.331502
 20
6.371609
 30
0.0
 10
14.442943
 20
5.483050
 30
0.0
 10
14.442943
 20
4.213050
 30
0.0
 10
15.331502
 20
3.323939
 30
0.0
 10
16.601502
 20
3.323939
 30
0.0
 10
17.490612
 20
4.213050
 30
0.0
 10
17.490612
 20
5.483050
 30
0.0
 10
16.601502
 20
6.371609
 30
0.0
 10
16.601502
 20
9.030121
 30
0.0
 10
19.518533
 20
6.113641
 30
0.0
 10
18.887943
 20
5.483050
 30
0.0
 10
18.887943
 20
4.213050
 30
0.0
 10
19.776502
 20
3.323939
 30
0.0
 10
21.046502
 20
3.323939
 30
0.0
 10
21.935612
 20
4.213050
 30
0.0
 10
21.935612
 20
5.483050
 30
0.0
 10
21.046502
 20
6.371609
 30
0.0
 10
20.998546
 20
6.371609
 30
0.0
 10
20.860742
 20
6.566740
 30
0.0
 10
17.499431
 20
9.928050
 30
0.0
 10
20.783572
 20
9.928050
 30
0.0
 10
22.062943
 20
8.648680
 30
0.0
 10
22.062943
 20
7.388050
 30
0.0
 10
22.951502
 20
6.498940
 30
0.0
 10
24.221502
 20
6.498940
 30
0.0
 10
25.110612
 20
7.388050
 30
0.0
 10
25.110612
 20
8.658050
 30
0.0
 10
24.221502
 20
9.546609
 30
0.0
 10
22.960872
 20
9.546609
 30
0.0
 10
21.559683
 20
10.947799
 30
0.0
 10
21.266988
 20
11.161670
 30
0.0
 10
21.039887
 20
11.204114
 30
0.0
 10
20.957756
 20
11.198050
 30
0.0
 10
17.490612
 20
11.198050
 30
0.0
 10
16.601502
 20
12.086609
 30
0.0
 10
16.601502
 20
14.097443
 30
0.0
 10
17.490612
 20
14.986553
 30
0.0
 10
22.055226
 20
14.986553
 30
0.0
 10
25.237943
 20
11.818719
 30
0.0
 10
25.237943
 20
10.563050
 30
0.0
 10
26.126502
 20
9.673940
 30
0.0
 10
27.396502
 20
9.673940
 30
0.0
 10
28.285612
 20
10.563050
 30
0.0
 10
28.285612
 20
11.833050
 30
0.0
 10
27.396502
 20
12.721609
 30
0.0
 10
26.130912
 20
12.721609
 30
0.0
 10
23.854944
 20
14.986553
 30
0.0
 10
25.237943
 20
14.986553
 30
0.0
 10
26.126502
 20
14.097443
 30
0.0
 10
27.396502
 20
14.097443
 30
0.0
 10
28.285612
 20
14.986553
 30
0.0
 10
28.285612
 20
16.256553
 30
0.0
 10
27.396502
 20
17.145663
 30
0.0
 10
26.126502
 20
17.145663
 30
0.0
 10
25.237943
 20
16.256553
 30
0.0
 10
23.849431
 20
16.256553
 30
0.0
 10
26.135321
 20
18.542443
 30
0.0
 10
27.396502
 20
18.542443
 30
0.0
 10
28.285612
 20
19.431553
 30
0.0
 10
28.285612
 20
20.701553
 30
0.0
 10
27.396502
 20
21.590663
 30
0.0
 10
26.126502
 20
21.590663
 30
0.0
 10
25.237943
 20
20.701553
 30
0.0
 10
25.237943
 20
19.440924
 30
0.0
 10
22.053572
 20
16.256553
 30
0.0
 10
17.490612
 20
16.256553
 30
0.0
 10
16.602053
 20
17.145112
 30
0.0
 10
16.602053
 20
19.177994
 30
0.0
 10
17.490612
 20
20.066553
 30
0.0
 10
20.957756
 20
20.066553
 30
0.0
 10
21.039887
 20
20.060490
 30
0.0
 10
21.224544
 20
20.088050
 30
0.0
 10
21.227300
 20
20.088602
 30
0.0
 10
21.235569
 20
20.091358
 30
0.0
 10
21.580629
 20
20.338302
 30
0.0
 10
22.960321
 20
21.717443
 30
0.0
 10
24.221502
 20
21.717443
 30
0.0
 10
25.110612
 20
22.606553
 30
0.0
 10
25.110612
 20
23.876553
 30
0.0
 10
24.221502
 20
24.765663
 30
0.0
 10
22.951502
 20
24.765663
 30
0.0
 10
22.062943
 20
23.876553
 30
0.0
 10
22.062943
 20
22.615924
 30
0.0
 10
20.784123
 20
21.336553
 30
0.0
 10
17.499431
 20
21.336553
 30
0.0
 10
20.860742
 20
24.697312
 30
0.0
 10
20.993585
 20
24.892443
 30
0.0
 10
21.046502
 20
24.892443
 30
0.0
 10
21.935612
 20
25.781553
 30
0.0
 10
21.935612
 20
27.051553
 30
0.0
 10
21.046502
 20
27.940663
 30
0.0
 10
19.776502
 20
27.940663
 30
0.0
 10
18.887943
 20
27.051553
 30
0.0
 10
18.887943
 20
25.781553
 30
0.0
 10
19.517982
 20
25.151514
 30
0.0
 10
16.602053
 20
22.234483
 30
0.0
 10
16.602053
 20
24.892994
 30
0.0
 10
17.490612
 20
25.781553
 30
0.0
 10
17.490612
 20
27.051553
 30
0.0
 10
16.601502
 20
27.940663
 30
0.0
 10
15.331502
 20
27.940663
 30
0.0
 10
14.442943
 20
27.051553
 30
0.0
 10
14.442943
 20
25.781553
 30
0.0
 10
15.331502
 20
24.892443
 30
0.0
 10
15.331502
 20
22.239995
 30
0.0
 10
12.435968
 20
25.150412
 30
0.0
 10
13.067109
 20
25.781553
 30
0.0
 10
13.067109
 20
27.051553
 30
0.0
 10
12.177999
 20
27.940663
 30
0.0
 10
10.907999
 20
27.940663
 30
0.0
 10
10.907999
 20
27.940663
 30
0.0
  0
LWPOLYLINE
  5
101
100
AcDbEntity
  8
Lines
 62
7
100
AcDbPolyline
 90
26
 70
1
 10
40.310175
 20
24.607733
 30
0.0
 10
40.310175
 20
22.327378
 30
0.0
 10
40.265480
 20
21.957592
 30
0.0
 10
40.137721
 20
21.632202
 30
0.0
 10
40.017423
 20
21.446705
 30
0.0
 10
39.881198
 20
21.288800
 30
0.0
 10
39.650269
 20
21.097643
 30
0.0
 10
39.369159
 20
20.952072
 30
0.0
 10
38.842620
 20
20.859822
 30
0.0
 10
38.018531
 20
20.859822
 30
0.0
 10
40.310175
 20
18.127911
 30
0.0
 10
40.310175
 20
17.958578
 30
0.0
 10
38.865198
 20
17.958578
 30
0.0
 10
36.426798
 20
20.859822
 30
0.0
 10
33.649731
 20
20.859822
 30
0.0
 10
33.401375
 20
20.882400
 30
0.0
 10
33.401375
 20
17.958578
 30
0.0
 10
32.182175
 20
17.958578
 30
0.0
 10
32.182175
 20
26.075289
 30
0.0
 10
38.842620
 20
26.075289
 30
0.0
 10
39.228350
 20
26.026530
 30
0.0
 10
39.491542
 20
25.925891
 30
0.0
 10
39.881198
 20
25.635022
 30
0.0
 10
40.060677
 20
25.421832
 30
0.0
 10
40.234187
 20
25.081371
 30
0.0
 10
40.310175
 20
24.607733
 30
0.0
  0
LWPOLYLINE
  5
102
100
AcDbEntity
  8
Lines
 62
7
100
AcDbPolyline
 90
13
 70
1
 10
33.649731
 20
22.079022
 30
0.0
 10
38.842620
 20
22.079022
 30
0.0
 10
39.011953
 20
22.146755
 30
0.0
 10
39.090975
 20
22.327378
 30
0.0
 10
39.090975
 20
24.607733
 30
0.0
 10
39.011953
 20
24.777067
 30
0.0
 10
38.842620
 20
24.856089
 30
0.0
 10
33.649731
 20
24.856089
 30
0.0
 10
33.469109
 20
24.777067
 30
0.0
 10
33.401375
 20
24.607733
 30
0.0
 10
33.401375
 20
22.327378
 30
0.0
 10
33.469109
 20
22.146755
 30
0.0
 10
33.649731
 20
22.079022
 30
0.0
  0
LWPOLYLINE
  5
103
100
AcDbEntity
  8
Lines
 62
7
100
AcDbPolyline
 90
29
 70
1
 10
42.909089
 20
24.506133
 30
0.0
 10
46.634423
 20
24.506133
 30
0.0
 10
47.048076
 20
24.451061
 30
0.0
 10
47.401274
 20
24.294742
 30
0.0
 10
47.673000
 20
24.077155
 30
0.0
 10
47.867022
 20
23.841949
 30
0.0
 10
48.023275
 20
23.527658
 30
0.0
 10
48.101978
 20
23.038578
 30
0.0
 10
48.101978
 20
19.426133
 30
0.0
 10
48.049087
 20
19.020298
 30
0.0
 10
47.885977
 20
18.651941
 30
0.0
 10
47.673000
 20
18.387555
 30
0.0
 10
47.454312
 20
18.204718
 30
0.0
 10
47.112380
 20
18.033494
 30
0.0
 10
46.634423
 20
17.958578
 30
0.0
 10
42.909089
 20
17.958578
 30
0.0
 10
42.476587
 20
18.019112
 30
0.0
 10
42.145492
 20
18.167946
 30
0.0
 10
41.870511
 20
18.387555
 30
0.0
 10
41.647023
 20
18.668834
 30
0.0
 10
41.505909
 20
18.980937
 30
0.0
 10
41.441534
 20
19.426133
 30
0.0
 10
41.441534
 20
23.038578
 30
0.0
 10
41.502646
 20
23.473018
 30
0.0
 10
41.658244
 20
23.813886
 30
0.0
 10
41.870511
 20
24.077155
 30
0.0
 10
42.112054
 20
24.275380
 30
0.0
 10
42.428569
 20
24.430354
 30
0.0
 10
42.909089
 20
24.506133
 30
0.0
  0
LWPOLYLINE
  5
104
100
AcDbEntity
  8
Lines
 62
7
100
AcDbPolyline
 90
13
 70
1
 10
46.634423
 20
23.286933
 30
0.0
 10
42.909089
 20
23.286933
 30
0.0
 10
42.728467
 20
23.207911
 30
0.0
 10
42.660734
 20
23.038578
 30
0.0
 10
42.660734
 20
19.426133
 30
0.0
 10
42.728467
 20
19.245511
 30
0.0
 10
42.909089
 20
19.177778
 30
0.0
 10
46.634423
 20
19.177778
 30
0.0
 10
46.803756
 20
19.245511
 30
0.0
 10
46.882778
 20
19.426133
 30
0.0
 10
46.882778
 20
23.038578
 30
0.0
 10
46.803756
 20
23.207911
 30
0.0
 10
46.634423
 20
23.286933
 30
0.0
  0
LWPOLYLINE
  5
105
100
AcDbEntity
  8
Lines
 62
7
100
AcDbPolyline
 90
8
 70
1
 10
55.555467
 20
24.506133
 30
0.0
 10
56.955289
 20
24.506133
 30
0.0
 10
53.342845
 20
17.958578
 30
0.0
 10
52.123645
 20
17.958578
 30
0.0
 10
48.511200
 20
24.506133
 30
0.0
 10
49.922311
 20
24.506133
 30
0.0
 10
52.733245
 20
19.335822
 30
0.0
 10
55.555467
 20
24.506133
 30
0.0
  0
LWPOLYLINE
  5
106
100
AcDbEntity
  8
Lines
 62
7
100
AcDbPolyline
 90
29
 70
1
 10
62.244839
 20
24.506133
 30
0.0
 10
62.734613
 20
24.427191
 30
0.0
 10
63.031079
 20
24.282428
 30
0.0
 10
63.283417
 20
24.077155
 30
0.0
 10
63.473632
 20
23.847624
 30
0.0
 10
63.627152
 20
23.546165
 30
0.0
 10
63.712395
 20
23.038578
 30
0.0
 10
63.712395
 20
20.622755
 30
0.0
 10
58.271150
 20
20.622755
 30
0.0
 10
58.271150
 20
19.426133
 30
0.0
 10
58.338884
 20
19.245511
 30
0.0
 10
58.519506
 20
19.177778
 30
0.0
 10
63.712395
 20
19.177778
 30
0.0
 10
63.712395
 20
17.958578
 30
0.0
 10
58.519506
 20
17.958578
 30
0.0
 10
58.123415
 20
18.008820
 30
0.0
 10
57.783671
 20
18.151176
 30
0.0
 10
57.480928
 20
18.387555
 30
0.0
 10
57.261399
 20
18.662408
 30
0.0
 10
57.110859
 20
18.999136
 30
0.0
 10
57.051950
 20
19.426133
 30
0.0
 10
57.051950
 20
23.038578
 30
0.0
 10
57.103256
 20
23.438609
 30
0.0
 10
57.256595
 20
23.794501
 30
0.0
 10
57.480928
 20
24.077155
 30
0.0
 10
57.733571
 20
24.282625
 30
0.0
 10
58.081954
 20
24.444087
 30
0.0
 10
58.519506
 20
24.506133
 30
0.0
 10
62.244839
 20
24.506133
 30
0.0
  0
LWPOLYLINE
  5
107
100
AcDbEntity
  8
Lines
 62
7
100
AcDbPolyline
 90
9
 70
1
 10
58.271150
 20
21.841955
 30
0.0
 10
62.493195
 20
21.841955
 30
0.0
 10
62.493195
 20
23.038578
 30
0.0
 10
62.414173
 20
23.207911
 30
0.0
 10
62.244839
 20
23.286933
 30
0.0
 10
58.519506
 20
23.286933
 30
0.0
 10
58.338884
 20
23.207911
 30
0.0
 10
58.271150
 20
23.038578
 30
0.0
 10
58.271150
 20
21.841955
 30
0.0
  0
LWPOLYLINE
  5
108
100
AcDbEntity
  8
Lines
 62
7
100
AcDbPolyline
 90
16
 70
1
 10
66.115517
 20
24.506133
 30
0.0
 10
69.773117
 20
24.506133
 30
0.0
 10
69.773117
 20
23.286933
 30
0.0
 10
66.115517
 20
23.286933
 30
0.0
 10
65.934895
 20
23.207911
 30
0.0
 10
65.867161
 20
23.038578
 30
0.0
 10
65.867161
 20
17.958578
 30
0.0
 10
64.647961
 20
17.958578
 30
0.0
 10
64.647961
 20
19.426133
 30
0.0
 10
64.647961
 20
23.038578
 30
0.0
 10
64.712839
 20
23.485396
 30
0.0
 10
64.850270
 20
23.790662
 30
0.0
 10
65.076939
 20
24.077155
 30
0.0
 10
65.378491
 20
24.312834
 30
0.0
 10
65.719542
 20
24.455922
 30
0.0
 10
66.115517
 20
24.506133
 30
0.0
  0
LWPOLYLINE
  5
109
100
AcDbEntity
  8
Lines
 62
7
100
AcDbPolyline
 90
17
 70
1
 10
47.193048
 20
15.913736
 30
0.0
 10
48.491270
 20
15.913736
 30
0.0
 10
45.533581
 20
7.785736
 30
0.0
 10
44.540159
 20
7.785736
 30
0.0
 10
42.225936
 20
14.118803
 30
0.0
 10
39.923003
 20
7.785736
 30
0.0
 10
39.900425
 20
7.797025
 30
0.0
 10
39.911714
 20
7.785736
 30
0.0
 10
38.929581
 20
7.785736
 30
0.0
 10
35.971892
 20
15.913736
 30
0.0
 10
37.270114
 20
15.913736
 30
0.0
 10
39.426292
 20
9.987069
 30
0.0
 10
41.582470
 20
15.913736
 30
0.0
 10
42.880692
 20
15.913736
 30
0.0
 10
45.036870
 20
9.987069
 30
0.0
 10
47.193048
 20
15.913736
 30
0.0
 10
47.193048
 20
15.913736
 30
0.0
  0
LWPOLYLINE
  5
10a
100
AcDbEntity
  8
Lines
 62
7
100
AcDbPolyline
 90
6
 70
1
 10
49.415020
 20
7.785736
 30
0.0
 10
49.415020
 20
14.333292
 30
0.0
 10
50.634220
 20
14.333292
 30
0.0
 10
50.634220
 20
7.785736
 30
0.0
 10
49.415020
 20
7.785736
 30
0.0
 10
49.415020
 20
7.785736
 30
0.0
  0
LWPOLYLINE
  5
10b
100
AcDbEntity
  8
Lines
 62
7
100
AcDbPolyline
 90
6
 70
1
 10
49.415020
 20
16.478180
 30
0.0
 10
50.634220
 20
16.478180
 30
0.0
 10
50.634220
 20
15.258980
 30
0.0
 10
49.415020
 20
15.258980
 30
0.0
 10
49.415020
 20
16.478180
 30
0.0
 10
49.415020
 20
16.478180
 30
0.0
  0
LWPOLYLINE
  5
10c
100
AcDbEntity
  8
Lines
 62
7
100
AcDbPolyline
 90
19
 70
1
 10
56.813298
 20
14.333292
 30
0.0
 10
57.264077
 20
14.267183
 30
0.0
 10
57.569295
 20
14.128600
 30
0.0
 10
57.851875
 20
13.904314
 30
0.0
 10
58.030652
 20
13.691500
 30
0.0
 10
58.200490
 20
13.359595
 30
0.0
 10
58.280853
 20
12.865736
 30
0.0
 10
58.280853
 20
7.785736
 30
0.0
 10
57.061653
 20
7.785736
 30
0.0
 10
57.061653
 20
12.865736
 30
0.0
 10
56.982631
 20
13.035069
 30
0.0
 10
56.813298
 20
13.114092
 30
0.0
 10
53.087964
 20
13.114092
 30
0.0
 10
52.907342
 20
13.035069
 30
0.0
 10
52.839609
 20
12.865736
 30
0.0
 10
52.839609
 20
7.785736
 30
0.0
 10
51.620409
 20
7.785736
 30
0.0
 10
51.620409
 20
14.333292
 30
0.0
 10
56.813298
 20
14.333292
 30
0.0
  0
LWPOLYLINE
  5
10d
100
AcDbEntity
  8
Lines
 62
7
100
AcDbPolyline
 90
37
 70
1
 10
65.983403
 20
10.280580
 30
0.0
 10
65.983403
 20
10.269292
 30
0.0
 10
65.983403
 20
6.656847
 30
0.0
 10
65.926468
 20
6.236649
 30
0.0
 10
65.780900
 20
5.904440
 30
0.0
 10
65.554425
 20
5.618269
 30
0.0
 10
65.380032
 20
5.467113
 30
0.0
 10
65.032752
 20
5.277938
 30
0.0
 10
64.515848
 20
5.189292
 30
0.0
 10
60.474425
 20
5.189292
 30
0.0
 10
60.474425
 20
6.408492
 30
0.0
 10
64.515848
 20
6.408492
 30
0.0
 10
64.685181
 20
6.487514
 30
0.0
 10
64.764203
 20
6.656847
 30
0.0
 10
64.764203
 20
7.785736
 30
0.0
 10
60.790514
 20
7.785736
 30
0.0
 10
60.298683
 20
7.865392
 30
0.0
 10
59.953742
 20
8.043658
 30
0.0
 10
59.751936
 20
8.214714
 30
0.0
 10
59.552724
 20
8.457758
 30
0.0
 10
59.400367
 20
8.767983
 30
0.0
 10
59.322959
 20
9.253292
 30
0.0
 10
59.322959
 20
12.865736
 30
0.0
 10
59.412655
 20
13.385466
 30
0.0
 10
59.592695
 20
13.718941
 30
0.0
 10
59.751936
 20
13.904314
 30
0.0
 10
60.032654
 20
14.127461
 30
0.0
 10
60.330898
 20
14.264388
 30
0.0
 10
60.790514
 20
14.333292
 30
0.0
 10
64.515848
 20
14.333292
 30
0.0
 10
64.957308
 20
14.270060
 30
0.0
 10
65.287206
 20
14.119076
 30
0.0
 10
65.554425
 20
13.904314
 30
0.0
 10
65.778484
 20
13.622105
 30
0.0
 10
65.942269
 20
13.225953
 30
0.0
 10
65.983403
 20
12.865736
 30
0.0
 10
65.983403
 20
10.280580
 30
0.0
  0
LWPOLYLINE
  5
10e
100
AcDbEntity
  8
Lines
 62
7
100
AcDbPolyline
 90
13
 70
1
 10
60.790514
 20
9.004936
 30
0.0
 10
64.515848
 20
9.004936
 30
0.0
 10
64.685181
 20
9.072669
 30
0.0
 10
64.764203
 20
9.253292
 30
0.0
 10
64.764203
 20
12.865736
 30
0.0
 10
64.685181
 20
13.035069
 30
0.0
 10
64.515848
 20
13.114092
 30
0.0
 10
60.790514
 20
13.114092
 30
0.0
 10
60.609892
 20
13.035069
 30
0.0
 10
60.542159
 20
12.865736
 30
0.0
 10
60.542159
 20
9.253292
 30
0.0
 10
60.609892
 20
9.072669
 30
0.0
 10
60.790514
 20
9.004936
 30
0.0
  0
ENDSEC
  0
SECTION
  2
OBJECTS
  0
DICTIONARY
  5
C
330
0
100
AcDbDictionary
  3
ACAD_GROUP
350
D
  3
ACAD_MLINESTYLE
350
17
  0
DICTIONARY
  5
D
330
C
100
AcDbDictionary
  0
DICTIONARY
  5
1A
330
C
100
AcDbDictionary
  0
DICTIONARY
  5
17
330
C
100
AcDbDictionary
  3
STANDARD
350
18
  0
DICTIONARY
  5
19
330
C
100
AcDbDictionary
  0
ENDSEC
  0
EOF
