  0
SECTION
  2
HEADER
  9
$ACADVER
  1
AC1009
  9
$FILLMODE
 70
1
  9
$EXTMIN
 10
-47.7118
 20
-57.6410
 30
0.0000
  9
$EXTMAX
 10
48.9135
 20
45.8939
 30
0.0000
  0
ENDSEC
  0
SECTION
  2
TABLES
  0
TABLE
  2
LTYPE
 70
1
  0
LTYPE
  2
CONTINUOUS
 70
64
  3
Solid line
 72
65
 73
0
 40
0
  0
ENDTAB
  0
TABLE
  2
LAYER
 70
255
  0
LAYER
  2
44
 70
64
 62
253
  6
CONTINUOUS
  0
ENDTAB
  0
ENDSEC
  0
SECTION
  2
BLOCKS
  0
BLOCK
  8
0
  2
RECT
 70
64
 10
0.0000
 20
0.0000
 30
0.0000
  3
RECT
  0
SOLID
  8
0
 10
-0.5000
 20
-0.5000
 30
0.0000
 11
0.5000
 21
-0.5000
 31
0.0000
 12
-0.5000
 22
0.5000
 32
0.0000
 13
0.5000
 23
0.5000
 33
0.0000
  0
ENDBLK
  8
0
  0
BLOCK
  8
0
  2
PIE
 70
64
 10
0.0000
 20
0.0000
 30
0.0000
  3
PIE
  0
POLYLINE
  8
0
 66
1
 10
0.0000
 20
0.0000
 30
0.0000
 40
0.5000
 41
0.5000
 70
0
  0
VERTEX
  8
0
 10
0.0000
 20
-0.2500
 30
0.0000
 42
1.0000
  0
VERTEX
  8
0
 10
0.0000
 20
0.2500
 30
0.0000
 42
1.0000
  0
VERTEX
  8
0
 10
0.0000
 20
-0.2500
 30
0.0000
  0
SEQEND
  8
0
  0
ENDBLK
  8
0
  0
BLOCK
  8
0
  2
OCTAGONP
 70
64
 10
0.0000
 20
0.0000
 30
0.0000
  3
OCTAGONP
  0
POLYLINE
  8
0
 66
1
 10
0.0000
 20
0.0000
 30
0.0000
 40
0.5000
 41
0.5000
 70
0
  0
VERTEX
  8
0
 10
-0.2500
 20
-0.1036
 30
0.0000
  0
VERTEX
  8
0
 10
-0.2500
 20
0.1036
 30
0.0000
  0
VERTEX
  8
0
 10
-0.1036
 20
0.2500
 30
0.0000
  0
VERTEX
  8
0
 10
0.1036
 20
0.2500
 30
0.0000
  0
VERTEX
  8
0
 10
0.2500
 20
0.1036
 30
0.0000
  0
VERTEX
  8
0
 10
0.2500
 20
-0.1036
 30
0.0000
  0
VERTEX
  8
0
 10
0.1036
 20
-0.2500
 30
0.0000
  0
VERTEX
  8
0
 10
-0.1036
 20
-0.2500
 30
0.0000
  0
VERTEX
  8
0
 10
-0.2500
 20
-0.1036
 30
0.0000
  0
VERTEX
  8
0
 10
-0.2500
 20
0.1036
 30
0.0000
  0
SEQEND
  8
0
  0
ENDBLK
  8
0
  0
BLOCK
  8
0
  2
SQUAREP
 70
64
 10
0.0000
 20
0.0000
 30
0.0000
  3
SQUAREP
  0
SOLID
  8
0
 10
-0.5000
 20
-0.5000
 30
0.0000
 11
0.5000
 21
-0.5000
 31
0.0000
 12
-0.5000
 22
0.5000
 32
0.0000
 13
0.5000
 23
0.5000
 33
0.0000
  0
ENDBLK
  8
0
  0
BLOCK
  8
0
  2
ROUNDP
 70
64
 10
0.0000
 20
0.0000
 30
0.0000
  3
ROUNDP
  0
POLYLINE
  8
0
 66
1
 10
0.0000
 20
0.0000
 30
0.0000
 40
0.5000
 41
0.5000
 70
0
  0
VERTEX
  8
0
 10
0.0000
 20
-0.2500
 30
0.0000
 42
1.0000
  0
VERTEX
  8
0
 10
0.0000
 20
0.2500
 30
0.0000
 42
1.0000
  0
VERTEX
  8
0
 10
0.0000
 20
-0.2500
 30
0.0000
  0
SEQEND
  8
0
  0
ENDBLK
  8
0
  0
BLOCK
  8
0
  2
ANNULUSP
 70
64
 10
0.0000
 20
0.0000
 30
0.0000
  3
ANNULUSP
  0
POLYLINE
  8
0
 66
1
 10
0.0000
 20
0.0000
 30
0.0000
 40
0.5000
 41
0.5000
 70
0
  0
VERTEX
  8
0
 10
0.0000
 20
-0.2500
 30
0.0000
 42
1.0000
  0
VERTEX
  8
0
 10
0.0000
 20
0.2500
 30
0.0000
 42
1.0000
  0
VERTEX
  8
0
 10
0.0000
 20
-0.2500
 30
0.0000
  0
SEQEND
  8
0
  0
ENDBLK
  8
0
  0
BLOCK
  8
0
  2
THERMALP
 70
64
 10
0.0000
 20
0.0000
 30
0.0000
  3
THERMALP
  0
POLYLINE
  8
0
 66
1
 10
0.0000
 20
0.0000
 30
0.0000
 40
0.1000
 41
0.1000
 70
0
  0
VERTEX
  8
0
 10
-0.2379
 20
0.4500
 30
0.0000
  0
VERTEX
  8
0
 10
0.2379
 20
0.4500
 30
0.0000
  0
SEQEND
  8
0
  0
POLYLINE
  8
0
 66
1
 10
0.0000
 20
0.0000
 30
0.0000
 40
0.0500
 41
0.0500
 70
0
  0
VERTEX
  8
0
 10
0.2379
 20
0.4250
 30
0.0000
 42
1.0000
  0
VERTEX
  8
0
 10
0.2379
 20
0.4750
 30
0.0000
  0
SEQEND
  8
0
  0
POLYLINE
  8
0
 66
1
 10
0.0000
 20
0.0000
 30
0.0000
 40
0.0500
 41
0.0500
 70
0
  0
VERTEX
  8
0
 10
-0.2379
 20
0.4750
 30
0.0000
 42
1.0000
  0
VERTEX
  8
0
 10
-0.2379
 20
0.4250
 30
0.0000
  0
SEQEND
  8
0
  0
POLYLINE
  8
0
 66
1
 10
0.0000
 20
0.0000
 30
0.0000
 40
0.1000
 41
0.1000
 70
0
  0
VERTEX
  8
0
 10
0.4500
 20
0.2379
 30
0.0000
  0
VERTEX
  8
0
 10
0.4500
 20
-0.2379
 30
0.0000
  0
SEQEND
  8
0
  0
POLYLINE
  8
0
 66
1
 10
0.0000
 20
0.0000
 30
0.0000
 40
0.0500
 41
0.0500
 70
0
  0
VERTEX
  8
0
 10
0.4250
 20
-0.2379
 30
0.0000
 42
1.0000
  0
VERTEX
  8
0
 10
0.4750
 20
-0.2379
 30
0.0000
  0
SEQEND
  8
0
  0
POLYLINE
  8
0
 66
1
 10
0.0000
 20
0.0000
 30
0.0000
 40
0.0500
 41
0.0500
 70
0
  0
VERTEX
  8
0
 10
0.4750
 20
0.2379
 30
0.0000
 42
1.0000
  0
VERTEX
  8
0
 10
0.4250
 20
0.2379
 30
0.0000
  0
SEQEND
  8
0
  0
POLYLINE
  8
0
 66
1
 10
0.0000
 20
0.0000
 30
0.0000
 40
0.1000
 41
0.1000
 70
0
  0
VERTEX
  8
0
 10
0.2379
 20
-0.4500
 30
0.0000
  0
VERTEX
  8
0
 10
-0.2379
 20
-0.4500
 30
0.0000
  0
SEQEND
  8
0
  0
POLYLINE
  8
0
 66
1
 10
0.0000
 20
0.0000
 30
0.0000
 40
0.0500
 41
0.0500
 70
0
  0
VERTEX
  8
0
 10
-0.2379
 20
-0.4250
 30
0.0000
 42
1.0000
  0
VERTEX
  8
0
 10
-0.2379
 20
-0.4750
 30
0.0000
  0
SEQEND
  8
0
  0
POLYLINE
  8
0
 66
1
 10
0.0000
 20
0.0000
 30
0.0000
 40
0.0500
 41
0.0500
 70
0
  0
VERTEX
  8
0
 10
0.2379
 20
-0.4750
 30
0.0000
 42
1.0000
  0
VERTEX
  8
0
 10
0.2379
 20
-0.4250
 30
0.0000
  0
SEQEND
  8
0
  0
POLYLINE
  8
0
 66
1
 10
0.0000
 20
0.0000
 30
0.0000
 40
0.1000
 41
0.1000
 70
0
  0
VERTEX
  8
0
 10
-0.4500
 20
-0.2379
 30
0.0000
  0
VERTEX
  8
0
 10
-0.4500
 20
0.2379
 30
0.0000
  0
SEQEND
  8
0
  0
POLYLINE
  8
0
 66
1
 10
0.0000
 20
0.0000
 30
0.0000
 40
0.0500
 41
0.0500
 70
0
  0
VERTEX
  8
0
 10
-0.4250
 20
0.2379
 30
0.0000
 42
1.0000
  0
VERTEX
  8
0
 10
-0.4750
 20
0.2379
 30
0.0000
  0
SEQEND
  8
0
  0
POLYLINE
  8
0
 66
1
 10
0.0000
 20
0.0000
 30
0.0000
 40
0.0500
 41
0.0500
 70
0
  0
VERTEX
  8
0
 10
-0.4750
 20
-0.2379
 30
0.0000
 42
1.0000
  0
VERTEX
  8
0
 10
-0.4250
 20
-0.2379
 30
0.0000
  0
SEQEND
  8
0
  0
ENDBLK
  8
0
  0
BLOCK
  8
0
  2
OCTAGONV
 70
64
 10
0.0000
 20
0.0000
 30
0.0000
  3
OCTAGONV
  0
POLYLINE
  8
0
 66
1
 10
0.0000
 20
0.0000
 30
0.0000
 40
0.5000
 41
0.5000
 70
0
  0
VERTEX
  8
0
 10
-0.2500
 20
-0.1036
 30
0.0000
  0
VERTEX
  8
0
 10
-0.2500
 20
0.1036
 30
0.0000
  0
VERTEX
  8
0
 10
-0.1036
 20
0.2500
 30
0.0000
  0
VERTEX
  8
0
 10
0.1036
 20
0.2500
 30
0.0000
  0
VERTEX
  8
0
 10
0.2500
 20
0.1036
 30
0.0000
  0
VERTEX
  8
0
 10
0.2500
 20
-0.1036
 30
0.0000
  0
VERTEX
  8
0
 10
0.1036
 20
-0.2500
 30
0.0000
  0
VERTEX
  8
0
 10
-0.1036
 20
-0.2500
 30
0.0000
  0
VERTEX
  8
0
 10
-0.2500
 20
-0.1036
 30
0.0000
  0
VERTEX
  8
0
 10
-0.2500
 20
0.1036
 30
0.0000
  0
SEQEND
  8
0
  0
ENDBLK
  8
0
  0
BLOCK
  8
0
  2
SQUAREV
 70
64
 10
0.0000
 20
0.0000
 30
0.0000
  3
SQUAREV
  0
SOLID
  8
0
 10
-0.5000
 20
-0.5000
 30
0.0000
 11
0.5000
 21
-0.5000
 31
0.0000
 12
-0.5000
 22
0.5000
 32
0.0000
 13
0.5000
 23
0.5000
 33
0.0000
  0
ENDBLK
  8
0
  0
BLOCK
  8
0
  2
ROUNDV
 70
64
 10
0.0000
 20
0.0000
 30
0.0000
  3
ROUNDV
  0
POLYLINE
  8
0
 66
1
 10
0.0000
 20
0.0000
 30
0.0000
 40
0.5000
 41
0.5000
 70
0
  0
VERTEX
  8
0
 10
0.0000
 20
-0.2500
 30
0.0000
 42
1.0000
  0
VERTEX
  8
0
 10
0.0000
 20
0.2500
 30
0.0000
 42
1.0000
  0
VERTEX
  8
0
 10
0.0000
 20
-0.2500
 30
0.0000
  0
SEQEND
  8
0
  0
ENDBLK
  8
0
  0
BLOCK
  8
0
  2
ANNULUSV
 70
64
 10
0.0000
 20
0.0000
 30
0.0000
  3
ANNULUSV
  0
POLYLINE
  8
0
 66
1
 10
0.0000
 20
0.0000
 30
0.0000
 40
0.5000
 41
0.5000
 70
0
  0
VERTEX
  8
0
 10
0.0000
 20
-0.2500
 30
0.0000
 42
1.0000
  0
VERTEX
  8
0
 10
0.0000
 20
0.2500
 30
0.0000
 42
1.0000
  0
VERTEX
  8
0
 10
0.0000
 20
-0.2500
 30
0.0000
  0
SEQEND
  8
0
  0
ENDBLK
  8
0
  0
BLOCK
  8
0
  2
THERMALV
 70
64
 10
0.0000
 20
0.0000
 30
0.0000
  3
THERMALV
  0
POLYLINE
  8
0
 66
1
 10
0.0000
 20
0.0000
 30
0.0000
 40
0.1000
 41
0.1000
 70
0
  0
VERTEX
  8
0
 10
-0.2379
 20
0.4500
 30
0.0000
  0
VERTEX
  8
0
 10
0.2379
 20
0.4500
 30
0.0000
  0
SEQEND
  8
0
  0
POLYLINE
  8
0
 66
1
 10
0.0000
 20
0.0000
 30
0.0000
 40
0.0500
 41
0.0500
 70
0
  0
VERTEX
  8
0
 10
0.2379
 20
0.4250
 30
0.0000
 42
1.0000
  0
VERTEX
  8
0
 10
0.2379
 20
0.4750
 30
0.0000
  0
SEQEND
  8
0
  0
POLYLINE
  8
0
 66
1
 10
0.0000
 20
0.0000
 30
0.0000
 40
0.0500
 41
0.0500
 70
0
  0
VERTEX
  8
0
 10
-0.2379
 20
0.4750
 30
0.0000
 42
1.0000
  0
VERTEX
  8
0
 10
-0.2379
 20
0.4250
 30
0.0000
  0
SEQEND
  8
0
  0
POLYLINE
  8
0
 66
1
 10
0.0000
 20
0.0000
 30
0.0000
 40
0.1000
 41
0.1000
 70
0
  0
VERTEX
  8
0
 10
0.4500
 20
0.2379
 30
0.0000
  0
VERTEX
  8
0
 10
0.4500
 20
-0.2379
 30
0.0000
  0
SEQEND
  8
0
  0
POLYLINE
  8
0
 66
1
 10
0.0000
 20
0.0000
 30
0.0000
 40
0.0500
 41
0.0500
 70
0
  0
VERTEX
  8
0
 10
0.4250
 20
-0.2379
 30
0.0000
 42
1.0000
  0
VERTEX
  8
0
 10
0.4750
 20
-0.2379
 30
0.0000
  0
SEQEND
  8
0
  0
POLYLINE
  8
0
 66
1
 10
0.0000
 20
0.0000
 30
0.0000
 40
0.0500
 41
0.0500
 70
0
  0
VERTEX
  8
0
 10
0.4750
 20
0.2379
 30
0.0000
 42
1.0000
  0
VERTEX
  8
0
 10
0.4250
 20
0.2379
 30
0.0000
  0
SEQEND
  8
0
  0
POLYLINE
  8
0
 66
1
 10
0.0000
 20
0.0000
 30
0.0000
 40
0.1000
 41
0.1000
 70
0
  0
VERTEX
  8
0
 10
0.2379
 20
-0.4500
 30
0.0000
  0
VERTEX
  8
0
 10
-0.2379
 20
-0.4500
 30
0.0000
  0
SEQEND
  8
0
  0
POLYLINE
  8
0
 66
1
 10
0.0000
 20
0.0000
 30
0.0000
 40
0.0500
 41
0.0500
 70
0
  0
VERTEX
  8
0
 10
-0.2379
 20
-0.4250
 30
0.0000
 42
1.0000
  0
VERTEX
  8
0
 10
-0.2379
 20
-0.4750
 30
0.0000
  0
SEQEND
  8
0
  0
POLYLINE
  8
0
 66
1
 10
0.0000
 20
0.0000
 30
0.0000
 40
0.0500
 41
0.0500
 70
0
  0
VERTEX
  8
0
 10
0.2379
 20
-0.4750
 30
0.0000
 42
1.0000
  0
VERTEX
  8
0
 10
0.2379
 20
-0.4250
 30
0.0000
  0
SEQEND
  8
0
  0
POLYLINE
  8
0
 66
1
 10
0.0000
 20
0.0000
 30
0.0000
 40
0.1000
 41
0.1000
 70
0
  0
VERTEX
  8
0
 10
-0.4500
 20
-0.2379
 30
0.0000
  0
VERTEX
  8
0
 10
-0.4500
 20
0.2379
 30
0.0000
  0
SEQEND
  8
0
  0
POLYLINE
  8
0
 66
1
 10
0.0000
 20
0.0000
 30
0.0000
 40
0.0500
 41
0.0500
 70
0
  0
VERTEX
  8
0
 10
-0.4250
 20
0.2379
 30
0.0000
 42
1.0000
  0
VERTEX
  8
0
 10
-0.4750
 20
0.2379
 30
0.0000
  0
SEQEND
  8
0
  0
POLYLINE
  8
0
 66
1
 10
0.0000
 20
0.0000
 30
0.0000
 40
0.0500
 41
0.0500
 70
0
  0
VERTEX
  8
0
 10
-0.4750
 20
-0.2379
 30
0.0000
 42
1.0000
  0
VERTEX
  8
0
 10
-0.4250
 20
-0.2379
 30
0.0000
  0
SEQEND
  8
0
  0
ENDBLK
  8
0
  0
BLOCK
  8
0
  2
LONGP100
 70
64
 10
0.0000
 20
0.0000
 30
0.0000
  3
LONGP100
  0
POLYLINE
  8
0
 66
1
 10
0.0000
 20
0.0000
 30
0.0000
 40
1.0000
 41
1.0000
 70
0
  0
VERTEX
  8
0
 10
-0.5000
 20
0.0000
 30
0.0000
  0
VERTEX
  8
0
 10
0.5000
 20
0.0000
 30
0.0000
  0
SEQEND
  8
0
  0
POLYLINE
  8
0
 66
1
 10
0.0000
 20
0.0000
 30
0.0000
 40
0.5000
 41
0.5000
 70
0
  0
VERTEX
  8
0
 10
0.5000
 20
-0.2500
 30
0.0000
 42
1.0000
  0
VERTEX
  8
0
 10
0.5000
 20
0.2500
 30
0.0000
  0
SEQEND
  8
0
  0
POLYLINE
  8
0
 66
1
 10
0.0000
 20
0.0000
 30
0.0000
 40
0.5000
 41
0.5000
 70
0
  0
VERTEX
  8
0
 10
-0.5000
 20
0.2500
 30
0.0000
 42
1.0000
  0
VERTEX
  8
0
 10
-0.5000
 20
-0.2500
 30
0.0000
  0
SEQEND
  8
0
  0
ENDBLK
  8
0
  0
ENDSEC
  0
SECTION
  2
ENTITIES
  0
CIRCLE
  8
44
 10
-8.1280
 20
-16.5100
 30
0.0000
 40
0.1968
  0
CIRCLE
  8
44
 10
-1.5240
 20
-2.5400
 30
0.0000
 40
0.1968
  0
CIRCLE
  8
44
 10
6.6040
 20
-16.5100
 30
0.0000
 40
0.1750
  0
CIRCLE
  8
44
 10
-3.9370
 20
-11.1760
 30
0.0000
 40
0.1968
  0
CIRCLE
  8
44
 10
5.2070
 20
14.7320
 30
0.0000
 40
0.1968
  0
CIRCLE
  8
44
 10
-5.5880
 20
22.2250
 30
0.0000
 40
0.1750
  0
CIRCLE
  8
44
 10
7.6200
 20
-11.1760
 30
0.0000
 40
0.1750
  0
CIRCLE
  8
44
 10
1.0160
 20
-11.1760
 30
0.0000
 40
0.1750
  0
CIRCLE
  8
44
 10
-0.5080
 20
22.2250
 30
0.0000
 40
0.1750
  0
CIRCLE
  8
44
 10
-2.2860
 20
-29.7180
 30
0.0000
 40
0.1750
  0
CIRCLE
  8
44
 10
7.3660
 20
-25.6540
 30
0.0000
 40
0.1750
  0
CIRCLE
  8
44
 10
8.1280
 20
-25.6540
 30
0.0000
 40
0.1750
  0
CIRCLE
  8
44
 10
8.8900
 20
-25.6540
 30
0.0000
 40
0.1750
  0
CIRCLE
  8
44
 10
3.3020
 20
22.2250
 30
0.0000
 40
0.1750
  0
CIRCLE
  8
44
 10
5.2070
 20
22.2250
 30
0.0000
 40
0.1750
  0
CIRCLE
  8
44
 10
-3.5560
 20
16.7640
 30
0.0000
 40
0.1750
  0
CIRCLE
  8
44
 10
-15.2400
 20
4.5720
 30
0.0000
 40
0.1968
  0
CIRCLE
  8
44
 10
2.2860
 20
-31.6230
 30
0.0000
 40
0.1750
  0
CIRCLE
  8
44
 10
-15.2400
 20
3.5560
 30
0.0000
 40
0.1750
  0
CIRCLE
  8
44
 10
-16.7640
 20
6.8580
 30
0.0000
 40
0.1750
  0
CIRCLE
  8
44
 10
-20.5740
 20
4.8260
 30
0.0000
 40
0.1750
  0
CIRCLE
  8
44
 10
-18.0340
 20
6.8580
 30
0.0000
 40
0.1750
  0
CIRCLE
  8
44
 10
-19.3040
 20
6.8580
 30
0.0000
 40
0.1750
  0
CIRCLE
  8
44
 10
-15.1130
 20
-8.7630
 30
0.0000
 40
0.1750
  0
CIRCLE
  8
44
 10
18.4150
 20
30.2260
 30
0.0000
 40
0.1750
  0
CIRCLE
  8
44
 10
-15.2400
 20
5.5880
 30
0.0000
 40
0.1750
  0
CIRCLE
  8
44
 10
-15.2400
 20
6.6040
 30
0.0000
 40
0.1750
  0
CIRCLE
  8
44
 10
-20.5740
 20
8.1280
 30
0.0000
 40
0.1750
  0
CIRCLE
  8
44
 10
-19.3040
 20
8.1280
 30
0.0000
 40
0.1750
  0
CIRCLE
  8
44
 10
-20.5740
 20
6.8580
 30
0.0000
 40
0.1750
  0
CIRCLE
  8
44
 10
-18.0340
 20
8.1280
 30
0.0000
 40
0.1750
  0
CIRCLE
  8
44
 10
-16.7640
 20
8.1280
 30
0.0000
 40
0.1750
  0
CIRCLE
  8
44
 10
0.3810
 20
-29.7180
 30
0.0000
 40
0.1750
  0
CIRCLE
  8
44
 10
-20.4470
 20
18.2880
 30
0.0000
 40
0.1968
  0
CIRCLE
  8
44
 10
-19.6850
 20
19.0500
 30
0.0000
 40
0.1968
  0
CIRCLE
  8
44
 10
-18.7960
 20
-18.7960
 30
0.0000
 40
0.1750
  0
CIRCLE
  8
44
 10
-17.6530
 20
-19.9390
 30
0.0000
 40
0.1750
  0
CIRCLE
  8
44
 10
-19.8120
 20
17.6530
 30
0.0000
 40
0.1968
  0
CIRCLE
  8
44
 10
-19.0500
 20
18.2880
 30
0.0000
 40
0.1968
  0
CIRCLE
  8
44
 10
6.8580
 20
-0.8890
 30
0.0000
 40
0.1750
  0
CIRCLE
  8
44
 10
-31.4960
 20
1.0160
 30
0.0000
 40
0.1750
  0
CIRCLE
  8
44
 10
-24.8920
 20
1.0160
 30
0.0000
 40
0.1750
  0
CIRCLE
  8
44
 10
1.1430
 20
26.7970
 30
0.0000
 40
0.1968
  0
CIRCLE
  8
44
 10
-9.9060
 20
-22.2250
 30
0.0000
 40
0.1968
  0
CIRCLE
  8
44
 10
-16.1290
 20
-16.1290
 30
0.0000
 40
0.1968
  0
CIRCLE
  8
44
 10
-16.2560
 20
-17.9070
 30
0.0000
 40
0.1968
  0
CIRCLE
  8
44
 10
-25.1460
 20
-23.4950
 30
0.0000
 40
0.1968
  0
CIRCLE
  8
44
 10
-15.2400
 20
-17.0180
 30
0.0000
 40
0.1968
  0
CIRCLE
  8
44
 10
-11.5570
 20
-22.4790
 30
0.0000
 40
0.1968
  0
CIRCLE
  8
44
 10
-10.6680
 20
-21.4630
 30
0.0000
 40
0.1968
  0
CIRCLE
  8
44
 10
15.2400
 20
10.6680
 30
0.0000
 40
0.1968
  0
CIRCLE
  8
44
 10
37.0840
 20
6.0960
 30
0.0000
 40
0.1968
  0
CIRCLE
  8
44
 10
37.5920
 20
-7.1120
 30
0.0000
 40
0.1968
  0
CIRCLE
  8
44
 10
25.5270
 20
-3.4290
 30
0.0000
 40
0.1968
  0
CIRCLE
  8
44
 10
35.5600
 20
11.6840
 30
0.0000
 40
0.1968
  0
CIRCLE
  8
44
 10
33.5280
 20
-12.7000
 30
0.0000
 40
0.1968
  0
CIRCLE
  8
44
 10
26.5430
 20
-6.0960
 30
0.0000
 40
0.1968
  0
CIRCLE
  8
44
 10
-21.8440
 20
11.0490
 30
0.0000
 40
0.1968
  0
CIRCLE
  8
44
 10
-22.6060
 20
11.8110
 30
0.0000
 40
0.1968
  0
CIRCLE
  8
44
 10
-18.5420
 20
16.7640
 30
0.0000
 40
0.1968
  0
CIRCLE
  8
44
 10
-17.5260
 20
15.8750
 30
0.0000
 40
0.1968
  0
CIRCLE
  8
44
 10
-3.4290
 20
26.9240
 30
0.0000
 40
0.1750
  0
CIRCLE
  8
44
 10
-4.5720
 20
-7.4930
 30
0.0000
 40
0.1750
  0
CIRCLE
  8
44
 10
-1.5240
 20
5.5880
 30
0.0000
 40
0.1750
  0
CIRCLE
  8
44
 10
2.1590
 20
5.5880
 30
0.0000
 40
0.1750
  0
CIRCLE
  8
44
 10
2.1590
 20
2.0320
 30
0.0000
 40
0.1750
  0
CIRCLE
  8
44
 10
-1.5240
 20
2.0320
 30
0.0000
 40
0.1750
  0
CIRCLE
  8
44
 10
-10.6680
 20
-12.7000
 30
0.0000
 40
0.1968
  0
CIRCLE
  8
44
 10
-7.3660
 20
-19.3040
 30
0.0000
 40
0.1968
  0
CIRCLE
  8
44
 10
10.1600
 20
-39.1160
 30
0.0000
 40
0.1968
  0
CIRCLE
  8
44
 10
-18.5420
 20
-25.6540
 30
0.0000
 40
0.1968
  0
CIRCLE
  8
44
 10
-10.7950
 20
-23.1140
 30
0.0000
 40
0.1968
  0
CIRCLE
  8
44
 10
-12.7000
 20
28.9560
 30
0.0000
 40
0.1750
  0
CIRCLE
  8
44
 10
-30.9880
 20
-13.0810
 30
0.0000
 40
0.1968
  0
CIRCLE
  8
44
 10
-22.2250
 20
25.0190
 30
0.0000
 40
0.1968
  0
CIRCLE
  8
44
 10
-17.2720
 20
-24.3840
 30
0.0000
 40
0.1968
  0
CIRCLE
  8
44
 10
-26.5430
 20
-7.6200
 30
0.0000
 40
0.1968
  0
CIRCLE
  8
44
 10
-22.9870
 20
-21.7170
 30
0.0000
 40
0.1968
  0
CIRCLE
  8
44
 10
-5.5880
 20
-38.6080
 30
0.0000
 40
0.1968
  0
CIRCLE
  8
44
 10
-0.2540
 20
-9.1440
 30
0.0000
 40
0.1968
  0
CIRCLE
  8
44
 10
-4.5720
 20
-19.3040
 30
0.0000
 40
0.1968
  0
CIRCLE
  8
44
 10
-5.5880
 20
-30.9880
 30
0.0000
 40
0.1968
  0
CIRCLE
  8
44
 10
-17.0180
 20
-17.1450
 30
0.0000
 40
0.1968
  0
CIRCLE
  8
44
 10
-22.7330
 20
10.1600
 30
0.0000
 40
0.1968
  0
CIRCLE
  8
44
 10
-11.9380
 20
21.8440
 30
0.0000
 40
0.1968
  0
CIRCLE
  8
44
 10
14.8590
 20
22.8600
 30
0.0000
 40
0.1968
  0
CIRCLE
  8
44
 10
-17.7800
 20
17.5260
 30
0.0000
 40
0.1968
  0
CIRCLE
  8
44
 10
2.5400
 20
-9.1440
 30
0.0000
 40
0.1968
  0
CIRCLE
  8
44
 10
5.8420
 20
-7.8740
 30
0.0000
 40
0.1968
  0
CIRCLE
  8
44
 10
-0.1270
 20
-25.2730
 30
0.0000
 40
0.1968
  0
CIRCLE
  8
44
 10
4.0640
 20
30.9880
 30
0.0000
 40
0.1968
  0
CIRCLE
  8
44
 10
13.2080
 20
-29.9720
 30
0.0000
 40
0.1968
  0
CIRCLE
  8
44
 10
-25.4000
 20
-8.6360
 30
0.0000
 40
0.1968
  0
CIRCLE
  8
44
 10
-24.3840
 20
-8.6360
 30
0.0000
 40
0.1968
  0
CIRCLE
  8
44
 10
-29.2100
 20
0.0000
 30
0.0000
 40
0.1968
  0
CIRCLE
  8
44
 10
-25.4000
 20
-7.6200
 30
0.0000
 40
0.1968
  0
CIRCLE
  8
44
 10
-24.3840
 20
-7.6200
 30
0.0000
 40
0.1968
  0
CIRCLE
  8
44
 10
-27.6860
 20
0.0000
 30
0.0000
 40
0.1968
  0
CIRCLE
  8
44
 10
-20.3200
 20
-35.0520
 30
0.0000
 40
0.1968
  0
CIRCLE
  8
44
 10
-32.5120
 20
-23.3680
 30
0.0000
 40
0.1968
  0
CIRCLE
  8
44
 10
5.0800
 20
-30.4800
 30
0.0000
 40
0.1968
  0
CIRCLE
  8
44
 10
-0.1270
 20
-26.1620
 30
0.0000
 40
0.1968
  0
CIRCLE
  8
44
 10
2.5400
 20
-12.3190
 30
0.0000
 40
0.1968
  0
CIRCLE
  8
44
 10
-0.2540
 20
-12.3190
 30
0.0000
 40
0.1968
  0
CIRCLE
  8
44
 10
11.6840
 20
29.4640
 30
0.0000
 40
0.1968
  0
CIRCLE
  8
44
 10
1.1430
 20
19.3040
 30
0.0000
 40
0.1750
  0
CIRCLE
  8
44
 10
21.9710
 20
12.1920
 30
0.0000
 40
0.1750
  0
CIRCLE
  8
44
 10
16.6370
 20
17.6530
 30
0.0000
 40
0.1750
  0
CIRCLE
  8
44
 10
17.2720
 20
34.5440
 30
0.0000
 40
0.1750
  0
CIRCLE
  8
44
 10
-4.0640
 20
-27.9400
 30
0.0000
 40
0.1750
  0
CIRCLE
  8
44
 10
8.1280
 20
32.5120
 30
0.0000
 40
0.1968
  0
CIRCLE
  8
44
 10
22.2250
 20
28.4480
 30
0.0000
 40
0.1750
  0
CIRCLE
  8
44
 10
-6.0960
 20
17.2720
 30
0.0000
 40
0.1750
  0
CIRCLE
  8
44
 10
19.3040
 20
36.5760
 30
0.0000
 40
0.1750
  0
CIRCLE
  8
44
 10
18.2880
 20
11.6840
 30
0.0000
 40
0.1750
  0
CIRCLE
  8
44
 10
-5.0800
 20
17.2720
 30
0.0000
 40
0.1750
  0
CIRCLE
  8
44
 10
4.0640
 20
9.1440
 30
0.0000
 40
0.1750
  0
CIRCLE
  8
44
 10
8.1280
 20
11.1760
 30
0.0000
 40
0.1750
  0
CIRCLE
  8
44
 10
-4.5720
 20
-14.2240
 30
0.0000
 40
0.1750
  0
CIRCLE
  8
44
 10
-5.0800
 20
-26.9240
 30
0.0000
 40
0.1750
  0
CIRCLE
  8
44
 10
-29.2100
 20
-1.0160
 30
0.0000
 40
0.1750
  0
CIRCLE
  8
44
 10
-27.6860
 20
-1.0160
 30
0.0000
 40
0.1750
  0
CIRCLE
  8
44
 10
-29.9720
 20
2.0320
 30
0.0000
 40
0.1968
  0
CIRCLE
  8
44
 10
-28.9560
 20
2.0320
 30
0.0000
 40
0.1968
  0
CIRCLE
  8
44
 10
-27.6860
 20
-6.6040
 30
0.0000
 40
0.1968
  0
CIRCLE
  8
44
 10
-29.2100
 20
-2.0320
 30
0.0000
 40
0.1750
  0
CIRCLE
  8
44
 10
-27.6860
 20
-2.0320
 30
0.0000
 40
0.1750
  0
CIRCLE
  8
44
 10
-29.9720
 20
3.5560
 30
0.0000
 40
0.1968
  0
CIRCLE
  8
44
 10
-28.9560
 20
3.5560
 30
0.0000
 40
0.1968
  0
CIRCLE
  8
44
 10
-18.7960
 20
-2.5400
 30
0.0000
 40
0.1750
  0
CIRCLE
  8
44
 10
-21.9710
 20
-2.5400
 30
0.0000
 40
0.1750
  0
CIRCLE
  8
44
 10
-26.4160
 20
0.0000
 30
0.0000
 40
0.1968
  0
CIRCLE
  8
44
 10
-26.4160
 20
-1.0160
 30
0.0000
 40
0.1968
  0
CIRCLE
  8
44
 10
1.2700
 20
12.0650
 30
0.0000
 40
0.1750
  0
CIRCLE
  8
44
 10
6.6040
 20
19.3040
 30
0.0000
 40
0.1750
  0
CIRCLE
  8
44
 10
-5.7150
 20
26.9240
 30
0.0000
 40
0.1750
  0
CIRCLE
  8
44
 10
-1.0160
 20
14.7320
 30
0.0000
 40
0.1968
  0
CIRCLE
  8
44
 10
1.9050
 20
17.6530
 30
0.0000
 40
0.1750
  0
CIRCLE
  8
44
 10
-7.8740
 20
26.9240
 30
0.0000
 40
0.1750
  0
CIRCLE
  8
44
 10
6.0960
 20
0.0000
 30
0.0000
 40
0.1750
  0
CIRCLE
  8
44
 10
6.0960
 20
1.0160
 30
0.0000
 40
0.1750
  0
CIRCLE
  8
44
 10
1.6510
 20
-3.0480
 30
0.0000
 40
0.1968
  0
CIRCLE
  8
44
 10
-4.9530
 20
-8.3820
 30
0.0000
 40
0.1968
  0
CIRCLE
  8
44
 10
2.6670
 20
-3.0480
 30
0.0000
 40
0.1968
  0
CIRCLE
  8
44
 10
4.3180
 20
8.1280
 30
0.0000
 40
0.1750
  0
CIRCLE
  8
44
 10
-6.6040
 20
10.1600
 30
0.0000
 40
0.1750
  0
ENDSEC
  0
EOF
