<?xml version="1.0" encoding="UTF-8" standalone="no"?>
<!-- Created with Inkscape (http://www.inkscape.org/) -->

<svg
 xmlns:dc="http://purl.org/dc/elements/1.1/"
 xmlns:cc="http://creativecommons.org/ns#"
 xmlns:rdf="http://www.w3.org/1999/02/22-rdf-syntax-ns#"
 xmlns:svg="http://www.w3.org/2000/svg"
 xmlns="http://www.w3.org/2000/svg"
 xmlns:sodipodi="http://sodipodi.sourceforge.net/DTD/sodipodi-0.dtd"
 xmlns:inkscape="http://www.inkscape.org/namespaces/inkscape"
 id="svg2"
 version="1.1"
 inkscape:version="0.91 r13725"
 xml:space="preserve"
 width="143.71263mm"
 height="120.71564mm"
 viewBox="0 0 509.21799 427.73259"
 sodipodi:docname="outline.svg"><metadata
 id="metadata8"><rdf:RDF><cc:Work
 rdf:about=""><dc:format>image/svg+xml</dc:format><dc:type
 rdf:resource="http://purl.org/dc/dcmitype/StillImage" /><dc:title></dc:title></cc:Work></rdf:RDF></metadata><defs
 id="defs6"><clipPath
 clipPathUnits="userSpaceOnUse"
 id="clipPath16"><path
 d="m 7806,5256 4145,0 0,4141 -4145,0 0,-4141"
 id="path18"
 inkscape:connector-curvature="0" /></clipPath><clipPath
 clipPathUnits="userSpaceOnUse"
 id="clipPath72"><path
 d="m 0,0 19842,0 0,14031 L 0,14031 0,0"
 id="path74"
 inkscape:connector-curvature="0" /></clipPath><clipPath
 clipPathUnits="userSpaceOnUse"
 id="clipPath94"><path
 d="m 0,0 19842,0 0,14031 L 0,14031 0,0"
 id="path96"
 inkscape:connector-curvature="0" /></clipPath><clipPath
 clipPathUnits="userSpaceOnUse"
 id="clipPath106"><path
 d="m 0,0 19842,0 0,14031 L 0,14031 0,0"
 id="path108"
 inkscape:connector-curvature="0" /></clipPath></defs><sodipodi:namedview
 pagecolor="#ffffff"
 bordercolor="#666666"
 borderopacity="1"
 objecttolerance="10"
 gridtolerance="10"
 guidetolerance="10"
 inkscape:pageopacity="0"
 inkscape:pageshadow="2"
 inkscape:window-width="1280"
 inkscape:window-height="697"
 id="namedview4"
 showgrid="false"
 units="mm"
 fit-margin-top="1"
 fit-margin-left="1"
 fit-margin-right="1"
 fit-margin-bottom="1"
 inkscape:zoom="0.89691211"
 inkscape:cx="160.64126"
 inkscape:cy="211.65951"
 inkscape:window-x="-8"
 inkscape:window-y="-8"
 inkscape:window-maximized="1"
 inkscape:current-layer="g10" /><g
 id="g10"
 inkscape:groupmode="layer"
 inkscape:label="outline2 Drawing v3"
 transform="matrix(0.075,0,0,-0.075,-508.77983,826.74786)"><g
 id="g12"><g
 id="g14"
 clip-path="url(#clipPath16)"><path
 d="m 11591,8087.5 c 0,-38.936 31.563,-70.5 70.5,-70.5 38.937,0 70.5,31.564 70.5,70.5 0,38.936 -31.563,70.5 -70.5,70.5 -38.937,0 -70.5,-31.564 -70.5,-70.5"
 style="fill:none;stroke:#000000;stroke-width:24;stroke-linecap:round;stroke-linejoin:round;stroke-miterlimit:10;stroke-dasharray:none;stroke-opacity:1"
 id="path20"
 inkscape:connector-curvature="0" /><path
 d="m 8026,8087.5 c 0,-38.936 31.564,-70.5 70.5,-70.5 38.936,0 70.5,31.564 70.5,70.5 0,38.936 -31.564,70.5 -70.5,70.5 -38.936,0 -70.5,-31.564 -70.5,-70.5"
 style="fill:none;stroke:#000000;stroke-width:24;stroke-linecap:round;stroke-linejoin:round;stroke-miterlimit:10;stroke-dasharray:none;stroke-opacity:1"
 id="path22"
 inkscape:connector-curvature="0" /><path
 d="m 11591,6562.5 c 0,-38.936 31.563,-70.5 70.5,-70.5 38.937,0 70.5,31.564 70.5,70.5 0,38.936 -31.563,70.5 -70.5,70.5 -38.937,0 -70.5,-31.564 -70.5,-70.5"
 style="fill:none;stroke:#000000;stroke-width:24;stroke-linecap:round;stroke-linejoin:round;stroke-miterlimit:10;stroke-dasharray:none;stroke-opacity:1"
 id="path24"
 inkscape:connector-curvature="0" /><path
 d="m 9046,9107.5 c 0,-38.9365 31.5635,-70.5 70.5,-70.5 38.9365,0 70.5,31.5635 70.5,70.5 0,38.9365 -31.5635,70.5 -70.5,70.5 -38.9365,0 -70.5,-31.5635 -70.5,-70.5"
 style="fill:none;stroke:#000000;stroke-width:24;stroke-linecap:round;stroke-linejoin:round;stroke-miterlimit:10;stroke-dasharray:none;stroke-opacity:1"
 id="path26"
 inkscape:connector-curvature="0" /><path
 d="m 8026,6562.5 c 0,-38.936 31.564,-70.5 70.5,-70.5 38.936,0 70.5,31.564 70.5,70.5 0,38.936 -31.564,70.5 -70.5,70.5 -38.936,0 -70.5,-31.564 -70.5,-70.5"
 style="fill:none;stroke:#000000;stroke-width:24;stroke-linecap:round;stroke-linejoin:round;stroke-miterlimit:10;stroke-dasharray:none;stroke-opacity:1"
 id="path28"
 inkscape:connector-curvature="0" /><path
 d="m 10571,9107.5 c 0,-38.9365 31.563,-70.5 70.5,-70.5 38.937,0 70.5,31.5635 70.5,70.5 0,38.9365 -31.563,70.5 -70.5,70.5 -38.937,0 -70.5,-31.5635 -70.5,-70.5"
 style="fill:none;stroke:#000000;stroke-width:24;stroke-linecap:round;stroke-linejoin:round;stroke-miterlimit:10;stroke-dasharray:none;stroke-opacity:1"
 id="path30"
 inkscape:connector-curvature="0" /><path
 d="m 9046,5542.5 c 0,-38.936 31.5635,-70.5 70.5,-70.5 38.9365,0 70.5,31.564 70.5,70.5 0,38.936 -31.5635,70.5 -70.5,70.5 -38.9365,0 -70.5,-31.564 -70.5,-70.5"
 style="fill:none;stroke:#000000;stroke-width:24;stroke-linecap:round;stroke-linejoin:round;stroke-miterlimit:10;stroke-dasharray:none;stroke-opacity:1"
 id="path32"
 inkscape:connector-curvature="0" /><path
 d="m 10571,5542.5 c 0,-38.936 31.563,-70.5 70.5,-70.5 38.937,0 70.5,31.564 70.5,70.5 0,38.936 -31.563,70.5 -70.5,70.5 -38.937,0 -70.5,-31.564 -70.5,-70.5"
 style="fill:none;stroke:#000000;stroke-width:24;stroke-linecap:round;stroke-linejoin:round;stroke-miterlimit:10;stroke-dasharray:none;stroke-opacity:1"
 id="path34"
 inkscape:connector-curvature="0" /><path
 d="m 7958,8097 0,-1543"
 style="fill:none;stroke:#000000;stroke-width:24;stroke-linecap:round;stroke-linejoin:round;stroke-miterlimit:10;stroke-dasharray:none;stroke-opacity:1"
 id="path36"
 inkscape:connector-curvature="0" /><path
 d="M 7993.2935,8182.7065 C 7970.6953,8160.1084 7958,8129.4585 7958,8097.5"
 style="fill:none;stroke:#000000;stroke-width:24;stroke-linecap:round;stroke-linejoin:round;stroke-miterlimit:10;stroke-dasharray:none;stroke-opacity:1"
 id="path38"
 inkscape:connector-curvature="0" /><path
 d="M 9021,9210 7993,8182"
 style="fill:none;stroke:#000000;stroke-width:24;stroke-linecap:round;stroke-linejoin:round;stroke-miterlimit:10;stroke-dasharray:none;stroke-opacity:1"
 id="path40"
 inkscape:connector-curvature="0" /><path
 d="m 9106.5,9246 c -31.959,0 -62.6084,-12.6953 -85.206,-35.2939"
 style="fill:none;stroke:#000000;stroke-width:24;stroke-linecap:round;stroke-linejoin:round;stroke-miterlimit:10;stroke-dasharray:none;stroke-opacity:1"
 id="path42"
 inkscape:connector-curvature="0" /><path
 d="m 10651,9245 -1545,0"
 style="fill:none;stroke:#000000;stroke-width:24;stroke-linecap:round;stroke-linejoin:round;stroke-miterlimit:10;stroke-dasharray:none;stroke-opacity:1"
 id="path44"
 inkscape:connector-curvature="0" /><path
 d="M 10736.706,9210.7061 C 10714.108,9233.3047 10683.459,9246 10651.5,9246"
 style="fill:none;stroke:#000000;stroke-width:24;stroke-linecap:round;stroke-linejoin:round;stroke-miterlimit:10;stroke-dasharray:none;stroke-opacity:1"
 id="path46"
 inkscape:connector-curvature="0" /><path
 d="M 11764,8182 10736,9210"
 style="fill:none;stroke:#000000;stroke-width:24;stroke-linecap:round;stroke-linejoin:round;stroke-miterlimit:10;stroke-dasharray:none;stroke-opacity:1"
 id="path48"
 inkscape:connector-curvature="0" /><path
 d="m 11800,8097.4883 c 0,31.9629 -12.692,62.6172 -35.294,85.2182"
 style="fill:none;stroke:#000000;stroke-width:24;stroke-linecap:round;stroke-linejoin:round;stroke-miterlimit:10;stroke-dasharray:none;stroke-opacity:1"
 id="path50"
 inkscape:connector-curvature="0" /><path
 d="m 11799,6552 0,1545"
 style="fill:none;stroke:#000000;stroke-width:24;stroke-linecap:round;stroke-linejoin:round;stroke-miterlimit:10;stroke-dasharray:none;stroke-opacity:1"
 id="path52"
 inkscape:connector-curvature="0" /><path
 d="m 11764.715,6467.3018 c 22.59,22.5947 35.282,53.2363 35.285,85.1865"
 style="fill:none;stroke:#000000;stroke-width:24;stroke-linecap:round;stroke-linejoin:round;stroke-miterlimit:10;stroke-dasharray:none;stroke-opacity:1"
 id="path54"
 inkscape:connector-curvature="0" /><path
 d="m 10740,5443 1024,1024"
 style="fill:none;stroke:#000000;stroke-width:24;stroke-linecap:round;stroke-linejoin:round;stroke-miterlimit:10;stroke-dasharray:none;stroke-opacity:1"
 id="path56"
 inkscape:connector-curvature="0" /><path
 d="m 10655.5,5408 c 31.963,0 62.616,12.6987 85.215,35.3018"
 style="fill:none;stroke:#000000;stroke-width:24;stroke-linecap:round;stroke-linejoin:round;stroke-miterlimit:10;stroke-dasharray:none;stroke-opacity:1"
 id="path58"
 inkscape:connector-curvature="0" /><path
 d="m 9105,5408 1550,0"
 style="fill:none;stroke:#000000;stroke-width:24;stroke-linecap:round;stroke-linejoin:round;stroke-miterlimit:10;stroke-dasharray:none;stroke-opacity:1"
 id="path60"
 inkscape:connector-curvature="0" /><path
 d="M 9020.3506,5443.2363 C 9042.9443,5420.6733 9073.5693,5408 9105.5,5408"
 style="fill:none;stroke:#000000;stroke-width:24;stroke-linecap:round;stroke-linejoin:round;stroke-miterlimit:10;stroke-dasharray:none;stroke-opacity:1"
 id="path62"
 inkscape:connector-curvature="0" /><path
 d="M 7993,6469 9020,5443"
 style="fill:none;stroke:#000000;stroke-width:24;stroke-linecap:round;stroke-linejoin:round;stroke-miterlimit:10;stroke-dasharray:none;stroke-opacity:1"
 id="path64"
 inkscape:connector-curvature="0" /><path
 d="m 7958,6554.5 c 0,-31.9868 12.7178,-62.6606 35.3511,-85.2637"
 style="fill:none;stroke:#000000;stroke-width:24;stroke-linecap:round;stroke-linejoin:round;stroke-miterlimit:10;stroke-dasharray:none;stroke-opacity:1"
 id="path66"
 inkscape:connector-curvature="0" /></g></g><g
 id="g68"><g
 id="g70"
 clip-path="url(#clipPath72)"><path
 d="m 9116,9012 0,-305"
 style="fill:none;stroke:#000000;stroke-width:12;stroke-linecap:round;stroke-linejoin:round;stroke-miterlimit:10;stroke-dasharray:none;stroke-opacity:1"
 id="path76"
 inkscape:connector-curvature="0" /><path
 d="m 10640,9012 0,-305"
 style="fill:none;stroke:#000000;stroke-width:12;stroke-linecap:round;stroke-linejoin:round;stroke-miterlimit:10;stroke-dasharray:none;stroke-opacity:1"
 id="path78"
 inkscape:connector-curvature="0" /><path
 d="m 9281,8801 1194,0"
 style="fill:none;stroke:#000000;stroke-width:12;stroke-linecap:round;stroke-linejoin:round;stroke-miterlimit:10;stroke-dasharray:none;stroke-opacity:1"
 id="path80"
 inkscape:connector-curvature="0" /><g
 id="g82"><path
 d="m 9281,8829 0,-56 -165,28 165,28 z"
 style="fill:#000000;fill-opacity:1;fill-rule:nonzero;stroke:#000000;stroke-width:13.33333302;stroke-linecap:round;stroke-linejoin:miter;stroke-miterlimit:10;stroke-dasharray:none;stroke-opacity:1"
 id="path84"
 inkscape:connector-curvature="0" /></g><g
 id="g86"><path
 d="m 10475,8829 0,-56 165,28 -165,28 z"
 style="fill:#000000;fill-opacity:1;fill-rule:nonzero;stroke:#000000;stroke-width:13.33333302;stroke-linecap:round;stroke-linejoin:miter;stroke-miterlimit:10;stroke-dasharray:none;stroke-opacity:1"
 id="path88"
 inkscape:connector-curvature="0" /></g></g></g><g
 id="g90"><g
 id="g92"
 clip-path="url(#clipPath94)"><text
 transform="matrix(1,0,0,-1,9589,8875)"
 style="font-variant:normal;font-weight:normal;font-size:230.99099731px;font-family:Arial;-inkscape-font-specification:ArialMT;writing-mode:lr-tb;fill:#000000;fill-opacity:1;fill-rule:nonzero;stroke:none"
 id="text98"><tspan
 x="0 128.431 256.862 321.07748 449.50848"
 y="0"
 sodipodi:role="line"
 id="tspan100">32.26</tspan></text>
</g></g><g
 id="g102"><g
 id="g104"
 clip-path="url(#clipPath106)"><path
 d="m 8096,7992 0,-468"
 style="fill:none;stroke:#000000;stroke-width:12;stroke-linecap:round;stroke-linejoin:round;stroke-miterlimit:10;stroke-dasharray:none;stroke-opacity:1"
 id="path110"
 inkscape:connector-curvature="0" /><path
 d="m 11660,7992 0,-468"
 style="fill:none;stroke:#000000;stroke-width:12;stroke-linecap:round;stroke-linejoin:round;stroke-miterlimit:10;stroke-dasharray:none;stroke-opacity:1"
 id="path112"
 inkscape:connector-curvature="0" /><path
 d="m 8261,7619 3234,0"
 style="fill:none;stroke:#000000;stroke-width:12;stroke-linecap:round;stroke-linejoin:round;stroke-miterlimit:10;stroke-dasharray:none;stroke-opacity:1"
 id="path114"
 inkscape:connector-curvature="0" /><g
 id="g116"><path
 d="m 8261,7646 0,-55 -165,28 165,27 z"
 style="fill:#000000;fill-opacity:1;fill-rule:nonzero;stroke:#000000;stroke-width:13.33333302;stroke-linecap:round;stroke-linejoin:miter;stroke-miterlimit:10;stroke-dasharray:none;stroke-opacity:1"
 id="path118"
 inkscape:connector-curvature="0" /></g><g
 id="g120"><path
 d="m 11495,7646 0,-55 165,28 -165,27 z"
 style="fill:#000000;fill-opacity:1;fill-rule:nonzero;stroke:#000000;stroke-width:13.33333302;stroke-linecap:round;stroke-linejoin:miter;stroke-miterlimit:10;stroke-dasharray:none;stroke-opacity:1"
 id="path122"
 inkscape:connector-curvature="0" /></g><text
 transform="matrix(1,0,0,-1,9589,7692)"
 style="font-variant:normal;font-weight:normal;font-size:230.99099731px;font-family:Arial;-inkscape-font-specification:ArialMT;writing-mode:lr-tb;fill:#000000;fill-opacity:1;fill-rule:nonzero;stroke:none"
 id="text124"><tspan
 x="0 128.431 256.862 321.07748 449.50848"
 y="0"
 sodipodi:role="line"
 id="tspan126">75.44</tspan></text>
<path
 d="m 10707,9173 541,541"
 style="fill:none;stroke:#000000;stroke-width:12;stroke-linecap:round;stroke-linejoin:round;stroke-miterlimit:10;stroke-dasharray:none;stroke-opacity:1"
 id="path128"
 inkscape:connector-curvature="0" /><path
 d="m 11727,8153 541,541"
 style="fill:none;stroke:#000000;stroke-width:12;stroke-linecap:round;stroke-linejoin:round;stroke-miterlimit:10;stroke-dasharray:none;stroke-opacity:1"
 id="path130"
 inkscape:connector-curvature="0" /><path
 d="m 11298,9530 786,-786"
 style="fill:none;stroke:#000000;stroke-width:12;stroke-linecap:round;stroke-linejoin:round;stroke-miterlimit:10;stroke-dasharray:none;stroke-opacity:1"
 id="path132"
 inkscape:connector-curvature="0" /><g
 id="g134"><path
 d="m 11318,9550 -39,-39 -98,136 137,-97 z"
 style="fill:#000000;fill-opacity:1;fill-rule:nonzero;stroke:#000000;stroke-width:13.33333302;stroke-linecap:round;stroke-linejoin:miter;stroke-miterlimit:10;stroke-dasharray:none;stroke-opacity:1"
 id="path136"
 inkscape:connector-curvature="0" /></g><g
 id="g138"><path
 d="m 12104,8764 -39,-39 136,-98 -97,137 z"
 style="fill:#000000;fill-opacity:1;fill-rule:nonzero;stroke:#000000;stroke-width:13.33333302;stroke-linecap:round;stroke-linejoin:miter;stroke-miterlimit:10;stroke-dasharray:none;stroke-opacity:1"
 id="path140"
 inkscape:connector-curvature="0" /></g><text
 transform="matrix(0.70622,-0.70799,-0.70799,-0.70622,11686,9247)"
 style="font-variant:normal;font-weight:normal;font-size:230.99060059px;font-family:Arial;-inkscape-font-specification:ArialMT;writing-mode:lr-tb;fill:#000000;fill-opacity:1;fill-rule:nonzero;stroke:none"
 id="text142"><tspan
 x="0 128.43077 256.86154 321.07693 449.50772"
 y="0"
 sodipodi:role="line"
 id="tspan144">30.53</tspan></text>
<path
 d="m 9010,5408 -2033,0"
 style="fill:none;stroke:#000000;stroke-width:12;stroke-linecap:round;stroke-linejoin:round;stroke-miterlimit:10;stroke-dasharray:none;stroke-opacity:1"
 id="path146"
 inkscape:connector-curvature="0" /><path
 d="m 9011,9244 -2034,0"
 style="fill:none;stroke:#000000;stroke-width:12;stroke-linecap:round;stroke-linejoin:round;stroke-miterlimit:10;stroke-dasharray:none;stroke-opacity:1"
 id="path148"
 inkscape:connector-curvature="0" /><path
 d="m 7071,5573 0,3506"
 style="fill:none;stroke:#000000;stroke-width:12;stroke-linecap:round;stroke-linejoin:round;stroke-miterlimit:10;stroke-dasharray:none;stroke-opacity:1"
 id="path150"
 inkscape:connector-curvature="0" /><g
 id="g152"><path
 d="m 7044,5573 55,0 -28,-165 -27,165 z"
 style="fill:#000000;fill-opacity:1;fill-rule:nonzero;stroke:#000000;stroke-width:13.33333302;stroke-linecap:round;stroke-linejoin:miter;stroke-miterlimit:10;stroke-dasharray:none;stroke-opacity:1"
 id="path154"
 inkscape:connector-curvature="0" /></g><g
 id="g156"><path
 d="m 7044,9079 55,0 -28,165 -27,-165 z"
 style="fill:#000000;fill-opacity:1;fill-rule:nonzero;stroke:#000000;stroke-width:13.33333302;stroke-linecap:round;stroke-linejoin:miter;stroke-miterlimit:10;stroke-dasharray:none;stroke-opacity:1"
 id="path158"
 inkscape:connector-curvature="0" /></g><text
 transform="matrix(0,1,1,0,6997,7103)"
 style="font-variant:normal;font-weight:normal;font-size:230.99099731px;font-family:Arial;-inkscape-font-specification:ArialMT;writing-mode:lr-tb;fill:#000000;fill-opacity:1;fill-rule:nonzero;stroke:none"
 id="text160"><tspan
 x="0 128.431 256.862 321.07748"
 y="0"
 sodipodi:role="line"
 id="tspan162">81.2</tspan></text>
<path
 d="m 8060,8248 2714,2722"
 style="fill:none;stroke:#000000;stroke-width:12;stroke-linecap:round;stroke-linejoin:round;stroke-miterlimit:10;stroke-dasharray:none;stroke-opacity:1"
 id="path164"
 inkscape:connector-curvature="0" /><path
 d="m 10806,5510 2714,2722"
 style="fill:none;stroke:#000000;stroke-width:12;stroke-linecap:round;stroke-linejoin:round;stroke-miterlimit:10;stroke-dasharray:none;stroke-opacity:1"
 id="path166"
 inkscape:connector-curvature="0" /><path
 d="M 10825,10786 13336,8282"
 style="fill:none;stroke:#000000;stroke-width:12;stroke-linecap:round;stroke-linejoin:round;stroke-miterlimit:10;stroke-dasharray:none;stroke-opacity:1"
 id="path168"
 inkscape:connector-curvature="0" /><g
 id="g170"><path
 d="m 10844,10806 -39,-39 -98,136 137,-97 z"
 style="fill:#000000;fill-opacity:1;fill-rule:nonzero;stroke:#000000;stroke-width:13.33333302;stroke-linecap:round;stroke-linejoin:miter;stroke-miterlimit:10;stroke-dasharray:none;stroke-opacity:1"
 id="path172"
 inkscape:connector-curvature="0" /></g><g
 id="g174"><path
 d="m 13356,8301 -39,-39 136,-97 -97,136 z"
 style="fill:#000000;fill-opacity:1;fill-rule:nonzero;stroke:#000000;stroke-width:13.33333302;stroke-linecap:round;stroke-linejoin:miter;stroke-miterlimit:10;stroke-dasharray:none;stroke-opacity:1"
 id="path176"
 inkscape:connector-curvature="0" /></g><text
 transform="matrix(0.70799,-0.70622,-0.70622,-0.70799,11988,9731)"
 style="font-variant:normal;font-weight:normal;font-size:230.99060059px;font-family:Arial;-inkscape-font-specification:ArialMT;writing-mode:lr-tb;fill:#000000;fill-opacity:1;fill-rule:nonzero;stroke:none"
 id="text178"><tspan
 x="0 128.43077 256.86154 321.07693 449.50772"
 y="0"
 sodipodi:role="line"
 id="tspan180">82.08</tspan></text>
<path
 d="m 8002,8086 -468,0"
 style="fill:none;stroke:#000000;stroke-width:12;stroke-linecap:round;stroke-linejoin:round;stroke-miterlimit:10;stroke-dasharray:none;stroke-opacity:1"
 id="path182"
 inkscape:connector-curvature="0" /><path
 d="m 8002,6562 -468,0"
 style="fill:none;stroke:#000000;stroke-width:12;stroke-linecap:round;stroke-linejoin:round;stroke-miterlimit:10;stroke-dasharray:none;stroke-opacity:1"
 id="path184"
 inkscape:connector-curvature="0" /><path
 d="m 7628,7921 0,-1193"
 style="fill:none;stroke:#000000;stroke-width:12;stroke-linecap:round;stroke-linejoin:round;stroke-miterlimit:10;stroke-dasharray:none;stroke-opacity:1"
 id="path186"
 inkscape:connector-curvature="0" /><g
 id="g188"><path
 d="m 7601,7921 55,0 -28,165 -27,-165 z"
 style="fill:#000000;fill-opacity:1;fill-rule:nonzero;stroke:#000000;stroke-width:13.33333302;stroke-linecap:round;stroke-linejoin:miter;stroke-miterlimit:10;stroke-dasharray:none;stroke-opacity:1"
 id="path190"
 inkscape:connector-curvature="0" /></g><g
 id="g192"><path
 d="m 7601,6728 55,0 -28,-166 -27,166 z"
 style="fill:#000000;fill-opacity:1;fill-rule:nonzero;stroke:#000000;stroke-width:13.33333302;stroke-linecap:round;stroke-linejoin:miter;stroke-miterlimit:10;stroke-dasharray:none;stroke-opacity:1"
 id="path194"
 inkscape:connector-curvature="0" /></g><text
 transform="matrix(0,1,1,0,7555,7036)"
 style="font-variant:normal;font-weight:normal;font-size:230.99099731px;font-family:Arial;-inkscape-font-specification:ArialMT;writing-mode:lr-tb;fill:#000000;fill-opacity:1;fill-rule:nonzero;stroke:none"
 id="text196"><tspan
 x="0 128.431 256.862 321.07748 449.50848"
 y="0"
 sodipodi:role="line"
 id="tspan198">32.26</tspan></text>
<text
 transform="matrix(1,0,0,-1,7415,9535)"
 style="font-variant:normal;font-weight:normal;font-size:230.99099731px;font-family:Arial;-inkscape-font-specification:ArialMT;writing-mode:lr-tb;fill:#000000;fill-opacity:1;fill-rule:nonzero;stroke:none"
 id="text200"><tspan
 x="0 154.071 205.351 256.63101 320.8465 449.2775 577.7085 628.98846 757.41949 872.91498 937.13049 1116.8414 1245.2725 1309.488 1501.9034"
 y="0"
 sodipodi:role="line"
 id="tspan202">All holes Ø3 mm</tspan></text>
</g></g></g></svg>