<?xml version="1.0" encoding="UTF-8" standalone="no"?>
<svg
 xmlns:dc="http://purl.org/dc/elements/1.1/"
 xmlns:cc="http://creativecommons.org/ns#"
 xmlns:rdf="http://www.w3.org/1999/02/22-rdf-syntax-ns#"
 xmlns:svg="http://www.w3.org/2000/svg"
 xmlns="http://www.w3.org/2000/svg"
 viewBox="0 0 268.65211 113.225"
 height="90.580002pt"
 width="214.92169pt"
 xml:space="preserve"
 version="1.1"
 id="svg2"><metadata
 id="metadata8"><rdf:RDF><cc:Work
 rdf:about=""><dc:format>image/svg+xml</dc:format><dc:type
 rdf:resource="http://purl.org/dc/dcmitype/StillImage" /><dc:title></dc:title></cc:Work></rdf:RDF></metadata><defs
 id="defs6"><clipPath
 clipPathUnits="userSpaceOnUse"
 id="clipPath26"><path
 d="m 198,198 9804,0 0,12804 -9804,0 0,-12804 z"
 id="path28"
 style="clip-rule:evenodd" /></clipPath><clipPath
 clipPathUnits="userSpaceOnUse"
 id="clipPath36"><path
 d="m 198,198 9804,0 0,12804 -9804,0 0,-12804 z"
 id="path38"
 style="clip-rule:evenodd" /></clipPath><clipPath
 clipPathUnits="userSpaceOnUse"
 id="clipPath42"><path
 d="m 3048,6013 4103,0 0,1174 -4103,0 0,-1174 z"
 id="path44"
 style="clip-rule:evenodd" /></clipPath></defs><path
 d="M 38.650391,14.222656 35.5,17.373047 l 0,4.5 1.835938,1.833984 2.023437,-2.023437 -2.058594,-2.060547 3.59961,-3.599609 2.060547,2.058593 2.023437,-2.023437 -1.833984,-1.835938 z m 15.673828,0 -3.148438,3.150391 0,4.5 2.482422,2.482422 2.025391,-2.023438 -2.708985,-2.708984 3.59961,-3.599609 2.708984,2.707031 2.025391,-2.023438 -1.228516,-1.228515 -1.255859,-1.25586 z m 15.75,0 -3.148438,3.150391 0,4.5 1.511719,1.490234 2.017578,-2.009765 -1.730469,-1.730469 3.59961,-3.599609 1.730469,1.730468 2,-2.074218 -1.480469,-1.457032 z m 6.068359,1.56836 -2.02539,2.02539 1.808593,1.806641 -3.601562,3.599609 -1.806641,-1.80664 -2.02539,2.02539 0.666015,0.664063 -10.332031,10.335937 0,-9.419922 3.148437,-3.148437 0,-4.476563 0,-0.02344 -0.572265,-0.587891 -2.009766,2.039063 0.783203,0.798828 -3.601562,3.599609 -0.796875,-0.765625 -2.009766,1.992188 0.556641,0.574219 0,9.398437 -10.259766,-10.3125 2.236328,-2.236328 0,-4.5 -1.222656,-1.236328 -2.007813,2.039062 1.429688,1.447266 -3.599609,3.599609 -1.431641,-1.398437 -2.007812,2.023437 1.189453,1.175782 0.189453,0 0.464844,0.685546 11.857421,11.914063 -11.580078,0 -4.53125,-4.53125 0,-4.46875 -0.960937,-0.962891 -2.027344,2.027344 1.1875,1.185547 -3.599609,3.599609 -1.185547,-1.1875 -2.027344,2.027344 0.962891,0.960938 4.470703,0 4.904297,4.90625 1.113281,0.822265 0.71875,0.142578 0.367187,-0.02148 12.201172,0 1.972657,1.974609 2.02539,-2.02539 -2.199219,-2.199219 3.59961,-3.599609 3.601562,3.599609 -1.34375,1.341797 2.025391,2.02539 1.117187,-1.117187 12.285157,0 0.291015,0.02148 0.654297,-0.09766 0.0098,-0.002 0.0293,-0.0098 1.222656,-0.875 4.888672,-4.886718 4.46875,0 0.828125,-0.828126 -2.025391,-2.02539 -1.052734,1.052734 -3.59961,-3.599609 1.052735,-1.052735 -2.025391,-2.02539 -0.826172,0.828125 0,4.466797 -4.53125,4.533203 -11.638672,0 11.910157,-11.908203 0.470703,-0.691406 0.1875,0 3.15039,-3.150391 0,-4.5 -1.582031,-1.582031 z m -48.742187,9.68164 -3.150391,3.150391 0,4.5 2.033203,2.035156 2.003906,-2.027344 -2.236328,-2.257812 3.59961,-3.599609 2.300781,2.28125 2.072266,-2.00586 -2.123047,-2.076172 z m 53.923828,0 -2.234375,2.25586 2.015625,2.03125 2.46875,-2.486328 3.601562,3.599609 -2.486328,2.492187 2.025391,2.025391 2.259765,-2.267578 0,-4.5 -3.15039,-3.150391 z m -65.173828,11.25 L 13,39.873047 l 0,4.5 2.320312,2.300781 2.027344,-2.005859 -2.546875,-2.544922 3.59961,-3.599609 2.544921,2.546874 2.00586,-2.048828 -2.300781,-2.298828 z m 76.423828,0 -1.902344,1.904297 2.003906,2.044922 2.148438,-2.148437 3.601562,3.599609 -2.15039,2.138672 2.02539,2.013672 1.923829,-1.902344 0,-4.5 -3.150391,-3.150391 z m -1.990235,1.992188 -1.158203,1.158203 0,4.466797 -11.283203,11.283203 -16.167969,0 -0.99414,-0.994141 -1.994141,2.072266 1.189453,1.171875 -1.183593,1.181641 2.02539,2.02539 0.957031,-0.957031 16.173829,0 11.277343,11.224609 0,4.449219 1.837891,1.837891 2.023437,-2.023438 -2.0625,-2.064453 3.59961,-3.599609 2.064453,2.0625 2.023437,-2.023438 -1.83789,-1.83789 -4.484375,0 -8.064453,-8.025391 4.90039,0 3.148438,3.150391 4.5,0 1.5625,-1.5625 -2.023438,-2.025391 -1.789062,1.787109 -3.59961,-3.599609 1.78711,-1.787109 -2.023438,-2.025391 -1.5625,1.5625 -4.919922,0 8.09961,-8.099609 4.46875,0 1.160156,-1.160157 -2.025391,-2.023437 -1.384765,1.382812 -3.59961,-3.599609 1.384766,-1.384766 z m 1.990235,13.757812 -1.53125,1.533203 2.029297,2.019532 1.751953,-1.751953 3.601562,3.599609 -1.746093,1.751953 2.029296,2.03125 1.515626,-1.533203 0,-4.5 -3.150391,-3.150391 z m 6.398437,17.56836 -2.029297,2.035156 1.482422,1.470703 -3.601562,3.601563 -1.470703,-1.488282 -2.029297,2.041016 1.25,1.246094 4.5,0 3.150391,-3.150391 0,-4.5 z M 60.962891,61.15039 58.929688,59.125 l -2.355469,2.347656 -2.509766,-2.509765 -2.023437,2.02539 2.283203,2.285157 0,7.125 -1.9375,1.9375 2.023437,2.02539 2.164063,-2.164062 2.294922,2.292968 2.023437,-2.023437 -2.068359,-2.068359 0,-7.125 z m 0.01808,11.404795 -2.023437,2.034486 1.218252,1.207204 -3.601562,3.601563 -3.59961,-3.601563 1.347159,-1.358207 -2.012389,-2.036439 -1.133598,1.144646 -12.201172,0 -0.36914,-0.02148 -0.810547,0.179687 -0.03906,0.01563 -0.04297,0.01953 -0.884766,0.697266 -4.960937,4.960938 -4.466797,0 -0.751953,0.753906 2.023437,2.023437 0.978516,-0.978515 3.599609,3.599609 -0.978516,0.978516 2.025391,2.02539 0.753906,-0.753906 0,-4.46875 4.53125,-4.53125 11.580078,0 -11.857421,11.914063 -0.484376,0.6875 -0.169921,0 -3.150391,3.148437 0,4.5 1.683594,1.683594 2.02539,-2.023438 -1.908203,-1.910156 3.59961,-3.599609 1.908203,1.908203 2.027344,-2.023438 -0.773438,-0.773437 10.261719,-10.310547 0,9.400391 -3.148438,3.148437 0,4.5 0.498047,0.498047 2.023438,-2.023438 -0.722657,-0.724609 3.59961,-3.599609 0.724609,0.722656 2.023438,-2.023438 -0.498047,-0.498046 0,-9.419922 10.335937,10.333984 -2.234375,2.234375 0,4.5 1.947266,1.949217 2.025391,-2.025389 -2.173829,-2.173828 3.59961,-3.599609 2.173828,2.173828 2.025391,-2.025391 -1.949219,-1.947265 -0.169922,0 -0.488281,-0.691407 -11.910157,-11.910156 11.636719,0 4.533203,4.533203 0,4.466797 1.548828,1.550781 2.025391,-2.02539 -1.775391,-1.775391 3.59961,-3.599609 1.77539,1.77539 2.025391,-2.02539 -1.550781,-1.548828 -4.466797,0 -4.964844,-4.964844 -1.037109,-0.757813 -0.804688,-0.15039 -0.291015,0.02148 -12.285157,0 z m 26.487784,8.501456 -2.025391,2.009765 1.732422,1.730469 -3.601562,3.601563 -1.730469,-1.716797 -2.009766,2.009765 1.490235,1.50586 4.5,0 3.15039,-3.150391 0,-4.5 z m -28.083984,10.144531 -2.015625,2.054687 2.80664,2.791016 -3.601562,3.601563 -2.814453,-2.814454 -2.03125,2.023438 2.595703,2.589848 4.5,0 3.15039,-3.150395 0,-4.5 z m -14.486328,1.224609 -1.980469,2.007813 1.582031,1.613281 -3.599609,3.601563 -1.566407,-1.566407 -2.05664,1.992189 1.373047,1.37305 4.5,0 3.15039,-3.150395 0,-4.5 z m 31.71875,0.263672 -1.994141,2.041016 1.302734,1.316406 -3.601562,3.601563 -1.316407,-1.31836 -2.02539,2.041012 1.091797,1.07618 4.5,0 3.15039,-3.150395 0,-4.5 z m -24.646484,-31.755859 2.039062,-2.033203 -1.035157,-1.027344 0.822266,-0.822266 -2.009766,-2.009765 -0.611328,0.582031 -16.09375,0 -11.28125,-11.28125 0,-4.46875 -0.695312,-0.697266 -2.027344,2.027344 L 22,42.123047 l -3.599609,3.599609 -0.919922,-0.921875 -2.027344,2.027344 0.697266,0.695313 4.46875,0 8.099609,8.099609 -4.917969,0 -3.15039,-3.150391 -4.5,0 -1.423829,1.423828 2.025391,2.025391 1.648438,-1.648437 L 22,57.873047 l -1.648438,1.648437 2.025391,2.025391 1.423828,-1.423828 4.898438,0 -8.064453,8.025391 -4.484375,0 -0.666016,0.664062 2.025391,2.025391 0.890625,-0.890625 L 22,73.546875 21.109375,74.4375 l 2.025391,2.025391 0.666015,-0.666016 0,-4.451172 11.275391,-11.222656 16.099609,0 z m 6.794921,-19.640625 -2.191406,2.179687 -1.322266,-1.322265 -2.025391,2.046875 1.097657,1.076172 0,7.199218 -2.458985,2.458985 2.025391,2.02539 2.683594,-2.683593 2.302734,2.302734 2.025391,-2.025391 -2.076172,-2.076172 0,-7.203125 1.964844,-1.953125 z M 14.632812,54.021484 13,55.623047 l 0,4.5 3.150391,3.150391 4.5,0 1.617187,-1.632813 -2.009766,-2.009766 -1.857421,1.841797 -3.59961,-3.599609 1.857422,-1.841797 z M 15.421875,68.90625 13,71.296875 l 0,4.5 3.150391,3.150391 4.5,0 2.40625,-2.390625 -2.041016,-2.009766 -2.615234,2.601563 -3.59961,-3.601563 2.63086,-2.615234 z M 26.554688,80.261719 24.25,82.546875 l 0,4.5 3.150391,3.150391 4.5,0 2.302734,-2.302735 -2.041016,-1.99414 -2.511718,2.498047 -3.59961,-3.601563 2.527344,-2.527344 z"
 style="display:inline;fill:none;fill-opacity:1;fill-rule:evenodd;stroke:#000000;stroke-width:0.075;stroke-linecap:square;stroke-linejoin:bevel;stroke-miterlimit:10;stroke-dasharray:none;stroke-opacity:1"
 transform="translate(0,-3.8146973e-6)"
 id="path262" /><path
 d="m 114.03125,33.240234 4.32031,0 0,-7.207031 0.24024,-0.601562 0.63867,-0.279297 18.40039,0 0.59961,0.279297 0.28125,0.601562 0,7.207031 4.32031,0 0,-7.207031 -0.26953,-1.679687 -0.61523,-1.205078 -0.63672,-0.75586 -1.38086,-1.03125 -0.93164,-0.355469 -1.36719,-0.173828 -23.59961,0 z m 0,0.195277 0,16.156286 4.32031,0 0,-10.359375 0.87891,0.08008 9.8418,0 8.63867,10.279297 5.12109,0 0,-0.599609 -8.12109,-9.679688 2.91992,0 1.86523,-0.326172 0.9961,-0.517578 0.81836,-0.675781 0.48437,-0.560547 0.42578,-0.65625 0.45313,-1.154297 0.1582,-1.310547 0,-0.773438 -4.32031,0.0078 0,0.765625 -0.28125,0.640625 -0.59961,0.240235 -18.40039,0 -0.63867,-0.240235 -0.24024,-0.640625 0,-0.675817 z"
 style="font-style:normal;font-variant:normal;font-weight:500;font-stretch:normal;font-size:medium;line-height:125%;font-family:Orbitron;-inkscape-font-specification:'Orbitron, Medium';text-align:start;letter-spacing:0px;word-spacing:0px;writing-mode:lr-tb;text-anchor:start;fill:none;fill-opacity:1;stroke:#000000;stroke-width:0.075;stroke-linecap:butt;stroke-linejoin:miter;stroke-miterlimit:10;stroke-dasharray:none;stroke-opacity:1"
 transform="translate(0,-3.8146973e-6)"
 id="path4583" /><path
 d="m 146.83984,38.863281 4.32032,0 0,-7.271484 0.24023,-0.599609 0.64063,-0.279297 13.19921,0 0.59961,0.279297 0.2793,0.599609 0,7.271484 4.32031,0 0,-7.271484 -0.27734,-1.732422 -0.55469,-1.113281 -0.6875,-0.833985 -0.96289,-0.771484 -1.25195,-0.552734 -1.46485,-0.195313 -13.19921,0 -1.70313,0.267578 -1.12109,0.548828 -0.85742,0.703125 -0.75196,0.933594 -0.55078,1.207031 -0.2168,1.539063 z m -0.006,0.110485 0.006,5.418812 0.22852,1.576172 0.5,1.107422 0.79102,0.996094 0.9746,0.777343 1.17383,0.527344 1.53321,0.214844 13.19921,0 1.69336,-0.265625 1.21094,-0.605469 0.77539,-0.648437 0.75391,-0.9375 0.57812,-1.304688 0.1875,-1.4375 0,-5.435384 -4.31479,-0.0055 -0.006,5.440909 -0.2793,0.640625 -0.59961,0.238281 -13.19921,0 -0.64063,-0.238281 -0.24023,-0.640625 0.006,-5.402239 z"
 style="font-style:normal;font-variant:normal;font-weight:500;font-stretch:normal;font-size:medium;line-height:125%;font-family:Orbitron;-inkscape-font-specification:'Orbitron, Medium';text-align:start;letter-spacing:0px;word-spacing:0px;writing-mode:lr-tb;text-anchor:start;fill:none;fill-opacity:1;stroke:#000000;stroke-width:0.075;stroke-linecap:butt;stroke-linejoin:miter;stroke-miterlimit:10;stroke-dasharray:none;stroke-opacity:1"
 transform="translate(0,-3.8146973e-6)"
 id="path4585" /><path
 id="path4587"
 d="m 196.85008,26.392247 4.96,0 -12.8,23.2 -4.32,0 -12.8,-23.2 5,0 9.96,18.32 z"
 style="font-style:normal;font-variant:normal;font-weight:500;font-stretch:normal;font-size:medium;line-height:125%;font-family:Orbitron;-inkscape-font-specification:'Orbitron, Medium';text-align:start;letter-spacing:0px;word-spacing:0px;writing-mode:lr-tb;text-anchor:start;fill:none;fill-opacity:1;stroke:#000000;stroke-width:0.075;stroke-linecap:butt;stroke-linejoin:miter;stroke-miterlimit:10;stroke-dasharray:none;stroke-opacity:1" /><path
 d="m 202.15234,33.240234 4.32032,0 0,-1.648437 0.24023,-0.599609 0.64063,-0.279297 13.19921,0 0.59961,0.279297 0.2793,0.599609 0,1.648437 4.32031,0 0,-1.648437 -0.30078,-1.798828 -0.54492,-1.06836 -0.67383,-0.8125 -0.89453,-0.726562 -1.05078,-0.513672 -1.73438,-0.279297 -13.19921,0 -1.55079,0.21875 -1.23437,0.572266 -0.89648,0.728515 -0.79493,1.001953 -0.54297,1.261719 -0.18164,1.416016 z m -0.004,0.08984 0.004,11.0625 0.20899,1.511719 0.5332,1.193359 0.77735,0.97461 1.07421,0.83789 1.20313,0.503906 1.4043,0.177735 18.39843,0 0,-4.320313 -18.39843,0 -0.64063,-0.238281 -0.24023,-0.640625 0,-4.240234 19.27929,0 0,-6.791016 -4.32422,-0.0078 0.004,2.478516 -14.95898,0 0,-2.494141 z"
 style="font-style:normal;font-variant:normal;font-weight:500;font-stretch:normal;font-size:medium;line-height:125%;font-family:Orbitron;-inkscape-font-specification:'Orbitron, Medium';text-align:start;letter-spacing:0px;word-spacing:0px;writing-mode:lr-tb;text-anchor:start;fill:none;fill-opacity:1;stroke:#000000;stroke-width:0.075;stroke-linecap:butt;stroke-linejoin:miter;stroke-miterlimit:10;stroke-dasharray:none;stroke-opacity:1"
 transform="translate(0,-3.8146973e-6)"
 id="path4589" /><path
 id="path4591"
 d="m 234.26758,26.392247 12.96,0 0,4.32 -12.96,0 -0.64,0.28 -0.24,0.6 0,18 -4.32,0 0,-5.2 0,-12.8 0.22988,-1.583215 0.48696,-1.08165 0.80316,-1.015135 1.06849,-0.83508 1.20845,-0.507006 z"
 style="font-style:normal;font-variant:normal;font-weight:500;font-stretch:normal;font-size:medium;line-height:125%;font-family:Orbitron;-inkscape-font-specification:'Orbitron, Medium';text-align:start;letter-spacing:0px;word-spacing:0px;writing-mode:lr-tb;text-anchor:start;fill:none;fill-opacity:1;stroke:#000000;stroke-width:0.075;stroke-linecap:butt;stroke-linejoin:miter;stroke-miterlimit:10;stroke-dasharray:none;stroke-opacity:1" /><path
 id="path4594"
 d="m 167.21946,56.837749 4.6,0 -10.48,28.8 -3.52,0 -8.2,-22.44 -8.16,22.44 -0.08,-0.04 0.04,0.04 -3.48,0 -10.48,-28.8 4.6,0 7.64,21 7.64,-21 4.6,0 7.64,21 7.64,-21 z"
 style="font-style:normal;font-variant:normal;font-weight:500;font-stretch:normal;font-size:medium;line-height:125%;font-family:Orbitron;-inkscape-font-specification:'Orbitron, Medium';text-align:start;letter-spacing:0px;word-spacing:0px;writing-mode:lr-tb;text-anchor:start;fill:none;fill-opacity:1;stroke:#000000;stroke-width:0.075;stroke-linecap:butt;stroke-linejoin:miter;stroke-opacity:1;stroke-miterlimit:10;stroke-dasharray:none" /><path
 id="path4596"
 d="m 175.09259,85.637749 0,-23.2 4.32,0 0,23.2 -4.32,0 z m 0,-30.8 4.32,0 0,4.32 -4.32,0 0,-4.32 z"
 style="font-style:normal;font-variant:normal;font-weight:500;font-stretch:normal;font-size:medium;line-height:125%;font-family:Orbitron;-inkscape-font-specification:'Orbitron, Medium';text-align:start;letter-spacing:0px;word-spacing:0px;writing-mode:lr-tb;text-anchor:start;fill:none;fill-opacity:1;stroke:#000000;stroke-width:0.075;stroke-linecap:butt;stroke-linejoin:miter;stroke-opacity:1;stroke-miterlimit:10;stroke-dasharray:none" /><path
 id="path4598"
 d="m 201.30696,62.437749 1.59725,0.234243 1.08148,0.491041 1.00127,0.794716 0.63346,0.754065 0.60179,1.176041 0.28475,1.749894 0,18 -4.32,0 0,-18 -0.28,-0.6 -0.6,-0.28 -13.2,0 -0.64,0.28 -0.24,0.6 0,18 -4.32,0 0,-23.2 z"
 style="font-style:normal;font-variant:normal;font-weight:500;font-stretch:normal;font-size:medium;line-height:125%;font-family:Orbitron;-inkscape-font-specification:'Orbitron, Medium';text-align:start;letter-spacing:0px;word-spacing:0px;writing-mode:lr-tb;text-anchor:start;fill:none;fill-opacity:1;stroke:#000000;stroke-width:0.075;stroke-linecap:butt;stroke-linejoin:miter;stroke-opacity:1;stroke-miterlimit:10;stroke-dasharray:none" /><path
 d="m 210.19922,74.169922 4.32031,0 0,-6.53125 0.24024,-0.601563 0.64062,-0.279297 13.19922,0 0.59961,0.279297 0.2793,0.601563 0,6.53125 4.32031,0 0,-6.53125 -0.14453,-1.277344 -0.58008,-1.404297 -0.79492,-1 -0.94727,-0.759765 -1.16797,-0.535157 -1.56445,-0.224609 -13.19922,0 -1.62891,0.244141 -1.05664,0.486328 -0.99609,0.789062 -0.56445,0.658203 -0.63672,1.181641 -0.31836,1.841797 z m 0,0.148437 0,6.119141 0.27539,1.720703 0.53906,1.097656 0.70508,0.861329 0.71484,0.607421 1.22266,0.63086 1.74414,0.283203 14.07813,0 0,4 -0.2793,0.599609 -0.59961,0.279297 -14.32031,0 0,4.320313 14.32031,0 1.83203,-0.314453 1.23047,-0.669922 0.61719,-0.535157 0.80273,-1.013671 0.51563,-1.177735 0.20117,-1.488281 0,-12.800781 0,-0.04102 0,-2.49437 -4.32031,0 0,6.134995 -0.2793,0.640625 -0.59961,0.240234 -13.19922,0 -0.64062,-0.240234 -0.24024,-0.640625 0,-6.126953 z"
 style="font-style:normal;font-variant:normal;font-weight:500;font-stretch:normal;font-size:medium;line-height:125%;font-family:Orbitron;-inkscape-font-specification:'Orbitron, Medium';text-align:start;letter-spacing:0px;word-spacing:0px;writing-mode:lr-tb;text-anchor:start;fill:none;fill-opacity:1;stroke:#000000;stroke-width:0.075;stroke-linecap:butt;stroke-linejoin:miter;stroke-miterlimit:10;stroke-dasharray:none;stroke-opacity:1"
 transform="translate(0,-3.8146973e-6)"
 id="path4600" /></svg>